<svg width="282" height="299" viewBox="0 0 282 299" fill="none" xmlns="http://www.w3.org/2000/svg">
<path fill-rule="evenodd" clip-rule="evenodd" d="M99.098 15.647C85.6554 15.647 74.7581 26.5443 74.7581 39.9869V42.6668C72.2913 43.0807 70.4117 45.226 70.4117 47.8104V53.8953C70.4117 56.5258 72.359 58.7015 74.8907 59.0594C75.7892 67.6678 81.1745 74.9417 88.6666 78.5008V86.5594C70.2351 87.6818 55.6339 102.985 55.6339 121.699H142.562C142.562 102.985 127.961 87.6818 109.529 86.5594V78.5008C117.021 74.9417 122.407 67.6678 123.305 59.0594C125.837 58.7015 127.784 56.5258 127.784 53.8953V47.8104C127.784 45.226 125.905 43.0806 123.438 42.6668V39.9868C123.438 26.5443 112.54 15.647 99.098 15.647Z" fill="#D0C6AC"/>
<mask id="mask0" mask-type="alpha" maskUnits="userSpaceOnUse" x="55" y="15" width="88" height="107">
<path fill-rule="evenodd" clip-rule="evenodd" d="M99.098 15.647C85.6554 15.647 74.7581 26.5443 74.7581 39.9869V42.6668C72.2913 43.0807 70.4117 45.226 70.4117 47.8104V53.8953C70.4117 56.5258 72.359 58.7015 74.8907 59.0594C75.7892 67.6678 81.1745 74.9417 88.6666 78.5008V86.5594C70.2351 87.6818 55.6339 102.985 55.6339 121.699H142.562C142.562 102.985 127.961 87.6818 109.529 86.5594V78.5008C117.021 74.9417 122.407 67.6678 123.305 59.0594C125.837 58.7015 127.784 56.5258 127.784 53.8953V47.8104C127.784 45.226 125.905 43.0806 123.438 42.6668V39.9868C123.438 26.5443 112.54 15.647 99.098 15.647Z" fill="white"/>
</mask>
<g mask="url(#mask0)">
<rect x="41.7255" y="15.647" width="114.745" height="106.052" fill="#D08B5B"/>
<path fill-rule="evenodd" clip-rule="evenodd" d="M74.7581 56.5032V59.9803C74.7581 73.4229 85.6554 84.3202 99.0979 84.3202C112.54 84.3202 123.438 73.4228 123.438 59.9803V56.5032C123.438 69.9457 112.54 80.8431 99.0979 80.8431C85.6554 80.8431 74.7581 69.9457 74.7581 56.5032Z" fill="black" fill-opacity="0.1"/>
</g>
<path fill-rule="evenodd" clip-rule="evenodd" d="M110.833 87.8199C110.833 93.821 105.579 98.6859 99.098 98.6859C92.6167 98.6859 87.3627 93.821 87.3627 87.8199C87.3627 87.434 87.3844 87.0528 87.4268 86.6772C69.5863 88.3831 55.6339 103.412 55.6339 121.699H142.562C142.562 103.412 128.61 88.3831 110.769 86.6772C110.812 87.0528 110.833 87.434 110.833 87.8199Z" fill="#E6E6E6"/>
<mask id="mask1" mask-type="alpha" maskUnits="userSpaceOnUse" x="55" y="86" width="88" height="36">
<path fill-rule="evenodd" clip-rule="evenodd" d="M110.833 87.8199C110.833 93.821 105.579 98.6859 99.098 98.6859C92.6167 98.6859 87.3627 93.821 87.3627 87.8199C87.3627 87.434 87.3844 87.0528 87.4268 86.6772C69.5863 88.3831 55.6339 103.412 55.6339 121.699H142.562C142.562 103.412 128.61 88.3831 110.769 86.6772C110.812 87.0528 110.833 87.434 110.833 87.8199Z" fill="white"/>
</mask>
<g mask="url(#mask1)">
<rect x="41.7255" y="73.8889" width="114.745" height="47.8105" fill="#262E33"/>
</g>
<path fill-rule="evenodd" clip-rule="evenodd" d="M112.849 121.699H142.562C142.562 104.257 129.869 89.779 113.216 86.9982C114.468 91.9396 115.18 97.6196 115.18 103.662C115.18 110.272 114.327 116.449 112.849 121.699ZM85.4327 86.9255C84.1699 91.8839 83.4509 97.59 83.4509 103.662C83.4509 110.272 84.3031 116.449 85.7813 121.699H55.6339C55.6339 104.099 68.5574 89.5172 85.4327 86.9255Z" fill="#3A4C5A"/>
<path fill-rule="evenodd" clip-rule="evenodd" d="M120.395 111.268L123.167 109.189C124.61 108.107 126.599 108.124 128.023 109.232L129.523 110.399L120.395 111.268Z" fill="#E6E6E6"/>
<path fill-rule="evenodd" clip-rule="evenodd" d="M85.6241 86.0588C83.0162 98.6634 87.7973 121.699 87.7973 121.699H80.843L74.7581 106.052L77.3659 102.141L74.7581 99.5327L83.0162 86.4935C83.0162 86.4935 84.3382 86.0822 85.6241 86.0588Z" fill="#2F4351"/>
<path fill-rule="evenodd" clip-rule="evenodd" d="M112.572 86.0588C115.18 98.6634 110.399 121.699 110.399 121.699H117.353L123.438 106.052L120.83 102.141L123.438 99.5327L115.18 86.4935C115.18 86.4935 113.858 86.0822 112.572 86.0588Z" fill="#2F4351"/>
<path fill-rule="evenodd" clip-rule="evenodd" d="M88.6667 83.2507C85.7231 85.2488 83.8856 88.0828 83.8856 91.2259C83.8856 94.4426 85.8102 97.3356 88.8752 99.34L91.4573 97.3059L93.4477 97.45L93.0131 96.0804L93.0469 96.0537C90.3955 94.6879 88.6667 92.4483 88.6667 89.9172C88.6667 89.9172 88.6667 89.9172 88.6667 89.9172V83.2507ZM109.529 89.9172C109.529 92.4483 107.801 94.6879 105.149 96.0537L105.183 96.0804L104.748 97.45L106.739 97.3059L109.321 99.34C112.386 97.3356 114.31 94.4426 114.31 91.2259C114.31 88.0828 112.473 85.2488 109.529 83.2507V89.9172Z" fill="#F2F2F2"/>
<path fill-rule="evenodd" clip-rule="evenodd" d="M93.0131 64.7615C93.0131 68.1221 95.7374 70.8464 99.098 70.8464C102.459 70.8464 105.183 68.1221 105.183 64.7615" fill="black" fill-opacity="0.7"/>
<path fill-rule="evenodd" clip-rule="evenodd" d="M93.8823 56.5034C93.8823 58.4238 96.2175 59.9805 99.098 59.9805C101.979 59.9805 104.314 58.4238 104.314 56.5034" fill="black" fill-opacity="0.16"/>
<rect width="48.6797" height="19.1242" transform="translate(74.7582 39.1177)" fill="#D08B5B"/>
<path fill-rule="evenodd" clip-rule="evenodd" d="M81.782 51.0932C82.5846 52.7444 84.3917 53.8955 86.4924 53.8955C88.5857 53.8955 90.3874 52.7525 91.1942 51.1107C91.4339 50.623 91.0929 50.2239 90.7488 50.5196C89.6835 51.4355 88.1706 52.0075 86.4924 52.0075C84.8667 52.0075 83.3961 51.4708 82.3372 50.6046C81.9501 50.2879 81.5473 50.6103 81.782 51.0932Z" fill="black" fill-opacity="0.6"/>
<path fill-rule="evenodd" clip-rule="evenodd" d="M106.991 51.0932C107.794 52.7444 109.601 53.8955 111.702 53.8955C113.795 53.8955 115.597 52.7525 116.403 51.1107C116.643 50.623 116.302 50.2239 115.958 50.5196C114.893 51.4355 113.38 52.0075 111.702 52.0075C110.076 52.0075 108.605 51.4708 107.546 50.6046C107.159 50.2879 106.757 50.6103 106.991 51.0932Z" fill="black" fill-opacity="0.6"/>
<path d="M81.5517 43.0984C83.2533 40.7041 87.9181 39.3615 91.9364 40.3483C92.4027 40.4628 92.8735 40.1776 92.988 39.7114C93.1025 39.2452 92.8173 38.7744 92.3511 38.6599C87.6845 37.5139 82.2827 39.0686 80.1345 42.0913C79.8564 42.4826 79.9482 43.0253 80.3395 43.3034C80.7309 43.5816 81.2736 43.4898 81.5517 43.0984Z" fill="black" fill-opacity="0.6"/>
<path d="M116.644 43.0984C114.943 40.7041 110.278 39.3615 106.26 40.3483C105.793 40.4628 105.323 40.1776 105.208 39.7114C105.094 39.2452 105.379 38.7744 105.845 38.6599C110.512 37.5139 115.913 39.0686 118.062 42.0913C118.34 42.4826 118.248 43.0253 117.857 43.3034C117.465 43.5816 116.923 43.4898 116.644 43.0984Z" fill="black" fill-opacity="0.6"/>
<mask id="mask2" mask-type="alpha" maskUnits="userSpaceOnUse" x="41" y="0" width="116" height="122">
<rect x="41.7255" width="114.745" height="121.699" fill="white"/>
</mask>
<g mask="url(#mask2)">
<path fill-rule="evenodd" clip-rule="evenodd" d="M99.3147 72.0812C94.3709 72.2455 92.1656 74.637 90.5048 72.2066C89.2583 70.3823 89.7798 67.3144 90.9446 65.5884C92.6019 63.132 94.8501 64.3201 97.364 64.0399C98.0475 63.9637 98.7341 63.7717 99.3147 63.4575C99.8952 63.7717 100.582 63.9637 101.265 64.0399C103.779 64.3201 106.027 63.132 107.685 65.5884C108.849 67.3144 109.371 70.3823 108.124 72.2066C106.464 74.637 104.258 71.9169 99.3147 72.0812ZM123.316 42.5947C121.845 48.7122 121.17 54.9532 120.103 61.1413C119.881 62.4313 119.638 63.7167 119.379 65.0003C119.325 65.2698 119.272 66.2707 119.009 66.3975C118.214 66.7818 116.594 64.7382 116.161 64.2768C115.073 63.1181 113.994 61.9489 112.669 61.0397C109.991 59.2025 106.857 58.1161 103.595 57.8584C102.23 57.7504 100.384 57.9386 99.0981 58.7244C97.8118 57.9386 95.9664 57.7504 94.6014 57.8584C91.3395 58.1161 88.2047 59.2025 85.5271 61.0397C84.2019 61.9489 83.1233 63.1181 82.0351 64.2768C81.6019 64.7382 79.9817 66.7818 79.1868 66.3975C78.9243 66.2707 78.8708 65.2698 78.8166 65.0003C78.5583 63.7167 78.315 62.4313 78.0928 61.1413C77.0266 54.9532 76.3508 48.7122 74.8801 42.5947C74.4521 42.5947 74.0767 50.7433 74.0289 51.5025C73.8346 54.586 73.6077 57.6009 73.8977 60.6871C74.3976 66.0109 74.9188 72.6866 78.9271 76.7521C82.5489 80.4256 87.8075 81.1936 92.3431 83.5124C92.9271 83.8109 93.7017 84.1795 94.537 84.4815C95.417 85.1609 97.1623 85.6241 99.1728 85.6241C101.282 85.6241 103.099 85.1145 103.931 84.3801C104.662 84.0997 105.333 83.7782 105.853 83.5124C110.388 81.1931 115.647 80.4256 119.269 76.7521C123.277 72.6866 123.798 66.0109 124.299 60.6871C124.588 57.6009 124.361 54.586 124.167 51.5025C124.119 50.7433 123.744 42.5947 123.316 42.5947Z" fill="#252E32"/>
<mask id="mask3" mask-type="alpha" maskUnits="userSpaceOnUse" x="73" y="42" width="52" height="44">
<path fill-rule="evenodd" clip-rule="evenodd" d="M99.3147 72.0812C94.3709 72.2455 92.1656 74.637 90.5048 72.2066C89.2583 70.3823 89.7798 67.3144 90.9446 65.5884C92.6019 63.132 94.8501 64.3201 97.364 64.0399C98.0475 63.9637 98.7341 63.7717 99.3147 63.4575C99.8952 63.7717 100.582 63.9637 101.265 64.0399C103.779 64.3201 106.027 63.132 107.685 65.5884C108.849 67.3144 109.371 70.3823 108.124 72.2066C106.464 74.637 104.258 71.9169 99.3147 72.0812ZM123.316 42.5947C121.845 48.7122 121.17 54.9532 120.103 61.1413C119.881 62.4313 119.638 63.7167 119.379 65.0003C119.325 65.2698 119.272 66.2707 119.009 66.3975C118.214 66.7818 116.594 64.7382 116.161 64.2768C115.073 63.1181 113.994 61.9489 112.669 61.0397C109.991 59.2025 106.857 58.1161 103.595 57.8584C102.23 57.7504 100.384 57.9386 99.0981 58.7244C97.8118 57.9386 95.9664 57.7504 94.6014 57.8584C91.3395 58.1161 88.2047 59.2025 85.5271 61.0397C84.2019 61.9489 83.1233 63.1181 82.0351 64.2768C81.6019 64.7382 79.9817 66.7818 79.1868 66.3975C78.9243 66.2707 78.8708 65.2698 78.8166 65.0003C78.5583 63.7167 78.315 62.4313 78.0928 61.1413C77.0266 54.9532 76.3508 48.7122 74.8801 42.5947C74.4521 42.5947 74.0767 50.7433 74.0289 51.5025C73.8346 54.586 73.6077 57.6009 73.8977 60.6871C74.3976 66.0109 74.9188 72.6866 78.9271 76.7521C82.5489 80.4256 87.8075 81.1936 92.3431 83.5124C92.9271 83.8109 93.7017 84.1795 94.537 84.4815C95.417 85.1609 97.1623 85.6241 99.1728 85.6241C101.282 85.6241 103.099 85.1145 103.931 84.3801C104.662 84.0997 105.333 83.7782 105.853 83.5124C110.388 81.1931 115.647 80.4256 119.269 76.7521C123.277 72.6866 123.798 66.0109 124.299 60.6871C124.588 57.6009 124.361 54.586 124.167 51.5025C124.119 50.7433 123.744 42.5947 123.316 42.5947Z" fill="white"/>
</mask>
<g mask="url(#mask3)">
<rect x="63.0228" y="31.2942" width="72.1503" height="66.0654" fill="#724133"/>
</g>
<path fill-rule="evenodd" clip-rule="evenodd" d="M74.1193 42.3776C76.7582 36.0266 86.94 31.2943 99.0979 31.2943C111.256 31.2943 121.438 36.0266 124.076 42.3776C124.512 41.3304 124.742 40.2391 124.742 39.1178C124.742 31.1963 113.261 24.7747 99.0979 24.7747C84.9352 24.7747 73.4541 31.1963 73.4541 39.1178C73.4541 40.2391 73.6841 41.3304 74.1193 42.3776Z" fill="#EDECE3"/>
<path fill-rule="evenodd" clip-rule="evenodd" d="M62.5882 40.9969C62.5592 58.024 75.1928 61.2844 75.1928 61.2844C72.8273 39.7469 85.4224 32.9669 95.4161 27.5873C96.694 26.8994 97.9294 26.2344 99.0855 25.5643C100.246 26.2377 101.487 26.906 102.771 27.5976C112.758 32.9756 125.358 39.7607 123.003 61.2844C123.003 61.2844 135.636 57.6074 135.608 40.9969C135.572 20.4926 112.941 1.30396 99.9672 1.30396C99.6742 1.30396 99.383 1.31684 99.0943 1.34223C98.8079 1.31684 98.5192 1.30396 98.2287 1.30396C85.2214 1.30396 62.6231 20.4926 62.5882 40.9969Z" fill="#124C74"/>
<mask id="mask4" mask-type="alpha" maskUnits="userSpaceOnUse" x="62" y="1" width="74" height="61">
<path fill-rule="evenodd" clip-rule="evenodd" d="M62.5882 40.9969C62.5592 58.024 75.1928 61.2844 75.1928 61.2844C72.8273 39.7469 85.4224 32.9669 95.4161 27.5873C96.694 26.8994 97.9294 26.2344 99.0855 25.5643C100.246 26.2377 101.487 26.906 102.771 27.5976C112.758 32.9756 125.358 39.7607 123.003 61.2844C123.003 61.2844 135.636 57.6074 135.608 40.9969C135.572 20.4926 112.941 1.30396 99.9672 1.30396C99.6742 1.30396 99.383 1.31684 99.0943 1.34223C98.8079 1.31684 98.5192 1.30396 98.2287 1.30396C85.2214 1.30396 62.6231 20.4926 62.5882 40.9969Z" fill="white"/>
</mask>
<g mask="url(#mask4)">
<rect x="41.7253" width="114.745" height="121.699" fill="#25557C"/>
</g>
<path fill-rule="evenodd" clip-rule="evenodd" d="M62.5939 41.6817C62.8994 58.1118 75.1928 61.2843 75.1928 61.2843C75.1928 61.2843 62.5592 58.213 62.5882 42.1729C62.5885 42.0091 62.5904 41.8453 62.5939 41.6817ZM74.9032 56.3641C74.9681 39.9099 86.2793 34.174 95.4161 29.5407C100.199 27.1152 104.387 24.9918 106.052 21.791C107.846 18.6414 108.395 15.7319 108.071 13.2427C107.852 15.1408 107.213 17.1973 106.052 19.3607C104.387 22.7584 100.199 25.0124 95.4161 27.5873C86.2267 32.5339 74.8378 38.6647 74.9032 56.3641Z" fill="black" fill-opacity="0.16"/>
</g>
<path fill-rule="evenodd" clip-rule="evenodd" d="M182.549 15.647C169.106 15.647 158.209 26.5443 158.209 39.9869V42.6668C155.742 43.0807 153.863 45.226 153.863 47.8104V53.8953C153.863 56.5258 155.81 58.7015 158.342 59.0594C159.24 67.6678 164.626 74.9417 172.118 78.5008V86.5594C153.686 87.6818 139.085 102.985 139.085 121.699H226.013C226.013 102.985 211.412 87.6818 192.98 86.5594V78.5008C200.472 74.9417 205.858 67.6678 206.756 59.0594C209.288 58.7015 211.235 56.5258 211.235 53.8953V47.8104C211.235 45.226 209.356 43.0806 206.889 42.6668V39.9868C206.889 26.5443 195.992 15.647 182.549 15.647Z" fill="#D0C6AC"/>
<mask id="mask5" mask-type="alpha" maskUnits="userSpaceOnUse" x="139" y="15" width="88" height="107">
<path fill-rule="evenodd" clip-rule="evenodd" d="M182.549 15.647C169.106 15.647 158.209 26.5443 158.209 39.9869V42.6668C155.742 43.0807 153.863 45.226 153.863 47.8104V53.8953C153.863 56.5258 155.81 58.7015 158.342 59.0594C159.24 67.6678 164.626 74.9417 172.118 78.5008V86.5594C153.686 87.6818 139.085 102.985 139.085 121.699H226.013C226.013 102.985 211.412 87.6818 192.98 86.5594V78.5008C200.472 74.9417 205.858 67.6678 206.756 59.0594C209.288 58.7015 211.235 56.5258 211.235 53.8953V47.8104C211.235 45.226 209.356 43.0806 206.889 42.6668V39.9868C206.889 26.5443 195.992 15.647 182.549 15.647Z" fill="white"/>
</mask>
<g mask="url(#mask5)">
<rect x="125.177" y="15.647" width="114.745" height="106.052" fill="#AE5D29"/>
<path fill-rule="evenodd" clip-rule="evenodd" d="M158.209 56.5032V59.9803C158.209 73.4229 169.106 84.3202 182.549 84.3202C195.992 84.3202 206.889 73.4228 206.889 59.9803V56.5032C206.889 69.9457 195.992 80.8431 182.549 80.8431C169.106 80.8431 158.209 69.9457 158.209 56.5032Z" fill="black" fill-opacity="0.1"/>
</g>
<path fill-rule="evenodd" clip-rule="evenodd" d="M204.281 89.6872C204.281 96.7637 194.649 102.5 182.766 102.5C170.884 102.5 161.252 96.7637 161.252 89.6872C161.252 89.4533 161.262 89.2208 161.283 88.99C148.279 94.157 139.085 106.855 139.085 121.699H226.013C226.013 107.026 217.03 94.4505 204.264 89.1719C204.275 89.3428 204.281 89.5146 204.281 89.6872Z" fill="#E6E6E6"/>
<mask id="mask6" mask-type="alpha" maskUnits="userSpaceOnUse" x="139" y="88" width="88" height="34">
<path fill-rule="evenodd" clip-rule="evenodd" d="M204.281 89.6872C204.281 96.7637 194.649 102.5 182.766 102.5C170.884 102.5 161.252 96.7637 161.252 89.6872C161.252 89.4533 161.262 89.2208 161.283 88.99C148.279 94.157 139.085 106.855 139.085 121.699H226.013C226.013 107.026 217.03 94.4505 204.264 89.1719C204.275 89.3428 204.281 89.5146 204.281 89.6872Z" fill="white"/>
</mask>
<g mask="url(#mask6)">
<rect x="125.177" y="73.8889" width="114.745" height="47.8105" fill="#E6E6E6"/>
</g>
<path fill-rule="evenodd" clip-rule="evenodd" d="M174.342 64.817C174.802 68.9425 178.301 72.1503 182.549 72.1503C186.81 72.1503 190.318 68.9227 190.76 64.7788C190.796 64.4453 190.423 63.8921 189.957 63.8921C183.483 63.8921 178.523 63.8921 175.198 63.8921C174.728 63.8921 174.296 64.4043 174.342 64.817Z" fill="black" fill-opacity="0.7"/>
<mask id="mask7" mask-type="alpha" maskUnits="userSpaceOnUse" x="174" y="63" width="17" height="10">
<path fill-rule="evenodd" clip-rule="evenodd" d="M174.342 64.817C174.802 68.9425 178.301 72.1503 182.549 72.1503C186.81 72.1503 190.318 68.9227 190.76 64.7788C190.796 64.4453 190.423 63.8921 189.957 63.8921C183.483 63.8921 178.523 63.8921 175.198 63.8921C174.728 63.8921 174.296 64.4043 174.342 64.817Z" fill="white"/>
</mask>
<g mask="url(#mask7)">
<rect x="176.029" y="59.1111" width="13.4739" height="6.95425" rx="3.47712" fill="white"/>
<path fill-rule="evenodd" clip-rule="evenodd" d="M180.376 78.2352C183.016 78.2352 185.157 76.0946 185.157 73.4541C185.157 70.8136 183.016 68.6731 180.376 68.6731C177.735 68.6731 175.595 70.8136 175.595 73.4541C175.595 76.0946 177.735 78.2352 180.376 78.2352Z" fill="#FF4F6D"/>
<path fill-rule="evenodd" clip-rule="evenodd" d="M184.722 78.2352C187.363 78.2352 189.503 76.0946 189.503 73.4541C189.503 70.8136 187.363 68.6731 184.722 68.6731C182.082 68.6731 179.941 70.8136 179.941 73.4541C179.941 76.0946 182.082 78.2352 184.722 78.2352Z" fill="#FF4F6D"/>
</g>
<mask id="mask8" mask-type="alpha" maskUnits="userSpaceOnUse" x="125" y="0" width="115" height="122">
<rect x="125" width="114.745" height="121.699" fill="white"/>
</mask>
<g mask="url(#mask8)">
<mask id="mask9" mask-type="alpha" maskUnits="userSpaceOnUse" x="125" y="0" width="115" height="122">
<path fill-rule="evenodd" clip-rule="evenodd" d="M239.922 0H125.177V121.699H139.085C139.085 102.985 153.686 87.6819 172.118 86.5594V78.5008C164.498 74.8812 159.058 67.4192 158.3 58.6187C155.789 58.2429 153.863 56.0767 153.863 53.4608V47.8105C153.863 45.2261 155.743 43.0807 158.209 42.6669V39.9869C158.209 36.506 158.94 33.1958 160.256 30.2012C163.996 23.3851 200.558 23.0359 204.873 30.2724C206.17 33.2482 206.889 36.5336 206.889 39.9869V42.6669C209.356 43.0807 211.235 45.2261 211.235 47.8105V53.4608C211.235 56.0767 209.31 58.2429 206.798 58.6187C206.041 67.4192 200.6 74.8812 192.981 78.5008V86.5594C211.412 87.6819 226.013 102.985 226.013 121.699H239.922V0Z" fill="white"/>
</mask>
<g mask="url(#mask9)">
<path fill-rule="evenodd" clip-rule="evenodd" d="M160.867 18.4887C163.122 8.20071 172.234 0.869385 182.766 0.869385C193.299 0.869385 202.411 8.20071 204.666 18.4887L207.758 32.5981H157.775L160.867 18.4887Z" fill="#1F333C"/>
<path fill-rule="evenodd" clip-rule="evenodd" d="M182.549 63.023C211.835 63.023 235.575 51.8337 235.575 38.0311C235.575 24.2285 211.835 13.0393 182.549 13.0393C153.264 13.0393 129.523 24.2285 129.523 38.0311C129.523 51.8337 153.264 63.023 182.549 63.023Z" fill="#1F333C"/>
<path fill-rule="evenodd" clip-rule="evenodd" d="M182.549 46.5064C197.432 46.5064 209.497 41.6416 209.497 35.6404C209.497 29.6393 197.432 24.7744 182.549 24.7744C167.666 24.7744 155.601 29.6393 155.601 35.6404C155.601 41.6416 167.666 46.5064 182.549 46.5064Z" fill="#15232A"/>
</g>
<g filter="url(#filter0_d)">
<path d="M178.947 48.897C178.947 53.1141 175.362 56.5343 169.386 56.5343H168.191C162.216 56.5343 159.825 53.1128 159.825 48.897C159.825 44.6787 160.384 41.2598 168.749 41.2598H170.024C178.389 41.2598 178.947 44.6787 178.947 48.897Z" fill="black" fill-opacity="0.7"/>
<path d="M178.947 48.897C178.947 53.1141 175.362 56.5343 169.386 56.5343H168.191C162.216 56.5343 159.825 53.1128 159.825 48.897C159.825 44.6787 160.384 41.2598 168.749 41.2598H170.024C178.389 41.2598 178.947 44.6787 178.947 48.897Z" fill="url(#paint0_linear)" style="mix-blend-mode:screen"/>
<path d="M205.707 48.897C205.707 53.1141 202.123 56.5343 196.146 56.5343H194.951C188.976 56.5343 186.585 53.1128 186.585 48.897C186.585 44.6787 187.144 41.2598 195.509 41.2598H196.784C205.148 41.2598 205.707 44.6787 205.707 48.897Z" fill="black" fill-opacity="0.7"/>
<path d="M205.707 48.897C205.707 53.1141 202.123 56.5343 196.146 56.5343H194.951C188.976 56.5343 186.585 53.1128 186.585 48.897C186.585 44.6787 187.144 41.2598 195.509 41.2598H196.784C205.148 41.2598 205.707 44.6787 205.707 48.897Z" fill="url(#paint1_linear)" style="mix-blend-mode:screen"/>
<path fill-rule="evenodd" clip-rule="evenodd" d="M168.191 57.8071H169.386C175.767 57.8071 180.222 54.1425 180.222 48.8969C180.222 44.3884 179.434 39.9868 170.024 39.9868H168.749C159.339 39.9868 158.551 44.3884 158.551 48.8969C158.551 54.476 162.155 57.8071 168.191 57.8071ZM161.1 48.8969C161.1 45.3405 161.1 42.5313 168.749 42.5313H170.024C177.673 42.5313 177.673 45.3405 177.673 48.8969C177.673 52.6443 174.266 55.2613 169.386 55.2613H168.191C162.329 55.2613 161.1 51.8004 161.1 48.8969Z" fill="#252C2F"/>
<path fill-rule="evenodd" clip-rule="evenodd" d="M194.951 57.8071H196.147C202.527 57.8071 206.982 54.1425 206.982 48.8969C206.982 44.3884 206.194 39.9868 196.784 39.9868H195.509C186.099 39.9868 185.311 44.3884 185.311 48.8969C185.311 54.476 188.915 57.8071 194.951 57.8071ZM187.86 48.8969C187.86 45.3405 187.86 42.5313 195.509 42.5313H196.784C204.433 42.5313 204.433 45.3405 204.433 48.8969C204.433 52.6443 201.026 55.2613 196.147 55.2613H194.951C189.091 55.2613 187.86 51.8004 187.86 48.8969Z" fill="#252C2F"/>
<path d="M156.006 42.5326C156.305 42.2347 159.567 39.9868 168.749 39.9868C176.449 39.9868 178.078 40.804 180.545 42.0387L180.726 42.1298C180.898 42.1918 181.775 42.4965 182.801 42.53C183.735 42.489 184.535 42.2299 184.768 42.1469C187.584 40.7464 190.341 39.9868 196.784 39.9868C205.966 39.9868 209.228 42.2347 209.527 42.5326C210.231 42.5326 210.801 43.1015 210.801 43.8054V45.0783C210.801 45.7822 210.231 46.3512 209.527 46.3512C209.527 46.3512 206.978 46.3512 206.978 47.6241C206.978 48.8969 205.704 45.7822 205.704 45.0783V43.8386C204.15 43.2303 201.368 42.5326 196.784 42.5326C191.676 42.5326 189.133 43.0241 186.951 43.9438L186.975 44.004L185.891 44.4419L186.974 44.8801L186.018 47.2399L184.837 46.7623C184.731 46.7196 184.504 46.643 184.188 46.5634C183.308 46.3414 182.404 46.2739 181.604 46.4418C181.31 46.5034 181.038 46.5959 180.788 46.7207L179.648 47.2902L178.508 45.0135L179.648 44.444L179.651 44.4426L178.559 44.0015L178.594 43.9155C176.712 43.0188 174.977 42.5326 168.749 42.5326C164.166 42.5326 161.384 43.2299 159.829 43.8381V45.0783C159.829 45.7822 158.555 48.8969 158.555 47.6241C158.555 46.3512 156.006 46.3512 156.006 46.3512C155.303 46.3512 154.732 45.7822 154.732 45.0783V43.8054C154.732 43.1015 155.303 42.5326 156.006 42.5326Z" fill="#252C2F"/>
</g>
</g>
<path fill-rule="evenodd" clip-rule="evenodd" d="M57.3725 103.876C43.93 103.876 33.0326 114.773 33.0326 128.216V130.896C30.5659 131.309 28.6862 133.455 28.6862 136.039V142.124C28.6862 144.755 30.6335 146.93 33.1653 147.288C34.0637 155.897 39.4491 163.17 46.9411 166.73V174.788C28.5096 175.911 13.9084 191.214 13.9084 209.928H100.837C100.837 191.214 86.2354 175.911 67.8039 174.788V166.73C75.2959 163.17 80.6813 155.897 81.5797 147.288C84.1114 146.93 86.0588 144.755 86.0588 142.124V136.039C86.0588 133.455 84.1791 131.309 81.7124 130.896V128.216C81.7124 114.773 70.815 103.876 57.3725 103.876Z" fill="#D0C6AC"/>
<mask id="mask10" mask-type="alpha" maskUnits="userSpaceOnUse" x="13" y="103" width="88" height="107">
<path fill-rule="evenodd" clip-rule="evenodd" d="M57.3725 103.876C43.93 103.876 33.0326 114.773 33.0326 128.216V130.896C30.5659 131.309 28.6862 133.455 28.6862 136.039V142.124C28.6862 144.755 30.6335 146.93 33.1653 147.288C34.0637 155.897 39.4491 163.17 46.9411 166.73V174.788C28.5096 175.911 13.9084 191.214 13.9084 209.928H100.837C100.837 191.214 86.2354 175.911 67.8039 174.788V166.73C75.2959 163.17 80.6813 155.897 81.5797 147.288C84.1114 146.93 86.0588 144.755 86.0588 142.124V136.039C86.0588 133.455 84.1791 131.309 81.7124 130.896V128.216C81.7124 114.773 70.815 103.876 57.3725 103.876Z" fill="white"/>
</mask>
<g mask="url(#mask10)">
<rect y="103.876" width="114.745" height="106.052" fill="#EDB98A"/>
<path fill-rule="evenodd" clip-rule="evenodd" d="M33.0326 144.732V148.209C33.0326 161.652 43.9299 172.549 57.3725 172.549C70.815 172.549 81.7123 161.652 81.7123 148.209V144.732C81.7123 158.174 70.815 169.072 57.3725 169.072C43.9299 169.072 33.0326 158.174 33.0326 144.732Z" fill="black" fill-opacity="0.1"/>
</g>
<path fill-rule="evenodd" clip-rule="evenodd" d="M72.1503 176.244C72.1503 181.405 65.6313 185.588 57.5898 185.588C49.5483 185.588 43.0294 181.405 43.0294 176.244C43.0294 175.908 43.0569 175.577 43.1105 175.251C26.5282 178.091 13.9084 192.536 13.9084 209.928H100.837C100.837 192.693 88.4431 178.352 72.0817 175.331C72.1271 175.631 72.1503 175.936 72.1503 176.244Z" fill="#E6E6E6"/>
<mask id="mask11" mask-type="alpha" maskUnits="userSpaceOnUse" x="13" y="175" width="88" height="35">
<path fill-rule="evenodd" clip-rule="evenodd" d="M72.1503 176.244C72.1503 181.405 65.6313 185.588 57.5898 185.588C49.5483 185.588 43.0294 181.405 43.0294 176.244C43.0294 175.908 43.0569 175.577 43.1105 175.251C26.5282 178.091 13.9084 192.536 13.9084 209.928H100.837C100.837 192.693 88.4431 178.352 72.0817 175.331C72.1271 175.631 72.1503 175.936 72.1503 176.244Z" fill="white"/>
</mask>
<g mask="url(#mask11)">
<rect y="162.118" width="114.745" height="47.8105" fill="#25557C"/>
<rect width="47.8105" height="19.1242" transform="translate(33.4673 187.327)" fill="#E6E6E6"/>
<path fill-rule="evenodd" clip-rule="evenodd" d="M71.5789 193.152C70.9731 190.357 68.8799 188.741 66.1455 188.117C65.0477 187.866 61.4026 187.079 61.9704 189.163C62.2279 190.107 62.0847 190.886 61.2952 191.669C60.5259 192.432 59.0214 192.625 58.2737 191.665C57.6329 190.841 58.4592 189.613 57.96 188.81C57.7662 188.499 57.4318 188.339 57.0787 188.492C56.5827 188.707 56.8467 189.168 56.6124 189.5C56.2435 190.022 56.0711 189.859 55.739 189.338C55.5304 189.01 55.7355 188.653 55.1971 188.513C54.5742 188.351 54.3703 188.873 54.3139 189.349C54.2785 189.647 54.4539 190.127 54.46 190.43C54.4719 191.023 54.4207 191.874 54.145 192.399C53.6561 193.327 52.9694 193.03 52.2399 192.44C51.3792 191.744 51.1266 190.969 51.2931 189.912C51.4927 188.644 51.4203 187.431 49.8678 188.224C47.6856 189.338 45.6606 191.325 44.3963 193.404C43.3337 195.151 42.4973 197.27 43.4387 199.26C44.3995 201.292 45.9866 203.037 48.2052 203.556C48.7795 203.69 50.4182 204.343 50.9631 203.796C51.8091 202.945 49.8556 202.152 49.4699 201.633C48.9231 200.899 48.4539 199.497 49.0542 198.669C49.8188 197.613 50.6184 198.202 51.2469 198.948C51.7403 199.534 52.4416 201.046 53.2052 199.827C53.7309 198.988 53.6838 197.61 55.1178 198.212C57.1669 199.071 57.2298 203.041 57.5951 204.858C57.7547 205.653 58.4797 206.624 59.1037 205.521C59.4466 204.914 59.2615 203.599 59.199 202.972C59.0701 201.675 58.7297 200.399 59.1514 199.114C59.3952 198.37 60.021 197.306 60.9463 197.878C61.6959 198.341 61.3836 200.406 62.4033 200.402C63.3016 200.399 63.0565 198.754 63.5348 198.212C64.2647 197.384 65.6715 197.777 66.1032 198.754C66.6845 200.069 65.146 200.982 65.215 202.138C65.2823 203.264 66.7337 202.825 67.3409 202.539C68.5888 201.952 69.5654 200.864 70.2422 199.683C71.2886 197.856 72.0353 195.24 71.5789 193.152Z" fill="white"/>
</g>
<path d="M51.2876 153.425C51.2876 155.76 53.9642 157.337 57.3726 157.337C60.7809 157.337 63.4575 155.76 63.4575 153.425C63.4575 152.945 63.0448 152.556 62.5883 152.556C62.0264 152.556 61.7756 152.949 61.719 153.425C61.179 154.702 59.8427 155.475 57.3726 155.598C54.9024 155.475 53.5662 154.702 53.0262 153.425C52.9696 152.949 52.7187 152.556 52.1569 152.556C51.7004 152.556 51.2876 152.945 51.2876 153.425Z" fill="black" fill-opacity="0.6"/>
<path fill-rule="evenodd" clip-rule="evenodd" d="M52.1569 144.732C52.1569 146.652 54.492 148.209 57.3725 148.209C60.2531 148.209 62.5882 146.652 62.5882 144.732" fill="black" fill-opacity="0.16"/>
<path fill-rule="evenodd" clip-rule="evenodd" d="M46.0719 142.994C49.4325 142.994 52.1569 140.269 52.1569 136.909C52.1569 133.548 49.4325 130.824 46.0719 130.824C42.7113 130.824 39.9869 133.548 39.9869 136.909C39.9869 140.269 42.7113 142.994 46.0719 142.994Z" fill="white"/>
<path fill-rule="evenodd" clip-rule="evenodd" d="M68.6732 142.994C72.0339 142.994 74.7582 140.269 74.7582 136.909C74.7582 133.548 72.0339 130.824 68.6732 130.824C65.3126 130.824 62.5883 133.548 62.5883 136.909C62.5883 140.269 65.3126 142.994 68.6732 142.994Z" fill="white"/>
<path fill-rule="evenodd" clip-rule="evenodd" d="M46.072 136.039C47.5122 136.039 48.6798 134.872 48.6798 133.432C48.6798 131.991 47.5122 130.824 46.072 130.824C44.6317 130.824 43.4641 131.991 43.4641 133.432C43.4641 134.872 44.6317 136.039 46.072 136.039Z" fill="black" fill-opacity="0.7"/>
<path fill-rule="evenodd" clip-rule="evenodd" d="M68.6733 136.039C70.1135 136.039 71.2811 134.872 71.2811 133.432C71.2811 131.991 70.1135 130.824 68.6733 130.824C67.233 130.824 66.0654 131.991 66.0654 133.432C66.0654 134.872 67.233 136.039 68.6733 136.039Z" fill="black" fill-opacity="0.7"/>
<path d="M39.9765 131.314C40.6263 127.175 46.0974 124.351 50.0548 126.173C50.4909 126.374 51.0072 126.183 51.2079 125.747C51.4087 125.311 51.218 124.795 50.7819 124.594C45.7889 122.295 39.0898 125.752 38.2589 131.044C38.1845 131.518 38.5086 131.963 38.9829 132.038C39.4571 132.112 39.902 131.788 39.9765 131.314Z" fill="black" fill-opacity="0.6"/>
<path d="M74.7688 131.314C74.1189 127.175 68.6479 124.351 64.6905 126.173C64.2544 126.374 63.7381 126.183 63.5373 125.747C63.3365 125.311 63.5272 124.795 63.9633 124.594C68.9563 122.295 75.6555 125.752 76.4863 131.044C76.5608 131.518 76.2367 131.963 75.7624 132.038C75.2881 132.112 74.8432 131.788 74.7688 131.314Z" fill="black" fill-opacity="0.6"/>
<mask id="mask12" mask-type="alpha" maskUnits="userSpaceOnUse" x="0" y="88" width="115" height="122">
<rect y="88.2288" width="114.745" height="121.699" fill="white"/>
</mask>
<g mask="url(#mask12)">
<path fill-rule="evenodd" clip-rule="evenodd" d="M86.0587 136.039C86.0587 135.792 86.0416 135.549 86.0083 135.311C76.6549 130.275 68.6253 123.063 63.3903 114.873C58.3617 121.999 50.1029 125.386 41.9251 128.739C37.3221 130.627 32.7448 132.504 28.7836 135.031C28.7197 135.357 28.6862 135.694 28.6862 136.039V141.69C28.6862 144.306 30.612 146.472 33.1233 146.848C33.8809 155.648 39.3215 163.11 46.9411 166.73V174.788C28.5096 175.911 13.9084 191.214 13.9084 209.928H13.4761C1.34897 203.004 7.93819 193.053 12.5149 186.142C14.2434 183.531 15.6849 181.355 15.7227 179.938C15.7851 177.931 14.3574 176.532 12.6089 174.819C10.0434 172.306 6.78741 169.115 6.53516 162.336C6.52204 161.983 6.51704 161.621 6.52069 161.248C6.53465 160.818 6.5635 160.404 6.60621 160.005C7.24686 154.019 11.006 151.421 14.3915 149.081C16.1322 147.877 17.7742 146.743 18.8427 145.251C19.6214 144.163 20.0955 142.886 20.0815 141.255C20.1054 138.56 19.5865 136.381 19.0486 134.123C17.9383 129.461 16.747 124.46 20.0815 113.873C25.1394 98.0253 38.212 94.213 56.939 93.8861V93.8792L57.1563 93.8825L57.3736 93.8792V93.8861C76.1006 94.213 89.1732 98.0253 94.2311 113.873C97.5656 124.46 96.3743 129.462 95.264 134.123C94.9679 135.366 94.6776 136.585 94.4804 137.879C94.3193 138.936 94.2203 140.043 94.2311 141.255C94.1977 145.125 96.9118 147.001 99.9211 149.081C100.372 149.393 100.831 149.709 101.287 150.038C104.482 152.338 107.597 155.227 107.792 161.248C107.797 161.719 107.787 162.174 107.765 162.613C107.436 169.203 104.234 172.34 101.704 174.819C99.9552 176.532 98.5275 177.931 98.5899 179.938C98.5947 180.115 98.6213 180.304 98.6677 180.504C98.9925 181.906 100.285 183.858 101.798 186.142C106.374 193.053 112.964 203.004 100.836 209.928C100.837 191.214 86.2353 175.911 67.8038 174.788V166.73C75.4234 163.11 80.864 155.648 81.6217 146.848C84.1329 146.472 86.0587 144.306 86.0587 141.69V136.039Z" fill="#314756"/>
<mask id="mask13" mask-type="alpha" maskUnits="userSpaceOnUse" x="6" y="93" width="102" height="117">
<path fill-rule="evenodd" clip-rule="evenodd" d="M86.0587 136.039C86.0587 135.792 86.0416 135.549 86.0083 135.311C76.6549 130.275 68.6253 123.063 63.3903 114.873C58.3617 121.999 50.1029 125.386 41.9251 128.739C37.3221 130.627 32.7448 132.504 28.7836 135.031C28.7197 135.357 28.6862 135.694 28.6862 136.039V141.69C28.6862 144.306 30.612 146.472 33.1233 146.848C33.8809 155.648 39.3215 163.11 46.9411 166.73V174.788C28.5096 175.911 13.9084 191.214 13.9084 209.928H13.4761C1.34897 203.004 7.93819 193.053 12.5149 186.142C14.2434 183.531 15.6849 181.355 15.7227 179.938C15.7851 177.931 14.3574 176.532 12.6089 174.819C10.0434 172.306 6.78741 169.115 6.53516 162.336C6.52204 161.983 6.51704 161.621 6.52069 161.248C6.53465 160.818 6.5635 160.404 6.60621 160.005C7.24686 154.019 11.006 151.421 14.3915 149.081C16.1322 147.877 17.7742 146.743 18.8427 145.251C19.6214 144.163 20.0955 142.886 20.0815 141.255C20.1054 138.56 19.5865 136.381 19.0486 134.123C17.9383 129.461 16.747 124.46 20.0815 113.873C25.1394 98.0253 38.212 94.213 56.939 93.8861V93.8792L57.1563 93.8825L57.3736 93.8792V93.8861C76.1006 94.213 89.1732 98.0253 94.2311 113.873C97.5656 124.46 96.3743 129.462 95.264 134.123C94.9679 135.366 94.6776 136.585 94.4804 137.879C94.3193 138.936 94.2203 140.043 94.2311 141.255C94.1977 145.125 96.9118 147.001 99.9211 149.081C100.372 149.393 100.831 149.709 101.287 150.038C104.482 152.338 107.597 155.227 107.792 161.248C107.797 161.719 107.787 162.174 107.765 162.613C107.436 169.203 104.234 172.34 101.704 174.819C99.9552 176.532 98.5275 177.931 98.5899 179.938C98.5947 180.115 98.6213 180.304 98.6677 180.504C98.9925 181.906 100.285 183.858 101.798 186.142C106.374 193.053 112.964 203.004 100.836 209.928C100.837 191.214 86.2353 175.911 67.8038 174.788V166.73C75.4234 163.11 80.864 155.648 81.6217 146.848C84.1329 146.472 86.0587 144.306 86.0587 141.69V136.039Z" fill="white"/>
</mask>
<g mask="url(#mask13)">
<rect x="-0.00012207" y="88.2288" width="114.745" height="121.699" fill="#4A312C"/>
</g>
<mask id="mask14" mask-type="alpha" maskUnits="userSpaceOnUse" x="6" y="93" width="102" height="117">
<path fill-rule="evenodd" clip-rule="evenodd" d="M14.3915 149.081C16.1322 147.877 17.7742 146.743 18.8427 145.251C19.6214 144.163 20.0955 142.886 20.0815 141.255C20.1054 138.56 19.5865 136.381 19.0486 134.123C17.9383 129.461 16.747 124.46 20.0815 113.873C25.1394 98.0253 38.212 94.213 56.939 93.8861V93.8792L57.1563 93.8825L57.3736 93.8792V93.8861C76.1006 94.213 89.1732 98.0253 94.2311 113.873C97.5656 124.46 96.3743 129.462 95.264 134.123C94.9679 135.366 94.6776 136.585 94.4804 137.879C94.3193 138.936 94.2203 140.043 94.2311 141.255C94.1977 145.125 96.9118 147.001 99.9211 149.081C100.372 149.393 100.831 149.709 101.287 150.038C104.482 152.338 107.597 155.227 107.792 161.248C107.797 161.719 107.787 162.174 107.765 162.613C107.436 169.203 104.234 172.34 101.704 174.819C99.9552 176.532 98.5275 177.931 98.5899 179.938C98.5947 180.115 98.6213 180.304 98.6677 180.504C98.9925 181.906 100.285 183.858 101.798 186.142C106.374 193.053 112.964 203.004 100.836 209.928C100.837 191.214 86.2353 175.911 67.8038 174.788V154.729H46.9411V174.788C28.5096 175.911 13.9084 191.214 13.9084 209.928H13.4761C1.34897 203.004 7.93819 193.053 12.5149 186.142C14.2434 183.531 15.6849 181.355 15.7227 179.938C15.7851 177.931 14.3574 176.532 12.6089 174.819C10.0434 172.306 6.78741 169.115 6.53516 162.336C6.52204 161.983 6.51704 161.621 6.52069 161.248C6.53465 160.818 6.5635 160.404 6.60621 160.005C7.24686 154.019 11.006 151.421 14.3915 149.081Z" fill="white"/>
</mask>
<g mask="url(#mask14)">
<path fill-rule="evenodd" clip-rule="evenodd" d="M41.925 128.739C34.1293 131.936 26.4072 135.103 21.627 141.449C21.4834 141.64 21.3237 141.86 21.1555 142.097C26.1888 136.883 33.6791 134.084 41.2355 131.26C49.7835 128.065 58.4162 124.839 63.6725 118.05C70.6681 128.024 82.6716 136.537 96.0034 141.083C96.0728 140.903 96.0812 140.709 96.0896 140.515C96.0978 140.327 96.1059 140.139 96.1701 139.967C96.3762 138.734 96.6797 137.573 96.9892 136.389C98.1498 131.948 99.395 127.183 95.9096 117.097C95.6189 116.267 95.142 115.483 94.4992 114.744C97.4993 124.738 96.3434 129.591 95.264 134.123C94.9679 135.366 94.6775 136.585 94.4803 137.879C94.419 138.06 94.4112 138.257 94.4034 138.455C94.3953 138.658 94.3872 138.862 94.3209 139.05C81.5665 134.279 70.0829 125.343 63.3903 114.873C58.3616 121.999 50.1029 125.386 41.925 128.739ZM19.6017 143.888C19.9162 143.117 20.0901 142.253 20.0815 141.255C20.1054 138.56 19.5865 136.381 19.0486 134.123C17.9692 129.591 16.8132 124.738 19.8134 114.744C19.1706 115.483 18.6936 116.267 18.403 117.097C14.9175 127.183 16.1628 131.948 17.3234 136.389C17.8856 138.54 18.4281 140.616 18.403 143.183C18.4177 144.737 17.9221 145.954 17.1082 146.99C17.1593 147.092 17.8577 146.172 18.6263 145.159C18.9536 144.728 19.2936 144.28 19.6017 143.888Z" fill="black" fill-opacity="0.16"/>
</g>
<path fill-rule="evenodd" clip-rule="evenodd" d="M21.627 141.449C31.4218 128.445 53.568 128.791 63.3903 114.873C70.0829 125.343 81.5665 134.279 94.3209 139.05C94.4518 138.679 94.3559 138.246 94.4804 137.879C95.4171 131.732 98.4548 127.284 94.2311 113.873C89.1732 98.0253 76.1006 94.213 57.3736 93.8861C57.0839 93.8813 57.0115 93.8802 56.939 93.8792C38.212 94.213 25.1394 98.0253 20.0815 113.873C15.1315 129.59 20.1549 132.996 20.0815 141.255C20.0955 142.886 19.6214 144.163 18.8427 145.251C18.9225 145.425 20.648 142.749 21.627 141.449Z" fill="white" fill-opacity="0.1"/>
</g>
<path fill-rule="evenodd" clip-rule="evenodd" d="M140.823 103.876C127.381 103.876 116.484 114.773 116.484 128.216V130.896C114.017 131.309 112.137 133.455 112.137 136.039V142.124C112.137 144.755 114.084 146.93 116.616 147.288C117.515 155.897 122.9 163.17 130.392 166.73V174.788C111.961 175.911 97.3594 191.214 97.3594 209.928H184.287C184.287 191.214 169.686 175.911 151.255 174.788V166.73C158.747 163.17 164.132 155.897 165.031 147.288C167.562 146.93 169.51 144.755 169.51 142.124V136.039C169.51 133.455 167.63 131.309 165.163 130.896V128.216C165.163 114.773 154.266 103.876 140.823 103.876Z" fill="#D0C6AC"/>
<mask id="mask15" mask-type="alpha" maskUnits="userSpaceOnUse" x="97" y="103" width="88" height="107">
<path fill-rule="evenodd" clip-rule="evenodd" d="M140.823 103.876C127.381 103.876 116.484 114.773 116.484 128.216V130.896C114.017 131.309 112.137 133.455 112.137 136.039V142.124C112.137 144.755 114.084 146.93 116.616 147.288C117.515 155.897 122.9 163.17 130.392 166.73V174.788C111.961 175.911 97.3594 191.214 97.3594 209.928H184.287C184.287 191.214 169.686 175.911 151.255 174.788V166.73C158.747 163.17 164.132 155.897 165.031 147.288C167.562 146.93 169.51 144.755 169.51 142.124V136.039C169.51 133.455 167.63 131.309 165.163 130.896V128.216C165.163 114.773 154.266 103.876 140.823 103.876Z" fill="white"/>
</mask>
<g mask="url(#mask15)">
<rect x="83.4509" y="103.876" width="114.745" height="106.052" fill="#EDB98A"/>
<path fill-rule="evenodd" clip-rule="evenodd" d="M116.484 144.732V148.209C116.484 161.652 127.381 172.549 140.823 172.549C154.266 172.549 165.163 161.652 165.163 148.209V144.732C165.163 158.174 154.266 169.072 140.823 169.072C127.381 169.072 116.484 158.174 116.484 144.732Z" fill="black" fill-opacity="0.1"/>
</g>
<path fill-rule="evenodd" clip-rule="evenodd" d="M162.555 177.916C162.555 184.992 152.923 190.729 141.041 190.729C129.159 190.729 119.526 184.992 119.526 177.916C119.526 177.682 119.537 177.45 119.557 177.219C106.553 182.386 97.3594 195.083 97.3594 209.928H184.287C184.287 195.255 175.305 182.679 162.538 177.401C162.55 177.572 162.555 177.743 162.555 177.916Z" fill="#E6E6E6"/>
<mask id="mask16" mask-type="alpha" maskUnits="userSpaceOnUse" x="97" y="177" width="88" height="33">
<path fill-rule="evenodd" clip-rule="evenodd" d="M162.555 177.916C162.555 184.992 152.923 190.729 141.041 190.729C129.159 190.729 119.526 184.992 119.526 177.916C119.526 177.682 119.537 177.45 119.557 177.219C106.553 182.386 97.3594 195.083 97.3594 209.928H184.287C184.287 195.255 175.305 182.679 162.538 177.401C162.55 177.572 162.555 177.743 162.555 177.916Z" fill="white"/>
</mask>
<g mask="url(#mask16)">
<rect x="83.4509" y="162.118" width="114.745" height="47.8105" fill="#E6E6E6"/>
</g>
<path fill-rule="evenodd" clip-rule="evenodd" d="M134.739 152.99C134.739 156.351 137.463 159.075 140.823 159.075C144.184 159.075 146.908 156.351 146.908 152.99" fill="black" fill-opacity="0.7"/>
<path fill-rule="evenodd" clip-rule="evenodd" d="M135.608 144.732C135.608 146.652 137.943 148.209 140.823 148.209C143.704 148.209 146.039 146.652 146.039 144.732" fill="black" fill-opacity="0.16"/>
<path fill-rule="evenodd" clip-rule="evenodd" d="M129.523 139.516C130.963 139.516 132.131 138.349 132.131 136.909C132.131 135.468 130.963 134.301 129.523 134.301C128.083 134.301 126.915 135.468 126.915 136.909C126.915 138.349 128.083 139.516 129.523 139.516Z" fill="black" fill-opacity="0.6"/>
<path fill-rule="evenodd" clip-rule="evenodd" d="M152.124 139.516C153.564 139.516 154.732 138.349 154.732 136.909C154.732 135.468 153.564 134.301 152.124 134.301C150.684 134.301 149.516 135.468 149.516 136.909C149.516 138.349 150.684 139.516 152.124 139.516Z" fill="black" fill-opacity="0.6"/>
<path d="M123.277 131.327C124.979 128.933 129.644 127.59 133.662 128.577C134.128 128.692 134.599 128.406 134.713 127.94C134.828 127.474 134.543 127.003 134.077 126.889C129.41 125.743 124.008 127.297 121.86 130.32C121.582 130.711 121.674 131.254 122.065 131.532C122.456 131.81 122.999 131.719 123.277 131.327Z" fill="black" fill-opacity="0.6"/>
<path d="M158.37 131.327C156.668 128.933 152.003 127.59 147.985 128.577C147.519 128.692 147.048 128.406 146.934 127.94C146.819 127.474 147.104 127.003 147.571 126.889C152.237 125.743 157.639 127.297 159.787 130.32C160.065 130.711 159.973 131.254 159.582 131.532C159.191 131.81 158.648 131.719 158.37 131.327Z" fill="black" fill-opacity="0.6"/>
<mask id="mask17" mask-type="alpha" maskUnits="userSpaceOnUse" x="83" y="88" width="116" height="122">
<rect x="83.4509" y="88.2288" width="114.745" height="121.699" fill="white"/>
</mask>
<g mask="url(#mask17)">
<path fill-rule="evenodd" clip-rule="evenodd" d="M122.53 112.291H159.116C167.047 107.715 168.536 99.5951 162.925 92.5431C161.528 90.7875 159.116 97.6499 151.702 98.0737C144.288 98.4974 145 95.3352 137.111 96.5191C129.221 97.7031 130.093 104.04 124.945 105.561C119.797 107.081 122.53 112.291 122.53 112.291Z" fill="#252E32"/>
<mask id="mask18" mask-type="alpha" maskUnits="userSpaceOnUse" x="121" y="92" width="46" height="21">
<path fill-rule="evenodd" clip-rule="evenodd" d="M122.53 112.291H159.116C167.047 107.715 168.536 99.5951 162.925 92.5431C161.528 90.7875 159.116 97.6499 151.702 98.0737C144.288 98.4974 145 95.3352 137.111 96.5191C129.221 97.7031 130.093 104.04 124.945 105.561C119.797 107.081 122.53 112.291 122.53 112.291Z" fill="white"/>
</mask>
<g mask="url(#mask18)">
<rect x="83.4509" y="88.2288" width="114.745" height="121.699" fill="#724133"/>
</g>
<g filter="url(#filter1_d)">
<path fill-rule="evenodd" clip-rule="evenodd" d="M133.543 131.812C134.574 131.822 135.061 131.993 135.237 133.068C135.415 134.157 135.241 135.381 135.036 136.454C134.723 138.092 134.202 139.696 132.99 140.893C132.352 141.524 131.573 142.026 130.744 142.369C130.305 142.551 129.84 142.683 129.376 142.783C129.24 142.812 128.081 142.972 128.792 142.89C127.133 143.08 125.333 143.072 123.947 142.016C122.412 140.846 121.36 138.994 120.898 137.15C120.627 136.071 120.059 133.49 121.098 132.627C122.287 131.638 133.543 131.812 133.543 131.812ZM123.098 128.863C120.733 128.945 119.155 129.36 117.989 131.723C115.851 136.052 119.51 142.545 123.591 144.314C128.362 146.383 133.692 144.094 136.214 139.953C137.55 137.761 138.225 134.441 138.182 131.912C138.127 128.683 135.872 128.594 133.221 128.665L123.098 128.863Z" fill="#D6EAF2"/>
<path fill-rule="evenodd" clip-rule="evenodd" d="M148.073 131.811C147.043 131.821 146.555 131.992 146.38 133.067C146.202 134.156 146.375 135.38 146.58 136.453C146.893 138.091 147.414 139.695 148.626 140.892C149.265 141.523 150.043 142.025 150.872 142.368C151.312 142.55 151.776 142.682 152.241 142.782C152.376 142.811 153.535 142.971 152.825 142.889C154.484 143.079 156.283 143.071 157.669 142.015C159.204 140.845 160.256 138.993 160.718 137.149C160.989 136.07 161.557 133.489 160.519 132.626C159.329 131.637 148.073 131.811 148.073 131.811ZM158.518 128.862C160.883 128.944 162.461 129.359 163.627 131.722C165.765 136.051 162.106 142.544 158.025 144.313C153.254 146.382 147.924 144.093 145.402 139.952C144.066 137.76 143.391 134.44 143.434 131.91C143.49 128.682 145.745 128.593 148.395 128.664L158.518 128.862Z" fill="#D6EAF2"/>
<path fill-rule="evenodd" clip-rule="evenodd" d="M119.177 130.791C117.694 130.875 115.999 130.895 114.61 131.536C113.139 132.215 112.912 133.752 114.766 133.964C115.602 134.06 116.438 133.902 117.26 133.755C117.934 133.635 118.849 133.674 119.485 133.416C120.672 132.937 120.595 130.71 119.177 130.791Z" fill="#D6EAF2"/>
<path fill-rule="evenodd" clip-rule="evenodd" d="M162.44 130.791C163.923 130.875 165.618 130.895 167.007 131.536C168.478 132.215 168.705 133.752 166.851 133.964C166.015 134.06 165.179 133.902 164.357 133.755C163.683 133.635 162.768 133.674 162.132 133.416C160.945 132.937 161.022 130.71 162.44 130.791Z" fill="#D6EAF2"/>
<path fill-rule="evenodd" clip-rule="evenodd" d="M145.217 131.698C144.371 130.698 142.167 130.121 140.776 130.121C139.385 130.121 137.246 130.698 136.4 131.698C135.973 132.202 135.959 132.876 136.698 133.192C137.618 133.586 138.44 132.872 139.177 132.499C140.12 132.021 141.568 132.074 142.44 132.499C143.182 132.861 143.999 133.586 144.919 133.192C145.658 132.876 145.644 132.202 145.217 131.698Z" fill="#D6EAF2"/>
</g>
</g>
<path fill-rule="evenodd" clip-rule="evenodd" d="M224.274 103.876C210.832 103.876 199.935 114.773 199.935 128.216V130.896C197.468 131.309 195.588 133.455 195.588 136.039V142.124C195.588 144.755 197.536 146.93 200.067 147.288C200.966 155.897 206.351 163.17 213.843 166.73V174.788C195.412 175.911 180.81 191.214 180.81 209.928H267.739C267.739 191.214 253.137 175.911 234.706 174.788V166.73C242.198 163.17 247.583 155.897 248.482 147.288C251.013 146.93 252.961 144.755 252.961 142.124V136.039C252.961 133.455 251.081 131.309 248.614 130.896V128.216C248.614 114.773 237.717 103.876 224.274 103.876Z" fill="#D0C6AC"/>
<mask id="mask19" mask-type="alpha" maskUnits="userSpaceOnUse" x="180" y="103" width="88" height="107">
<path fill-rule="evenodd" clip-rule="evenodd" d="M224.274 103.876C210.832 103.876 199.935 114.773 199.935 128.216V130.896C197.468 131.309 195.588 133.455 195.588 136.039V142.124C195.588 144.755 197.536 146.93 200.067 147.288C200.966 155.897 206.351 163.17 213.843 166.73V174.788C195.412 175.911 180.81 191.214 180.81 209.928H267.739C267.739 191.214 253.137 175.911 234.706 174.788V166.73C242.198 163.17 247.583 155.897 248.482 147.288C251.013 146.93 252.961 144.755 252.961 142.124V136.039C252.961 133.455 251.081 131.309 248.614 130.896V128.216C248.614 114.773 237.717 103.876 224.274 103.876Z" fill="white"/>
</mask>
<g mask="url(#mask19)">
<rect x="166.902" y="103.876" width="114.745" height="106.052" fill="#D08B5B"/>
<path fill-rule="evenodd" clip-rule="evenodd" d="M199.935 144.732V148.209C199.935 161.652 210.832 172.549 224.274 172.549C237.717 172.549 248.614 161.652 248.614 148.209V144.732C248.614 158.174 237.717 169.072 224.274 169.072C210.832 169.072 199.935 158.174 199.935 144.732Z" fill="black" fill-opacity="0.1"/>
</g>
<path fill-rule="evenodd" clip-rule="evenodd" d="M246.007 177.916C246.007 184.992 236.374 190.729 224.492 190.729C212.61 190.729 202.977 184.992 202.977 177.916C202.977 177.682 202.988 177.45 203.008 177.219C190.004 182.386 180.81 195.083 180.81 209.928H267.739C267.739 195.255 258.756 182.679 245.989 177.401C246.001 177.572 246.007 177.743 246.007 177.916Z" fill="#E6E6E6"/>
<mask id="mask20" mask-type="alpha" maskUnits="userSpaceOnUse" x="180" y="177" width="88" height="33">
<path fill-rule="evenodd" clip-rule="evenodd" d="M246.007 177.916C246.007 184.992 236.374 190.729 224.492 190.729C212.61 190.729 202.977 184.992 202.977 177.916C202.977 177.682 202.988 177.45 203.008 177.219C190.004 182.386 180.81 195.083 180.81 209.928H267.739C267.739 195.255 258.756 182.679 245.989 177.401C246.001 177.572 246.007 177.743 246.007 177.916Z" fill="white"/>
</mask>
<g mask="url(#mask20)">
<rect x="166.902" y="162.118" width="114.745" height="47.8105" fill="white"/>
</g>
<path fill-rule="evenodd" clip-rule="evenodd" d="M213.409 153.255C214.021 157.437 218.651 160.814 224.275 160.814C229.911 160.814 234.552 157.416 235.141 152.877C235.185 152.703 235.043 152.121 234.196 152.121C225.508 152.121 218.946 152.121 214.353 152.121C213.575 152.121 213.352 152.66 213.409 153.255Z" fill="black" fill-opacity="0.7"/>
<mask id="mask21" mask-type="alpha" maskUnits="userSpaceOnUse" x="213" y="152" width="23" height="9">
<path fill-rule="evenodd" clip-rule="evenodd" d="M213.409 153.255C214.021 157.437 218.651 160.814 224.275 160.814C229.911 160.814 234.552 157.416 235.141 152.877C235.185 152.703 235.043 152.121 234.196 152.121C225.508 152.121 218.946 152.121 214.353 152.121C213.575 152.121 213.352 152.66 213.409 153.255Z" fill="white"/>
</mask>
<g mask="url(#mask21)">
<rect x="217.755" y="147.34" width="13.4739" height="6.95425" rx="3.47712" fill="white"/>
</g>
<path fill-rule="evenodd" clip-rule="evenodd" d="M229.49 156.714C229.49 156.704 229.49 156.695 229.49 156.685C229.49 155.845 228.225 155.164 226.665 155.164C225.791 155.164 225.01 155.377 224.492 155.713C223.974 155.377 223.193 155.164 222.319 155.164C220.758 155.164 219.494 155.845 219.494 156.685C219.494 156.695 219.494 156.704 219.494 156.714C219.494 156.723 219.494 156.732 219.494 156.741V160.597C219.494 163.357 221.731 165.595 224.492 165.595C227.252 165.595 229.49 163.357 229.49 160.597V156.741C229.49 156.732 229.49 156.723 229.49 156.714Z" fill="#FF4F6D"/>
<path fill-rule="evenodd" clip-rule="evenodd" d="M219.059 144.732C219.059 146.652 221.394 148.209 224.275 148.209C227.155 148.209 229.49 146.652 229.49 144.732" fill="black" fill-opacity="0.16"/>
<rect width="48.6797" height="19.1242" transform="translate(199.935 127.346)" fill="#D08B5B"/>
<path fill-rule="evenodd" clip-rule="evenodd" d="M235.575 142.124C238.456 142.124 240.791 139.789 240.791 136.909C240.791 134.028 238.456 131.693 235.575 131.693C232.695 131.693 230.359 134.028 230.359 136.909C230.359 139.789 232.695 142.124 235.575 142.124Z" fill="white"/>
<path fill-rule="evenodd" clip-rule="evenodd" d="M235.575 139.516C237.016 139.516 238.183 138.349 238.183 136.909C238.183 135.468 237.016 134.301 235.575 134.301C234.135 134.301 232.967 135.468 232.967 136.909C232.967 138.349 234.135 139.516 235.575 139.516Z" fill="black" fill-opacity="0.7"/>
<path fill-rule="evenodd" clip-rule="evenodd" d="M206.959 138.407C207.761 136.756 209.568 135.604 211.669 135.604C213.762 135.604 215.564 136.748 216.371 138.389C216.61 138.877 216.269 139.276 215.925 138.98C214.86 138.064 213.347 137.492 211.669 137.492C210.043 137.492 208.573 138.029 207.514 138.895C207.127 139.212 206.724 138.89 206.959 138.407Z" fill="black" fill-opacity="0.6"/>
<path d="M206.728 131.327C208.43 128.933 213.095 127.59 217.113 128.577C217.579 128.692 218.05 128.406 218.164 127.94C218.279 127.474 217.994 127.003 217.528 126.889C212.861 125.743 207.459 127.297 205.311 130.32C205.033 130.711 205.125 131.254 205.516 131.532C205.907 131.81 206.45 131.719 206.728 131.327Z" fill="black" fill-opacity="0.6"/>
<path d="M241.821 131.327C240.119 128.933 235.455 127.59 231.436 128.577C230.97 128.692 230.499 128.406 230.385 127.94C230.27 127.474 230.555 127.003 231.022 126.889C235.688 125.743 241.09 127.297 243.238 130.32C243.516 130.711 243.424 131.254 243.033 131.532C242.642 131.81 242.099 131.719 241.821 131.327Z" fill="black" fill-opacity="0.6"/>
<mask id="mask22" mask-type="alpha" maskUnits="userSpaceOnUse" x="166" y="88" width="116" height="122">
<rect x="166.902" y="88.2288" width="114.745" height="121.699" fill="white"/>
</mask>
<g mask="url(#mask22)">
<path fill-rule="evenodd" clip-rule="evenodd" d="M232.149 100.522C233.479 99.23 234.271 97.6029 234.271 95.835C234.271 91.6342 229.796 88.2288 224.275 88.2288C218.753 88.2288 214.278 91.6342 214.278 95.835C214.278 97.6137 215.08 99.2499 216.425 100.545C215.996 100.642 215.575 100.742 215.163 100.846C208.603 102.501 204.723 107.201 201.394 114.154C199.759 117.568 198.79 121.605 198.641 125.382C198.582 126.865 198.782 128.396 199.182 129.824C199.328 130.348 200.119 132.165 200.336 130.697C200.378 130.408 200.303 130.055 200.23 129.707C200.179 129.466 200.128 129.227 200.118 129.014C200.084 128.333 200.12 127.642 200.167 126.962C200.254 125.689 200.481 124.441 200.884 123.228C201.461 121.495 202.195 119.615 203.319 118.153C203.736 117.611 204.135 116.981 204.567 116.299C207.016 112.432 210.515 106.908 224.275 106.341C239.184 105.726 244.605 115.757 246.534 119.326C246.698 119.631 246.838 119.888 246.955 120.088C248.114 122.059 248.163 124.325 248.212 126.569C248.238 127.748 248.263 128.92 248.449 130.042C248.654 131.28 249.12 131.252 249.376 130.145C249.809 128.263 250.014 126.308 249.876 124.373C249.563 120.006 247.961 108.529 239.187 103.444C236.821 102.073 234.462 101.132 232.149 100.522Z" fill="#28354B"/>
<mask id="mask23" mask-type="alpha" maskUnits="userSpaceOnUse" x="198" y="88" width="52" height="44">
<path fill-rule="evenodd" clip-rule="evenodd" d="M232.149 100.522C233.479 99.23 234.271 97.6029 234.271 95.835C234.271 91.6342 229.796 88.2288 224.275 88.2288C218.753 88.2288 214.278 91.6342 214.278 95.835C214.278 97.6137 215.08 99.2499 216.425 100.545C215.996 100.642 215.575 100.742 215.163 100.846C208.603 102.501 204.723 107.201 201.394 114.154C199.759 117.568 198.79 121.605 198.641 125.382C198.582 126.865 198.782 128.396 199.182 129.824C199.328 130.348 200.119 132.165 200.336 130.697C200.378 130.408 200.303 130.055 200.23 129.707C200.179 129.466 200.128 129.227 200.118 129.014C200.084 128.333 200.12 127.642 200.167 126.962C200.254 125.689 200.481 124.441 200.884 123.228C201.461 121.495 202.195 119.615 203.319 118.153C203.736 117.611 204.135 116.981 204.567 116.299C207.016 112.432 210.515 106.908 224.275 106.341C239.184 105.726 244.605 115.757 246.534 119.326C246.698 119.631 246.838 119.888 246.955 120.088C248.114 122.059 248.163 124.325 248.212 126.569C248.238 127.748 248.263 128.92 248.449 130.042C248.654 131.28 249.12 131.252 249.376 130.145C249.809 128.263 250.014 126.308 249.876 124.373C249.563 120.006 247.961 108.529 239.187 103.444C236.821 102.073 234.462 101.132 232.149 100.522Z" fill="white"/>
</mask>
<g mask="url(#mask23)">
<rect x="166.902" y="88.2288" width="114.745" height="121.699" fill="#724133"/>
</g>
</g>
<path fill-rule="evenodd" clip-rule="evenodd" d="M99.098 192.647C85.6554 192.647 74.7581 203.544 74.7581 216.987V219.667C72.2913 220.081 70.4117 222.226 70.4117 224.81V230.895C70.4117 233.526 72.359 235.701 74.8907 236.059C75.7892 244.668 81.1745 251.942 88.6666 255.501V263.559C70.2351 264.682 55.6339 279.985 55.6339 298.699H142.562C142.562 279.985 127.961 264.682 109.529 263.559V255.501C117.021 251.942 122.407 244.668 123.305 236.059C125.837 235.702 127.784 233.526 127.784 230.895V224.81C127.784 222.226 125.905 220.081 123.438 219.667V216.987C123.438 203.544 112.54 192.647 99.098 192.647Z" fill="#D0C6AC"/>
<mask id="mask24" mask-type="alpha" maskUnits="userSpaceOnUse" x="55" y="192" width="88" height="107">
<path fill-rule="evenodd" clip-rule="evenodd" d="M99.098 192.647C85.6554 192.647 74.7581 203.544 74.7581 216.987V219.667C72.2913 220.081 70.4117 222.226 70.4117 224.81V230.895C70.4117 233.526 72.359 235.701 74.8907 236.059C75.7892 244.668 81.1745 251.942 88.6666 255.501V263.559C70.2351 264.682 55.6339 279.985 55.6339 298.699H142.562C142.562 279.985 127.961 264.682 109.529 263.559V255.501C117.021 251.942 122.407 244.668 123.305 236.059C125.837 235.702 127.784 233.526 127.784 230.895V224.81C127.784 222.226 125.905 220.081 123.438 219.667V216.987C123.438 203.544 112.54 192.647 99.098 192.647Z" fill="white"/>
</mask>
<g mask="url(#mask24)">
<rect x="41.7255" y="192.647" width="114.745" height="106.052" fill="#AE5D29"/>
<path fill-rule="evenodd" clip-rule="evenodd" d="M74.7581 233.503V236.98C74.7581 250.423 85.6554 261.32 99.0979 261.32C112.54 261.32 123.438 250.423 123.438 236.98V233.503C123.438 246.946 112.54 257.843 99.0979 257.843C85.6554 257.843 74.7581 246.946 74.7581 233.503Z" fill="black" fill-opacity="0.1"/>
</g>
<path fill-rule="evenodd" clip-rule="evenodd" d="M113.876 264.115C113.846 269.255 107.338 273.415 99.3153 273.415C91.2738 273.415 84.7548 269.235 84.7548 264.079C84.7548 264.065 84.7549 264.051 84.755 264.036C68.2126 266.909 55.6339 281.335 55.6339 298.699H142.562C142.562 281.488 130.203 267.163 113.876 264.115Z" fill="#E6E6E6"/>
<mask id="mask25" mask-type="alpha" maskUnits="userSpaceOnUse" x="55" y="264" width="88" height="35">
<path fill-rule="evenodd" clip-rule="evenodd" d="M113.876 264.115C113.846 269.255 107.338 273.415 99.3153 273.415C91.2738 273.415 84.7548 269.235 84.7548 264.079C84.7548 264.065 84.7549 264.051 84.755 264.036C68.2126 266.909 55.6339 281.335 55.6339 298.699H142.562C142.562 281.488 130.203 267.163 113.876 264.115Z" fill="white"/>
</mask>
<g mask="url(#mask25)">
<rect x="41.7255" y="250.889" width="114.745" height="47.8105" fill="#262E33"/>
<g opacity="0.6">
<path fill-rule="evenodd" clip-rule="evenodd" d="M99.3153 276.429C108.829 276.429 116.542 271.192 116.542 264.731C116.542 258.271 108.829 253.033 99.3153 253.033C89.8011 253.033 82.0883 258.271 82.0883 264.731C82.0883 271.192 89.8011 276.429 99.3153 276.429Z" fill="black" fill-opacity="0.16"/>
</g>
</g>
<path fill-rule="evenodd" clip-rule="evenodd" d="M112.849 298.699H142.562C142.562 281.257 129.869 266.779 113.216 263.998C114.468 268.939 115.18 274.619 115.18 280.662C115.18 287.272 114.327 293.449 112.849 298.699ZM85.4327 263.925C84.1699 268.884 83.4509 274.59 83.4509 280.662C83.4509 287.272 84.3031 293.449 85.7813 298.699H55.6339C55.6339 281.099 68.5574 266.517 85.4327 263.925Z" fill="#3A4C5A"/>
<path fill-rule="evenodd" clip-rule="evenodd" d="M120.395 288.268L123.167 286.189C124.61 285.107 126.599 285.124 128.023 286.232L129.523 287.399L120.395 288.268Z" fill="#E6E6E6"/>
<path fill-rule="evenodd" clip-rule="evenodd" d="M85.6241 263.059C83.0162 275.663 87.7973 298.699 87.7973 298.699H80.843L74.7581 283.052L77.3659 279.141L74.7581 276.533L83.0162 263.493C83.0162 263.493 84.3382 263.082 85.6241 263.059Z" fill="#2F4351"/>
<path fill-rule="evenodd" clip-rule="evenodd" d="M112.572 263.059C115.18 275.663 110.399 298.699 110.399 298.699H117.353L123.438 283.052L120.83 279.141L123.438 276.533L115.18 263.493C115.18 263.493 113.858 263.082 112.572 263.059Z" fill="#2F4351"/>
<path fill-rule="evenodd" clip-rule="evenodd" d="M90.8911 241.817C91.3509 245.943 94.8498 249.151 99.098 249.151C103.359 249.151 106.867 245.923 107.309 241.779C107.345 241.446 106.972 240.892 106.505 240.892C100.032 240.892 95.0723 240.892 91.7469 240.892C91.2774 240.892 90.8451 241.405 90.8911 241.817Z" fill="black" fill-opacity="0.7"/>
<mask id="mask26" mask-type="alpha" maskUnits="userSpaceOnUse" x="90" y="240" width="18" height="10">
<path fill-rule="evenodd" clip-rule="evenodd" d="M90.8911 241.817C91.3509 245.943 94.8498 249.151 99.098 249.151C103.359 249.151 106.867 245.923 107.309 241.779C107.345 241.446 106.972 240.892 106.505 240.892C100.032 240.892 95.0723 240.892 91.7469 240.892C91.2774 240.892 90.8451 241.405 90.8911 241.817Z" fill="white"/>
</mask>
<g mask="url(#mask26)">
<rect x="92.5784" y="236.111" width="13.4739" height="6.95425" rx="3.47712" fill="white"/>
<path fill-rule="evenodd" clip-rule="evenodd" d="M96.9248 255.235C99.5653 255.235 101.706 253.095 101.706 250.454C101.706 247.814 99.5653 245.673 96.9248 245.673C94.2843 245.673 92.1438 247.814 92.1438 250.454C92.1438 253.095 94.2843 255.235 96.9248 255.235Z" fill="#FF4F6D"/>
<path fill-rule="evenodd" clip-rule="evenodd" d="M101.271 255.235C103.912 255.235 106.052 253.095 106.052 250.454C106.052 247.814 103.912 245.673 101.271 245.673C98.6308 245.673 96.4902 247.814 96.4902 250.454C96.4902 253.095 98.6308 255.235 101.271 255.235Z" fill="#FF4F6D"/>
</g>
<path fill-rule="evenodd" clip-rule="evenodd" d="M93.8823 233.503C93.8823 235.424 96.2175 236.98 99.098 236.98C101.979 236.98 104.314 235.424 104.314 233.503" fill="black" fill-opacity="0.16"/>
<path fill-rule="evenodd" clip-rule="evenodd" d="M81.782 225.874C82.5846 224.223 84.3917 223.072 86.4924 223.072C88.5857 223.072 90.3874 224.215 91.1942 225.857C91.4339 226.344 91.0929 226.743 90.7488 226.448C89.6835 225.532 88.1706 224.96 86.4924 224.96C84.8667 224.96 83.3961 225.497 82.3372 226.363C81.9501 226.679 81.5473 226.357 81.782 225.874Z" fill="black" fill-opacity="0.6"/>
<path fill-rule="evenodd" clip-rule="evenodd" d="M106.991 225.874C107.794 224.223 109.601 223.072 111.702 223.072C113.795 223.072 115.597 224.215 116.403 225.857C116.643 226.344 116.302 226.743 115.958 226.448C114.893 225.532 113.38 224.96 111.702 224.96C110.076 224.96 108.605 225.497 107.546 226.363C107.159 226.679 106.756 226.357 106.991 225.874Z" fill="black" fill-opacity="0.6"/>
<path d="M81.5517 220.098C83.2533 217.704 87.9181 216.362 91.9364 217.348C92.4027 217.463 92.8735 217.178 92.988 216.711C93.1025 216.245 92.8173 215.774 92.3511 215.66C87.6845 214.514 82.2827 216.069 80.1345 219.091C79.8564 219.483 79.9482 220.025 80.3395 220.303C80.7309 220.582 81.2736 220.49 81.5517 220.098Z" fill="black" fill-opacity="0.6"/>
<path d="M116.644 220.098C114.943 217.704 110.278 216.362 106.26 217.348C105.793 217.463 105.323 217.178 105.208 216.711C105.094 216.245 105.379 215.774 105.845 215.66C110.512 214.514 115.913 216.069 118.062 219.091C118.34 219.483 118.248 220.025 117.857 220.303C117.465 220.582 116.923 220.49 116.644 220.098Z" fill="black" fill-opacity="0.6"/>
<mask id="mask27" mask-type="alpha" maskUnits="userSpaceOnUse" x="41" y="177" width="116" height="122">
<rect x="41.7255" y="177" width="114.745" height="121.699" fill="white"/>
</mask>
<g mask="url(#mask27)">
<path fill-rule="evenodd" clip-rule="evenodd" d="M122.877 201.394C123.264 202.805 123.817 206.588 122.845 207.84C122.521 208.259 120.307 207.085 119.383 206.575C118.843 206.276 118.333 205.992 117.848 205.721C111.365 202.107 109.27 200.939 97.9008 201.104C85.6805 201.282 77.3083 207.007 76.8374 207.593C76.5098 208.001 76.0915 209.088 75.7475 212.119C75.6386 213.078 75.6082 214.279 75.578 215.471C75.5128 218.045 75.4485 220.583 74.5975 220.578C73.5374 220.572 73.3068 210.24 73.7644 206.141C73.7815 205.988 73.8105 205.805 73.8418 205.608C73.9389 204.996 74.0577 204.248 73.9094 203.82C73.8426 203.627 73.6745 203.509 73.5021 203.389C73.2324 203.201 72.9523 203.005 73.0339 202.502C73.1259 201.935 73.5083 201.881 73.8873 201.828C74.1348 201.794 74.3807 201.759 74.5434 201.582C75.0337 201.048 74.7403 200.77 74.4052 200.453C74.2072 200.266 73.9947 200.064 73.9206 199.788C73.6449 198.762 74.3654 198.443 75.0884 198.124C75.1435 198.099 75.1987 198.075 75.2534 198.05C75.5521 197.915 75.7328 197.869 75.8711 197.833C76.1287 197.767 76.2394 197.739 76.6907 197.248C75.7642 196.568 75.429 195.643 76.6977 195.147C76.9406 195.052 77.3589 195.056 77.7838 195.061C78.3013 195.067 78.8284 195.072 79.0602 194.898C79.1246 194.85 79.1663 194.668 79.2033 194.505C79.2296 194.391 79.2535 194.286 79.2816 194.246C79.8684 193.406 79.8183 192.768 79.7504 191.903C79.7403 191.774 79.7298 191.641 79.721 191.501C79.6647 190.615 79.6723 189.801 80.733 189.713C81.1697 189.677 81.5561 189.883 81.937 190.086C82.1733 190.212 82.4076 190.337 82.6504 190.402C83.0306 190.505 83.1281 190.592 83.2245 190.59C83.3064 190.589 83.3875 190.524 83.6408 190.35C84.1568 189.994 84.2104 189.459 84.2643 188.92C84.3115 188.447 84.3591 187.972 84.7172 187.61C85.4019 186.919 85.9333 187.336 86.4537 187.745C86.7335 187.965 87.0101 188.182 87.3057 188.223C88.4121 188.377 88.6374 187.761 88.8799 187.098C89.0397 186.661 89.2069 186.203 89.6384 185.932C90.4335 185.433 90.7888 185.911 91.1311 186.372C91.3478 186.664 91.5592 186.949 91.8737 186.974C92.31 187.008 92.9631 186.499 93.5422 186.047C93.8961 185.771 94.2224 185.516 94.4548 185.42C95.4408 185.013 96.157 185.448 96.8821 185.888C97.494 186.26 98.1121 186.635 98.9041 186.512C99.0336 186.492 99.1533 186.472 99.2651 186.453C100.238 186.293 100.616 186.23 101.632 186.871C102.367 187.334 102.727 187.267 103.257 187.168C103.52 187.119 103.826 187.062 104.239 187.059C104.722 187.055 105.102 187.275 105.469 187.487C105.77 187.661 106.062 187.83 106.395 187.864C106.578 187.884 106.758 187.797 106.942 187.709C107.124 187.622 107.311 187.532 107.507 187.544C108.302 187.593 108.676 188.193 109.052 188.798C109.343 189.264 109.634 189.732 110.121 189.95C110.825 190.266 111.615 190.058 112.369 189.86C112.709 189.77 113.042 189.683 113.357 189.646C115.078 189.444 114.781 190.501 114.465 191.628C114.327 192.12 114.185 192.625 114.206 193.045C114.705 193.161 115.208 192.978 115.71 192.796C116.185 192.623 116.659 192.451 117.129 192.532C118.606 192.787 118.109 194.28 117.756 195.339C117.745 195.372 117.734 195.404 117.724 195.435C118 195.43 118.392 195.346 118.833 195.252C120.077 194.986 121.71 194.637 122.214 195.742C122.423 196.199 122.22 196.747 122.023 197.28C121.887 197.648 121.754 198.009 121.759 198.33C121.77 198.993 122.068 199.588 122.366 200.184C122.564 200.58 122.762 200.976 122.877 201.394ZM122.291 208.993C122.401 209.07 122.476 209.122 122.495 209.132C123.259 209.562 123.864 213.87 123.893 215.517C123.911 216.533 123.928 220.409 122.853 220.074C122.526 219.972 122.026 217.92 121.955 216.719C121.884 215.518 121.202 211.432 120.155 209.552C120.098 209.45 120.015 209.328 119.926 209.198C119.644 208.784 119.302 208.281 119.527 208.005C119.841 207.62 120.147 207.755 120.509 207.915C120.57 207.942 120.633 207.97 120.698 207.996C121.076 208.148 121.903 208.723 122.291 208.993Z" fill="#2E3257"/>
<mask id="mask28" mask-type="alpha" maskUnits="userSpaceOnUse" x="73" y="185" width="51" height="36">
<path fill-rule="evenodd" clip-rule="evenodd" d="M122.877 201.394C123.264 202.805 123.817 206.588 122.845 207.84C122.521 208.259 120.307 207.085 119.383 206.575C118.843 206.276 118.333 205.992 117.848 205.721C111.365 202.107 109.27 200.939 97.9008 201.104C85.6805 201.282 77.3083 207.007 76.8374 207.593C76.5098 208.001 76.0915 209.088 75.7475 212.119C75.6386 213.078 75.6082 214.279 75.578 215.471C75.5128 218.045 75.4485 220.583 74.5975 220.578C73.5374 220.572 73.3068 210.24 73.7644 206.141C73.7815 205.988 73.8105 205.805 73.8418 205.608C73.9389 204.996 74.0577 204.248 73.9094 203.82C73.8426 203.627 73.6745 203.509 73.5021 203.389C73.2324 203.201 72.9523 203.005 73.0339 202.502C73.1259 201.935 73.5083 201.881 73.8873 201.828C74.1348 201.794 74.3807 201.759 74.5434 201.582C75.0337 201.048 74.7403 200.77 74.4052 200.453C74.2072 200.266 73.9947 200.064 73.9206 199.788C73.6449 198.762 74.3654 198.443 75.0884 198.124C75.1435 198.099 75.1987 198.075 75.2534 198.05C75.5521 197.915 75.7328 197.869 75.8711 197.833C76.1287 197.767 76.2394 197.739 76.6907 197.248C75.7642 196.568 75.429 195.643 76.6977 195.147C76.9406 195.052 77.3589 195.056 77.7838 195.061C78.3013 195.067 78.8284 195.072 79.0602 194.898C79.1246 194.85 79.1663 194.668 79.2033 194.505C79.2296 194.391 79.2535 194.286 79.2816 194.246C79.8684 193.406 79.8183 192.768 79.7504 191.903C79.7403 191.774 79.7298 191.641 79.721 191.501C79.6647 190.615 79.6723 189.801 80.733 189.713C81.1697 189.677 81.5561 189.883 81.937 190.086C82.1733 190.212 82.4076 190.337 82.6504 190.402C83.0306 190.505 83.1281 190.592 83.2245 190.59C83.3064 190.589 83.3875 190.524 83.6408 190.35C84.1568 189.994 84.2104 189.459 84.2643 188.92C84.3115 188.447 84.3591 187.972 84.7172 187.61C85.4019 186.919 85.9333 187.336 86.4537 187.745C86.7335 187.965 87.0101 188.182 87.3057 188.223C88.4121 188.377 88.6374 187.761 88.8799 187.098C89.0397 186.661 89.2069 186.203 89.6384 185.932C90.4335 185.433 90.7888 185.911 91.1311 186.372C91.3478 186.664 91.5592 186.949 91.8737 186.974C92.31 187.008 92.9631 186.499 93.5422 186.047C93.8961 185.771 94.2224 185.516 94.4548 185.42C95.4408 185.013 96.157 185.448 96.8821 185.888C97.494 186.26 98.1121 186.635 98.9041 186.512C99.0336 186.492 99.1533 186.472 99.2651 186.453C100.238 186.293 100.616 186.23 101.632 186.871C102.367 187.334 102.727 187.267 103.257 187.168C103.52 187.119 103.826 187.062 104.239 187.059C104.722 187.055 105.102 187.275 105.469 187.487C105.77 187.661 106.062 187.83 106.395 187.864C106.578 187.884 106.758 187.797 106.942 187.709C107.124 187.622 107.311 187.532 107.507 187.544C108.302 187.593 108.676 188.193 109.052 188.798C109.343 189.264 109.634 189.732 110.121 189.95C110.825 190.266 111.615 190.058 112.369 189.86C112.709 189.77 113.042 189.683 113.357 189.646C115.078 189.444 114.781 190.501 114.465 191.628C114.327 192.12 114.185 192.625 114.206 193.045C114.705 193.161 115.208 192.978 115.71 192.796C116.185 192.623 116.659 192.451 117.129 192.532C118.606 192.787 118.109 194.28 117.756 195.339C117.745 195.372 117.734 195.404 117.724 195.435C118 195.43 118.392 195.346 118.833 195.252C120.077 194.986 121.71 194.637 122.214 195.742C122.423 196.199 122.22 196.747 122.023 197.28C121.887 197.648 121.754 198.009 121.759 198.33C121.77 198.993 122.068 199.588 122.366 200.184C122.564 200.58 122.762 200.976 122.877 201.394ZM122.291 208.993C122.401 209.07 122.476 209.122 122.495 209.132C123.259 209.562 123.864 213.87 123.893 215.517C123.911 216.533 123.928 220.409 122.853 220.074C122.526 219.972 122.026 217.92 121.955 216.719C121.884 215.518 121.202 211.432 120.155 209.552C120.098 209.45 120.015 209.328 119.926 209.198C119.644 208.784 119.302 208.281 119.527 208.005C119.841 207.62 120.147 207.755 120.509 207.915C120.57 207.942 120.633 207.97 120.698 207.996C121.076 208.148 121.903 208.723 122.291 208.993Z" fill="white"/>
</mask>
<g mask="url(#mask28)">
<rect x="41.7255" y="177" width="114.745" height="121.699" fill="#2C1B18"/>
</g>
<g filter="url(#filter2_d)">
<path fill-rule="evenodd" clip-rule="evenodd" d="M85.6242 236.111C79.8631 236.111 75.1928 231.441 75.1928 225.68C75.1928 224.621 75.3504 223.6 75.6435 222.637H72.8023C72.2022 222.637 71.7157 222.151 71.7157 221.551C71.7157 220.95 72.2022 220.464 72.8023 220.464H76.2794C76.3787 220.464 76.4749 220.477 76.5663 220.502C78.3644 217.363 81.7473 215.248 85.6242 215.248C89.689 215.248 93.2108 217.573 94.9323 220.966C95.8352 219.612 97.3375 218.725 99.0382 218.725C100.782 218.725 102.317 219.657 103.212 221.07C104.914 217.621 108.466 215.248 112.572 215.248C116.449 215.248 119.832 217.363 121.63 220.502C121.721 220.477 121.817 220.464 121.917 220.464H125.394C125.994 220.464 126.48 220.95 126.48 221.551C126.48 222.151 125.994 222.637 125.394 222.637H122.553C122.846 223.6 123.003 224.621 123.003 225.68C123.003 231.441 118.333 236.111 112.572 236.111C106.811 236.111 102.141 231.441 102.141 225.68C102.141 225.062 102.194 224.456 102.297 223.868C102.261 221.966 100.799 220.464 99.0382 220.464C97.4141 220.464 96.0446 221.742 95.8129 223.433C95.9718 224.156 96.0556 224.908 96.0556 225.68C96.0556 231.441 91.3853 236.111 85.6242 236.111ZM85.6242 234.372C90.4251 234.372 94.317 230.481 94.317 225.68C94.317 220.879 90.4251 216.987 85.6242 216.987C80.8233 216.987 76.9314 220.879 76.9314 225.68C76.9314 230.481 80.8233 234.372 85.6242 234.372ZM121.265 225.68C121.265 230.481 117.373 234.372 112.572 234.372C107.771 234.372 103.879 230.481 103.879 225.68C103.879 220.879 107.771 216.987 112.572 216.987C117.373 216.987 121.265 220.879 121.265 225.68Z" fill="#252C2F"/>
</g>
</g>
<path fill-rule="evenodd" clip-rule="evenodd" d="M182.549 192.647C169.106 192.647 158.209 203.544 158.209 216.987V219.667C155.742 220.081 153.863 222.226 153.863 224.81V230.895C153.863 233.526 155.81 235.701 158.342 236.059C159.24 244.668 164.626 251.942 172.118 255.501V263.559C153.686 264.682 139.085 279.985 139.085 298.699H226.013C226.013 279.985 211.412 264.682 192.98 263.559V255.501C200.472 251.942 205.858 244.668 206.756 236.059C209.288 235.702 211.235 233.526 211.235 230.895V224.81C211.235 222.226 209.356 220.081 206.889 219.667V216.987C206.889 203.544 195.992 192.647 182.549 192.647Z" fill="#D0C6AC"/>
<mask id="mask29" mask-type="alpha" maskUnits="userSpaceOnUse" x="139" y="192" width="88" height="107">
<path fill-rule="evenodd" clip-rule="evenodd" d="M182.549 192.647C169.106 192.647 158.209 203.544 158.209 216.987V219.667C155.742 220.081 153.863 222.226 153.863 224.81V230.895C153.863 233.526 155.81 235.701 158.342 236.059C159.24 244.668 164.626 251.942 172.118 255.501V263.559C153.686 264.682 139.085 279.985 139.085 298.699H226.013C226.013 279.985 211.412 264.682 192.98 263.559V255.501C200.472 251.942 205.858 244.668 206.756 236.059C209.288 235.702 211.235 233.526 211.235 230.895V224.81C211.235 222.226 209.356 220.081 206.889 219.667V216.987C206.889 203.544 195.992 192.647 182.549 192.647Z" fill="white"/>
</mask>
<g mask="url(#mask29)">
<rect x="125.177" y="192.647" width="114.745" height="106.052" fill="#614335"/>
<path fill-rule="evenodd" clip-rule="evenodd" d="M158.209 233.503V236.98C158.209 250.423 169.106 261.32 182.549 261.32C195.992 261.32 206.889 250.423 206.889 236.98V233.503C206.889 246.946 195.992 257.843 182.549 257.843C169.106 257.843 158.209 246.946 158.209 233.503Z" fill="black" fill-opacity="0.1"/>
</g>
<path fill-rule="evenodd" clip-rule="evenodd" d="M197.327 265.015C197.327 270.176 190.808 274.36 182.766 274.36C174.725 274.36 168.206 270.176 168.206 265.015C168.206 264.68 168.233 264.349 168.287 264.022C151.705 266.862 139.085 281.307 139.085 298.699H226.013C226.013 281.464 213.62 267.123 197.258 264.102C197.304 264.402 197.327 264.707 197.327 265.015Z" fill="#E6E6E6"/>
<mask id="mask30" mask-type="alpha" maskUnits="userSpaceOnUse" x="139" y="264" width="88" height="35">
<path fill-rule="evenodd" clip-rule="evenodd" d="M197.327 265.015C197.327 270.176 190.808 274.36 182.766 274.36C174.725 274.36 168.206 270.176 168.206 265.015C168.206 264.68 168.233 264.349 168.287 264.022C151.705 266.862 139.085 281.307 139.085 298.699H226.013C226.013 281.464 213.62 267.123 197.258 264.102C197.304 264.402 197.327 264.707 197.327 265.015Z" fill="white"/>
</mask>
<g mask="url(#mask30)">
<rect x="125.177" y="250.889" width="114.745" height="47.8105" fill="#65C9FF"/>
<rect width="47.8105" height="19.1242" transform="translate(158.644 276.098)" fill="#E6E6E6"/>
</g>
<path fill-rule="evenodd" clip-rule="evenodd" d="M171.683 242.026C172.296 246.209 176.926 249.585 182.549 249.585C188.186 249.585 192.827 246.188 193.415 241.648C193.459 241.475 193.317 240.892 192.47 240.892C183.783 240.892 177.22 240.892 172.628 240.892C171.85 240.892 171.627 241.431 171.683 242.026Z" fill="black" fill-opacity="0.7"/>
<mask id="mask31" mask-type="alpha" maskUnits="userSpaceOnUse" x="171" y="240" width="23" height="10">
<path fill-rule="evenodd" clip-rule="evenodd" d="M171.683 242.026C172.296 246.209 176.926 249.585 182.549 249.585C188.186 249.585 192.827 246.188 193.415 241.648C193.459 241.475 193.317 240.892 192.47 240.892C183.783 240.892 177.22 240.892 172.628 240.892C171.85 240.892 171.627 241.431 171.683 242.026Z" fill="white"/>
</mask>
<g mask="url(#mask31)">
<rect x="176.03" y="236.111" width="13.4739" height="6.95425" rx="3.47712" fill="white"/>
</g>
<path fill-rule="evenodd" clip-rule="evenodd" d="M187.764 245.485C187.765 245.476 187.765 245.466 187.765 245.456C187.765 244.616 186.5 243.935 184.94 243.935C184.066 243.935 183.285 244.148 182.766 244.484C182.248 244.148 181.467 243.935 180.593 243.935C179.033 243.935 177.768 244.616 177.768 245.456C177.768 245.466 177.768 245.476 177.769 245.485C177.768 245.494 177.768 245.503 177.768 245.512V249.368C177.768 252.128 180.006 254.366 182.766 254.366C185.527 254.366 187.765 252.128 187.765 249.368V245.512C187.765 245.503 187.765 245.494 187.764 245.485Z" fill="#FF4F6D"/>
<path fill-rule="evenodd" clip-rule="evenodd" d="M177.333 233.503C177.333 235.424 179.669 236.981 182.549 236.981C185.43 236.981 187.765 235.424 187.765 233.503" fill="black" fill-opacity="0.16"/>
<path fill-rule="evenodd" clip-rule="evenodd" d="M171.248 228.288C172.689 228.288 173.856 227.12 173.856 225.68C173.856 224.24 172.689 223.072 171.248 223.072C169.808 223.072 168.641 224.24 168.641 225.68C168.641 227.12 169.808 228.288 171.248 228.288Z" fill="black" fill-opacity="0.6"/>
<path fill-rule="evenodd" clip-rule="evenodd" d="M193.85 228.288C195.29 228.288 196.458 227.12 196.458 225.68C196.458 224.24 195.29 223.072 193.85 223.072C192.41 223.072 191.242 224.24 191.242 225.68C191.242 227.12 192.41 228.288 193.85 228.288Z" fill="black" fill-opacity="0.6"/>
<path d="M165.003 220.098C166.704 217.704 171.369 216.362 175.387 217.348C175.854 217.463 176.325 217.178 176.439 216.711C176.554 216.245 176.268 215.774 175.802 215.66C171.136 214.514 165.734 216.069 163.586 219.091C163.307 219.483 163.399 220.025 163.791 220.303C164.182 220.582 164.725 220.49 165.003 220.098Z" fill="black" fill-opacity="0.6"/>
<path d="M200.096 220.098C198.394 217.704 193.729 216.362 189.711 217.348C189.245 217.463 188.774 217.178 188.659 216.711C188.545 216.245 188.83 215.774 189.296 215.66C193.963 214.514 199.365 216.069 201.513 219.091C201.791 219.483 201.699 220.025 201.308 220.303C200.916 220.582 200.374 220.49 200.096 220.098Z" fill="black" fill-opacity="0.6"/>
<mask id="mask32" mask-type="alpha" maskUnits="userSpaceOnUse" x="125" y="177" width="115" height="122">
<rect x="125.177" y="177" width="114.745" height="121.699" fill="white"/>
</mask>
<g mask="url(#mask32)">
<path fill-rule="evenodd" clip-rule="evenodd" d="M166.617 191.824C158.926 196.97 153.863 205.735 153.863 215.683V224.714C157.791 224.253 163.391 215.827 165.759 207.136C170.591 207.891 176.423 208.332 182.703 208.332C188.857 208.332 194.581 207.908 199.356 207.181C201.73 215.853 207.314 224.248 211.235 224.713V215.683C211.235 205.737 206.173 196.973 198.485 191.827C198.255 192.905 198.102 194.097 198.033 195.384C193.539 194.774 188.299 194.423 182.703 194.423C176.981 194.423 171.632 194.79 167.071 195.426C167.003 194.121 166.849 192.915 166.617 191.824Z" fill="black" fill-opacity="0.16"/>
<path fill-rule="evenodd" clip-rule="evenodd" d="M182.549 177C177.676 177 173.026 177.955 168.776 179.687C168.375 179.635 167.967 179.608 167.554 179.608C164.641 179.608 162.002 180.944 160.079 183.11C152.237 183.516 145.535 188.896 142.358 196.54C138.871 198.539 136.477 202.663 136.477 207.425C136.477 207.677 136.484 207.927 136.497 208.175C133.756 212.321 132.131 217.48 132.131 223.072C132.131 226.258 132.658 229.304 133.62 232.102C133.498 232.838 133.435 233.597 133.435 234.373C133.435 238.482 135.217 242.115 137.946 244.319C141.145 252.055 148.043 257.408 156.036 257.408C156.687 257.408 157.331 257.373 157.966 257.304C160.334 259.541 163.372 260.886 166.685 260.886C168.615 260.886 170.452 260.429 172.118 259.605V255.501C164.498 251.881 159.057 244.419 158.3 235.619C155.789 235.243 153.863 233.077 153.863 230.461V224.81C153.863 223.949 154.072 223.136 154.442 222.419C155.616 222.071 156.91 221.092 158.205 219.668L158.209 219.667V219.663C161.194 216.379 164.188 210.729 165.759 204.962C170.591 205.717 176.423 206.159 182.703 206.159C188.857 206.159 194.581 205.735 199.355 205.007C200.929 210.756 203.913 216.383 206.889 219.659V219.667C206.892 219.667 206.895 219.668 206.897 219.668C208.191 221.091 209.482 222.068 210.655 222.418C211.026 223.135 211.235 223.948 211.235 224.81V230.461C211.235 233.077 209.309 235.243 206.798 235.619C206.041 244.419 200.6 251.881 192.98 255.501V259.605C194.646 260.429 196.483 260.886 198.413 260.886C201.726 260.886 204.764 259.541 207.132 257.304C207.767 257.373 208.411 257.408 209.062 257.408C217.055 257.408 223.953 252.055 227.153 244.319C229.881 242.115 231.663 238.482 231.663 234.373C231.663 233.597 231.6 232.838 231.478 232.102C232.44 229.304 232.967 226.258 232.967 223.072C232.967 217.48 231.342 212.321 228.601 208.175C228.614 207.927 228.621 207.677 228.621 207.425C228.621 202.663 226.228 198.539 222.741 196.54C219.563 188.896 212.861 183.516 205.019 183.11C203.096 180.944 200.457 179.608 197.544 179.608C197.131 179.608 196.723 179.635 196.322 179.687C192.072 177.955 187.422 177 182.549 177Z" fill="#314756"/>
<mask id="mask33" mask-type="alpha" maskUnits="userSpaceOnUse" x="132" y="177" width="101" height="84">
<path fill-rule="evenodd" clip-rule="evenodd" d="M182.549 177C177.676 177 173.026 177.955 168.776 179.687C168.375 179.635 167.967 179.608 167.554 179.608C164.641 179.608 162.002 180.944 160.079 183.11C152.237 183.516 145.535 188.896 142.358 196.54C138.871 198.539 136.477 202.663 136.477 207.425C136.477 207.677 136.484 207.927 136.497 208.175C133.756 212.321 132.131 217.48 132.131 223.072C132.131 226.258 132.658 229.304 133.62 232.102C133.498 232.838 133.435 233.597 133.435 234.373C133.435 238.482 135.217 242.115 137.946 244.319C141.145 252.055 148.043 257.408 156.036 257.408C156.687 257.408 157.331 257.373 157.966 257.304C160.334 259.541 163.372 260.886 166.685 260.886C168.615 260.886 170.452 260.429 172.118 259.605V255.501C164.498 251.881 159.057 244.419 158.3 235.619C155.789 235.243 153.863 233.077 153.863 230.461V224.81C153.863 223.949 154.072 223.136 154.442 222.419C155.616 222.071 156.91 221.092 158.205 219.668L158.209 219.667V219.663C161.194 216.379 164.188 210.729 165.759 204.962C170.591 205.717 176.423 206.159 182.703 206.159C188.857 206.159 194.581 205.735 199.355 205.007C200.929 210.756 203.913 216.383 206.889 219.659V219.667C206.892 219.667 206.895 219.668 206.897 219.668C208.191 221.091 209.482 222.068 210.655 222.418C211.026 223.135 211.235 223.948 211.235 224.81V230.461C211.235 233.077 209.309 235.243 206.798 235.619C206.041 244.419 200.6 251.881 192.98 255.501V259.605C194.646 260.429 196.483 260.886 198.413 260.886C201.726 260.886 204.764 259.541 207.132 257.304C207.767 257.373 208.411 257.408 209.062 257.408C217.055 257.408 223.953 252.055 227.153 244.319C229.881 242.115 231.663 238.482 231.663 234.373C231.663 233.597 231.6 232.838 231.478 232.102C232.44 229.304 232.967 226.258 232.967 223.072C232.967 217.48 231.342 212.321 228.601 208.175C228.614 207.927 228.621 207.677 228.621 207.425C228.621 202.663 226.228 198.539 222.741 196.54C219.563 188.896 212.861 183.516 205.019 183.11C203.096 180.944 200.457 179.608 197.544 179.608C197.131 179.608 196.723 179.635 196.322 179.687C192.072 177.955 187.422 177 182.549 177Z" fill="white"/>
</mask>
<g mask="url(#mask33)">
<rect x="125.177" y="177" width="114.745" height="121.699" fill="#2C1B18"/>
</g>
</g>
<defs>
<filter id="filter0_d" x="154.732" y="39.9868" width="56.0686" height="19.8203" filterUnits="userSpaceOnUse" color-interpolation-filters="sRGB">
<feFlood flood-opacity="0" result="BackgroundImageFix"/>
<feColorMatrix in="SourceAlpha" type="matrix" values="0 0 0 0 0 0 0 0 0 0 0 0 0 0 0 0 0 0 127 0"/>
<feOffset dy="2"/>
<feColorMatrix type="matrix" values="0 0 0 0 0 0 0 0 0 0 0 0 0 0 0 0 0 0 0.2 0"/>
<feBlend mode="normal" in2="BackgroundImageFix" result="effect1_dropShadow"/>
<feBlend mode="normal" in="SourceGraphic" in2="effect1_dropShadow" result="shape"/>
</filter>
<filter id="filter1_d" x="113.441" y="128.65" width="54.735" height="18.4382" filterUnits="userSpaceOnUse" color-interpolation-filters="sRGB">
<feFlood flood-opacity="0" result="BackgroundImageFix"/>
<feColorMatrix in="SourceAlpha" type="matrix" values="0 0 0 0 0 0 0 0 0 0 0 0 0 0 0 0 0 0 127 0"/>
<feOffset dy="2"/>
<feColorMatrix type="matrix" values="0 0 0 0 0 0 0 0 0 0 0 0 0 0 0 0 0 0 0.1 0"/>
<feBlend mode="normal" in2="BackgroundImageFix" result="effect1_dropShadow"/>
<feBlend mode="normal" in="SourceGraphic" in2="effect1_dropShadow" result="shape"/>
</filter>
<filter id="filter2_d" x="71.7157" y="215.248" width="54.7647" height="22.8627" filterUnits="userSpaceOnUse" color-interpolation-filters="sRGB">
<feFlood flood-opacity="0" result="BackgroundImageFix"/>
<feColorMatrix in="SourceAlpha" type="matrix" values="0 0 0 0 0 0 0 0 0 0 0 0 0 0 0 0 0 0 127 0"/>
<feOffset dy="2"/>
<feColorMatrix type="matrix" values="0 0 0 0 0 0 0 0 0 0 0 0 0 0 0 0 0 0 0.1 0"/>
<feBlend mode="normal" in2="BackgroundImageFix" result="effect1_dropShadow"/>
<feBlend mode="normal" in="SourceGraphic" in2="effect1_dropShadow" result="shape"/>
</filter>
<linearGradient id="paint0_linear" x1="159.825" y1="41.2598" x2="159.825" y2="56.5343" gradientUnits="userSpaceOnUse">
<stop stop-color="white" stop-opacity="0.5"/>
<stop offset="0.705058" stop-opacity="0.5"/>
</linearGradient>
<linearGradient id="paint1_linear" x1="186.585" y1="41.2598" x2="186.585" y2="56.5343" gradientUnits="userSpaceOnUse">
<stop stop-color="white" stop-opacity="0.5"/>
<stop offset="0.705058" stop-opacity="0.5"/>
</linearGradient>
</defs>
</svg>
