<svg width="282" height="299" viewBox="0 0 282 299" fill="none" xmlns="http://www.w3.org/2000/svg">
<path fill-rule="evenodd" clip-rule="evenodd" d="M99.3726 15.647C85.93 15.647 75.0327 26.5443 75.0327 39.9869V42.6668C72.5659 43.0807 70.6863 45.226 70.6863 47.8104V53.8953C70.6863 56.5258 72.6336 58.7015 75.1653 59.0594C76.0637 67.6678 81.4491 74.9417 88.9412 78.5008V86.5594C70.5097 87.6818 55.9085 102.985 55.9085 121.699H142.837C142.837 102.985 128.235 87.6818 109.804 86.5594V78.5008C117.296 74.9417 122.681 67.6678 123.58 59.0594C126.111 58.7015 128.059 56.5258 128.059 53.8953V47.8104C128.059 45.226 126.179 43.0806 123.712 42.6668V39.9868C123.712 26.5443 112.815 15.647 99.3726 15.647Z" fill="#D0C6AC"/>
<mask id="mask0" mask-type="alpha" maskUnits="userSpaceOnUse" x="55" y="15" width="88" height="107">
<path fill-rule="evenodd" clip-rule="evenodd" d="M99.3726 15.647C85.93 15.647 75.0327 26.5443 75.0327 39.9869V42.6668C72.5659 43.0807 70.6863 45.226 70.6863 47.8104V53.8953C70.6863 56.5258 72.6336 58.7015 75.1653 59.0594C76.0637 67.6678 81.4491 74.9417 88.9412 78.5008V86.5594C70.5097 87.6818 55.9085 102.985 55.9085 121.699H142.837C142.837 102.985 128.235 87.6818 109.804 86.5594V78.5008C117.296 74.9417 122.681 67.6678 123.58 59.0594C126.111 58.7015 128.059 56.5258 128.059 53.8953V47.8104C128.059 45.226 126.179 43.0806 123.712 42.6668V39.9868C123.712 26.5443 112.815 15.647 99.3726 15.647Z" fill="white"/>
</mask>
<g mask="url(#mask0)">
<rect x="42" y="15.647" width="114.745" height="106.052" fill="#FFDBB4"/>
<path fill-rule="evenodd" clip-rule="evenodd" d="M75.0327 56.5032V59.9803C75.0327 73.4229 85.93 84.3202 99.3726 84.3202C112.815 84.3202 123.712 73.4228 123.712 59.9803V56.5032C123.712 69.9457 112.815 80.8431 99.3726 80.8431C85.93 80.8431 75.0327 69.9457 75.0327 56.5032Z" fill="black" fill-opacity="0.1"/>
</g>
<path fill-rule="evenodd" clip-rule="evenodd" d="M114.15 88.0149C114.15 93.1758 107.631 97.3596 99.5899 97.3596C91.5484 97.3596 85.0294 93.1758 85.0294 88.0149C85.0294 87.6796 85.0569 87.3485 85.1106 87.0225C68.5283 89.8624 55.9085 104.307 55.9085 121.699H142.837C142.837 104.464 130.443 90.1229 114.082 87.102C114.127 87.4024 114.15 87.7069 114.15 88.0149Z" fill="#E6E6E6"/>
<mask id="mask1" mask-type="alpha" maskUnits="userSpaceOnUse" x="55" y="87" width="88" height="35">
<path fill-rule="evenodd" clip-rule="evenodd" d="M114.15 88.0149C114.15 93.1758 107.631 97.3596 99.5899 97.3596C91.5484 97.3596 85.0294 93.1758 85.0294 88.0149C85.0294 87.6796 85.0569 87.3485 85.1106 87.0225C68.5283 89.8624 55.9085 104.307 55.9085 121.699H142.837C142.837 104.464 130.443 90.1229 114.082 87.102C114.127 87.4024 114.15 87.7069 114.15 88.0149Z" fill="white"/>
</mask>
<g mask="url(#mask1)">
<rect x="42" y="73.8889" width="114.745" height="47.8105" fill="#FF5C5C"/>
<path fill-rule="evenodd" clip-rule="evenodd" d="M103.842 107.76C103.712 108.967 101.367 109.618 100.507 108.824C100.111 108.458 100.104 107.705 100.016 107.215C99.8513 106.288 99.7314 105.365 99.6901 104.423C99.665 103.848 99.514 103.387 100.144 103.301C100.528 103.249 100.923 103.505 101.237 103.707C102.301 104.39 103.988 106.375 103.842 107.76ZM98.4517 105.216C98.5754 106.444 99.0255 108.58 98.0451 109.608C97.1687 110.528 95.3679 109.616 95.0971 108.534C94.7609 107.191 96.0859 105.586 96.8985 104.678C97.148 104.4 97.6999 103.63 98.1313 103.887C98.2973 103.986 98.4323 105.022 98.4517 105.216ZM99.0775 110.01C99.3586 109.348 102.082 111.322 100.796 112.261C100.586 112.415 98.9878 112.899 98.6814 112.671C98.036 112.191 98.8687 110.513 99.0775 110.01ZM107.337 106.716C107.145 99.9897 98.5316 98.0928 93.929 101.925C92.1691 103.391 91.1637 105.185 91.1176 107.479C91.0784 109.423 91.3863 111.256 92.8708 112.592C93.5144 113.172 93.9397 113.526 94.2813 114.318C94.6391 115.147 94.8024 116.202 95.473 116.853C95.8428 117.212 96.3812 117.502 96.8925 117.27C97.832 116.845 97.5316 115.542 97.8163 114.815C98.7014 116.975 100.95 117.664 101.359 114.923C101.807 115.714 102.978 116.749 103.836 115.884C104.189 115.528 104.242 114.95 104.302 114.481C104.408 113.65 104.223 113.324 104.891 112.754C106.646 111.254 107.4 108.985 107.337 106.716Z" fill="white"/>
</g>
<path fill-rule="evenodd" clip-rule="evenodd" d="M93.2875 64.7615C93.2875 68.1221 96.0119 70.8464 99.3725 70.8464C102.733 70.8464 105.457 68.1221 105.457 64.7615" fill="black" fill-opacity="0.7"/>
<path fill-rule="evenodd" clip-rule="evenodd" d="M94.1568 56.5034C94.1568 58.4238 96.4919 59.9805 99.3725 59.9805C102.253 59.9805 104.588 58.4238 104.588 56.5034" fill="black" fill-opacity="0.16"/>
<rect width="48.6797" height="19.1242" transform="translate(75.0327 39.1177)" fill="#D08B5B"/>
<path fill-rule="evenodd" clip-rule="evenodd" d="M88.0719 51.2877C89.5122 51.2877 90.6797 50.1201 90.6797 48.6799C90.6797 47.2396 89.5122 46.072 88.0719 46.072C86.6316 46.072 85.4641 47.2396 85.4641 48.6799C85.4641 50.1201 86.6316 51.2877 88.0719 51.2877Z" fill="black" fill-opacity="0.6"/>
<path fill-rule="evenodd" clip-rule="evenodd" d="M105.722 49.9642C106.408 48.2611 108.13 46.9867 110.226 46.8401C112.314 46.6941 114.191 47.7087 115.11 49.2902C115.384 49.76 115.071 50.1819 114.707 49.9109C113.581 49.0715 112.032 48.6065 110.358 48.7235C108.736 48.8369 107.306 49.475 106.31 50.4129C105.946 50.7559 105.522 50.4623 105.722 49.9642Z" fill="black" fill-opacity="0.6"/>
<path d="M81.8262 43.0984C83.5277 40.7041 88.1926 39.3615 92.2109 40.3483C92.6772 40.4628 93.1479 40.1776 93.2624 39.7114C93.3769 39.2452 93.0918 38.7744 92.6255 38.6599C87.959 37.5139 82.5572 39.0686 80.409 42.0913C80.1309 42.4826 80.2227 43.0253 80.614 43.3034C81.0053 43.5816 81.548 43.4898 81.8262 43.0984Z" fill="black" fill-opacity="0.6"/>
<path d="M116.919 43.0984C115.217 40.7041 110.552 39.3615 106.534 40.3483C106.068 40.4628 105.597 40.1776 105.483 39.7114C105.368 39.2452 105.653 38.7744 106.12 38.6599C110.786 37.5139 116.188 39.0686 118.336 42.0913C118.614 42.4826 118.522 43.0253 118.131 43.3034C117.74 43.5816 117.197 43.4898 116.919 43.0984Z" fill="black" fill-opacity="0.6"/>
<mask id="mask2" mask-type="alpha" maskUnits="userSpaceOnUse" x="42" y="0" width="115" height="122">
<rect x="42" width="114.745" height="121.699" fill="white"/>
</mask>
<g mask="url(#mask2)">
<path fill-rule="evenodd" clip-rule="evenodd" d="M70.6862 49.1143C75.406 39.2471 85.7552 35.3811 94.7827 32.0088C100.572 29.8461 105.818 27.8865 108.687 24.6775C109.657 25.5585 110.757 26.4411 111.914 27.3695C116.351 30.9314 121.631 35.1698 123.712 42.5947L123.712 42.6668C125.881 43.0306 127.595 44.7323 127.979 46.8941C127.975 44.0257 127.568 41.2486 126.809 38.6181C130.765 30.8677 127.127 19.8572 122.408 15.2123C118.288 11.3797 112.715 9.858 108.955 11.5275C103.911 3.90371 89.3343 5.7547 80.683 12.1698C73.0178 17.8563 66.6314 28.2651 68.5974 41.3445C68.2567 43.1527 68.0784 45.0194 68.0784 46.9293V71.9469C68.0784 72.5962 68.086 73.2453 68.1013 73.8939L68.0784 73.8888C68.1641 87.4646 65.0263 110.755 58.9509 114.31C86.0544 121.611 90.2148 97.731 88.9411 78.6698L88.9411 78.5007C81.3215 74.8811 75.881 67.4191 75.1233 58.6186C72.6121 58.2428 70.6862 56.0766 70.6862 53.4607V49.1142L70.6862 49.1143ZM109.804 78.5007C117.423 74.8811 122.864 67.4191 123.622 58.6186C126.133 58.2428 128.059 56.0766 128.059 53.4607V52.0895C128.531 61.9025 131.087 71.5162 135.571 80.2862L136.016 81.1561C139.74 88.4399 139.922 96.259 137.508 103.068C131.649 93.6911 121.497 87.2714 109.804 86.5593V78.5007Z" fill="#272C2E"/>
<mask id="mask3" mask-type="alpha" maskUnits="userSpaceOnUse" x="58" y="6" width="82" height="110">
<path fill-rule="evenodd" clip-rule="evenodd" d="M70.6862 49.1143C75.406 39.2471 85.7552 35.3811 94.7827 32.0088C100.572 29.8461 105.818 27.8865 108.687 24.6775C109.657 25.5585 110.757 26.4411 111.914 27.3695C116.351 30.9314 121.631 35.1698 123.712 42.5947L123.712 42.6668C125.881 43.0306 127.595 44.7323 127.979 46.8941C127.975 44.0257 127.568 41.2486 126.809 38.6181C130.765 30.8677 127.127 19.8572 122.408 15.2123C118.288 11.3797 112.715 9.858 108.955 11.5275C103.911 3.90371 89.3343 5.7547 80.683 12.1698C73.0178 17.8563 66.6314 28.2651 68.5974 41.3445C68.2567 43.1527 68.0784 45.0194 68.0784 46.9293V71.9469C68.0784 72.5962 68.086 73.2453 68.1013 73.8939L68.0784 73.8888C68.1641 87.4646 65.0263 110.755 58.9509 114.31C86.0544 121.611 90.2148 97.731 88.9411 78.6698L88.9411 78.5007C81.3215 74.8811 75.881 67.4191 75.1233 58.6186C72.6121 58.2428 70.6862 56.0766 70.6862 53.4607V49.1142L70.6862 49.1143ZM109.804 78.5007C117.423 74.8811 122.864 67.4191 123.622 58.6186C126.133 58.2428 128.059 56.0766 128.059 53.4607V52.0895C128.531 61.9025 131.087 71.5162 135.571 80.2862L136.016 81.1561C139.74 88.4399 139.922 96.259 137.508 103.068C131.649 93.6911 121.497 87.2714 109.804 86.5593V78.5007Z" fill="white"/>
</mask>
<g mask="url(#mask3)">
<rect x="42" width="114.745" height="121.699" fill="#4A312C"/>
</g>
<path fill-rule="evenodd" clip-rule="evenodd" d="M94.7827 32.009C85.7551 35.3813 75.406 39.2473 70.6862 49.1145C75.406 40.5515 85.7551 37.1965 94.7827 34.2699C100.572 32.3931 105.818 30.6925 108.687 27.9076C109.839 28.8153 111.173 29.6724 112.568 30.5692C116.847 33.3184 121.706 36.441 123.696 42.5373C121.604 35.148 116.339 30.9224 111.913 27.3697C110.757 26.4413 109.657 25.5587 108.687 24.6777C105.818 27.8867 100.572 29.8463 94.7827 32.009Z" fill="black" fill-opacity="0.16"/>
<g filter="url(#filter0_d)">
<path d="M99.3725 42.6428C94.5752 42.6428 93.8832 38.6943 84.0169 38.1355C74.1571 37.6904 71.0406 40.6167 71.0237 42.6428C71.0397 44.5088 70.5331 49.3581 76.9297 55.0382C83.3503 61.7805 89.9279 59.4942 92.2853 57.2918C94.6502 56.274 97.3472 47.1407 99.3725 47.1502C101.398 47.1597 104.095 56.274 106.46 57.2918C108.817 59.4942 115.395 61.7805 121.815 55.0382C128.212 49.3581 127.705 44.5088 127.721 42.6428C127.704 40.6167 124.588 37.6904 114.728 38.1355C104.862 38.6943 104.17 42.6428 99.3725 42.6428Z" fill="#F4F4F4"/>
<path d="M94.6477 47.1502C94.8133 43.8217 89.0349 40.2659 82.8357 40.3892C76.6397 40.5189 75.8332 44.4977 75.7485 46.0234C75.5969 49.5584 79.3853 57.5044 86.3793 57.2918C93.3733 57.0706 94.552 49.3465 94.6477 47.1502Z" fill="#2F383B"/>
<path d="M104.097 47.1502C103.932 43.8217 109.71 40.2659 115.909 40.3892C122.105 40.5189 122.912 44.4977 122.997 46.0234C123.148 49.5584 119.36 57.5044 112.366 57.2918C105.372 57.0706 104.193 49.3465 104.097 47.1502Z" fill="#2F383B"/>
</g>
</g>
<path fill-rule="evenodd" clip-rule="evenodd" d="M182.824 15.647C169.381 15.647 158.484 26.5443 158.484 39.9869V42.6668C156.017 43.0807 154.137 45.226 154.137 47.8104V53.8953C154.137 56.5258 156.085 58.7015 158.616 59.0594C159.515 67.6678 164.9 74.9417 172.392 78.5008V86.5594C153.961 87.6818 139.359 102.985 139.359 121.699H226.288C226.288 102.985 211.686 87.6818 193.255 86.5594V78.5008C200.747 74.9417 206.132 67.6678 207.031 59.0594C209.562 58.7015 211.51 56.5258 211.51 53.8953V47.8104C211.51 45.226 209.63 43.0806 207.163 42.6668V39.9868C207.163 26.5443 196.266 15.647 182.824 15.647Z" fill="#D0C6AC"/>
<mask id="mask4" mask-type="alpha" maskUnits="userSpaceOnUse" x="139" y="15" width="88" height="107">
<path fill-rule="evenodd" clip-rule="evenodd" d="M182.824 15.647C169.381 15.647 158.484 26.5443 158.484 39.9869V42.6668C156.017 43.0807 154.137 45.226 154.137 47.8104V53.8953C154.137 56.5258 156.085 58.7015 158.616 59.0594C159.515 67.6678 164.9 74.9417 172.392 78.5008V86.5594C153.961 87.6818 139.359 102.985 139.359 121.699H226.288C226.288 102.985 211.686 87.6818 193.255 86.5594V78.5008C200.747 74.9417 206.132 67.6678 207.031 59.0594C209.562 58.7015 211.51 56.5258 211.51 53.8953V47.8104C211.51 45.226 209.63 43.0806 207.163 42.6668V39.9868C207.163 26.5443 196.266 15.647 182.824 15.647Z" fill="white"/>
</mask>
<g mask="url(#mask4)">
<rect x="125.451" y="15.647" width="114.745" height="106.052" fill="#EDB98A"/>
<path fill-rule="evenodd" clip-rule="evenodd" d="M158.484 56.5032V59.9803C158.484 73.4229 169.381 84.3202 182.824 84.3202C196.266 84.3202 207.163 73.4228 207.163 59.9803V56.5032C207.163 69.9457 196.266 80.8431 182.824 80.8431C169.381 80.8431 158.484 69.9457 158.484 56.5032Z" fill="black" fill-opacity="0.1"/>
</g>
<path fill-rule="evenodd" clip-rule="evenodd" d="M204.556 89.6872C204.556 96.7637 194.923 102.5 183.041 102.5C171.159 102.5 161.526 96.7637 161.526 89.6872C161.526 89.4533 161.537 89.2208 161.557 88.99C148.553 94.157 139.359 106.855 139.359 121.699H226.288C226.288 107.026 217.305 94.4505 204.538 89.1719C204.55 89.3428 204.556 89.5146 204.556 89.6872Z" fill="#E6E6E6"/>
<mask id="mask5" mask-type="alpha" maskUnits="userSpaceOnUse" x="139" y="88" width="88" height="34">
<path fill-rule="evenodd" clip-rule="evenodd" d="M204.556 89.6872C204.556 96.7637 194.923 102.5 183.041 102.5C171.159 102.5 161.526 96.7637 161.526 89.6872C161.526 89.4533 161.537 89.2208 161.557 88.99C148.553 94.157 139.359 106.855 139.359 121.699H226.288C226.288 107.026 217.305 94.4505 204.538 89.1719C204.55 89.3428 204.556 89.5146 204.556 89.6872Z" fill="white"/>
</mask>
<g mask="url(#mask5)">
<rect x="125.451" y="73.8889" width="114.745" height="47.8105" fill="#E6E6E6"/>
</g>
<path fill-rule="evenodd" clip-rule="evenodd" d="M171.957 65.0262C172.57 69.2086 177.2 72.5851 182.824 72.5851C188.46 72.5851 193.101 69.1877 193.69 64.6482C193.734 64.4746 193.592 63.8923 192.745 63.8923C184.057 63.8923 177.495 63.8923 172.902 63.8923C172.124 63.8923 171.901 64.4315 171.957 65.0262Z" fill="black" fill-opacity="0.7"/>
<mask id="mask6" mask-type="alpha" maskUnits="userSpaceOnUse" x="171" y="63" width="23" height="10">
<path fill-rule="evenodd" clip-rule="evenodd" d="M171.957 65.0262C172.57 69.2086 177.2 72.5851 182.824 72.5851C188.46 72.5851 193.101 69.1877 193.69 64.6482C193.734 64.4746 193.592 63.8923 192.745 63.8923C184.057 63.8923 177.495 63.8923 172.902 63.8923C172.124 63.8923 171.901 64.4315 171.957 65.0262Z" fill="white"/>
</mask>
<g mask="url(#mask6)">
<rect x="176.304" y="59.1113" width="13.4739" height="6.95425" rx="3.47712" fill="white"/>
</g>
<path fill-rule="evenodd" clip-rule="evenodd" d="M188.039 68.4853C188.039 68.4755 188.039 68.4658 188.039 68.4561C188.039 67.6159 186.774 66.9348 185.214 66.9348C184.34 66.9348 183.559 67.1484 183.041 67.484C182.523 67.1484 181.741 66.9348 180.868 66.9348C179.307 66.9348 178.042 67.6159 178.042 68.4561C178.042 68.4658 178.043 68.4755 178.043 68.4853C178.043 68.4943 178.042 68.5033 178.042 68.5124V72.3678C178.042 75.1283 180.28 77.3662 183.041 77.3662C185.801 77.3662 188.039 75.1283 188.039 72.3678V68.5124C188.039 68.5033 188.039 68.4943 188.039 68.4853Z" fill="#FF4F6D"/>
<path fill-rule="evenodd" clip-rule="evenodd" d="M177.608 56.5034C177.608 58.4238 179.943 59.9805 182.823 59.9805C185.704 59.9805 188.039 58.4238 188.039 56.5034" fill="black" fill-opacity="0.16"/>
<path fill-rule="evenodd" clip-rule="evenodd" d="M171.523 51.2877C172.963 51.2877 174.131 50.1201 174.131 48.6799C174.131 47.2396 172.963 46.072 171.523 46.072C170.083 46.072 168.915 47.2396 168.915 48.6799C168.915 50.1201 170.083 51.2877 171.523 51.2877Z" fill="black" fill-opacity="0.6"/>
<path fill-rule="evenodd" clip-rule="evenodd" d="M194.124 51.2877C195.564 51.2877 196.732 50.1201 196.732 48.6799C196.732 47.2396 195.564 46.072 194.124 46.072C192.684 46.072 191.516 47.2396 191.516 48.6799C191.516 50.1201 192.684 51.2877 194.124 51.2877Z" fill="black" fill-opacity="0.6"/>
<path d="M165.277 43.0984C166.979 40.7041 171.644 39.3615 175.662 40.3483C176.128 40.4628 176.599 40.1776 176.713 39.7114C176.828 39.2452 176.543 38.7744 176.077 38.6599C171.41 37.5139 166.008 39.0686 163.86 42.0913C163.582 42.4826 163.674 43.0253 164.065 43.3034C164.456 43.5816 164.999 43.4898 165.277 43.0984Z" fill="black" fill-opacity="0.6"/>
<path d="M200.37 43.0984C198.668 40.7041 194.003 39.3615 189.985 40.3483C189.519 40.4628 189.048 40.1776 188.934 39.7114C188.819 39.2452 189.104 38.7744 189.571 38.6599C194.237 37.5139 199.639 39.0686 201.787 42.0913C202.065 42.4826 201.973 43.0253 201.582 43.3034C201.191 43.5816 200.648 43.4898 200.37 43.0984Z" fill="black" fill-opacity="0.6"/>
<mask id="mask7" mask-type="alpha" maskUnits="userSpaceOnUse" x="125" y="0" width="116" height="122">
<rect x="125.451" width="114.745" height="121.699" fill="white"/>
</mask>
<g mask="url(#mask7)">
<path fill-rule="evenodd" clip-rule="evenodd" d="M153.701 33.6149C153.416 35.2616 153.268 36.955 153.268 38.683V59.5458C153.268 59.9689 153.277 60.3899 153.295 60.8086C153.285 61.1663 153.276 61.4721 153.268 61.7189C153.328 63.3185 152.461 66.8456 151.382 71.2364C149.697 78.0933 147.494 87.0569 147.494 94.076C147.494 99.7332 148.356 104.006 149.185 108.114C150.044 112.367 150.866 116.444 150.66 121.699H171.088C171.088 121.699 170.676 115.958 170.013 110.244C174.382 114.679 179.934 117.56 186.986 117.56C217.65 117.56 220.724 94.1644 220.724 89.2067C220.724 86.5817 218.846 84.4758 217.079 82.4956C215.51 80.7359 214.028 79.0755 214.032 77.238C214.036 75.3457 214.48 74.0238 214.936 72.6642C215.422 71.2178 215.922 69.7288 215.922 67.465C215.922 64.9355 215.299 64.2006 214.657 63.4423C214.184 62.884 213.701 62.313 213.447 61.0037C213.064 59.0276 212.637 54.7771 212.379 51.9729V38.683C212.379 22.3599 199.147 9.12744 182.824 9.12744C168.269 9.12744 156.171 19.6485 153.721 33.5004C153.709 33.4784 153.703 33.4673 153.703 33.4673C153.703 33.4673 153.702 33.5179 153.701 33.6149ZM182.824 23.0359C169.621 23.0359 158.918 33.7387 158.918 46.9411V56.5033C158.918 69.7058 169.621 80.4085 182.824 80.4085C196.026 80.4085 206.729 69.7058 206.729 56.5033V46.9412C206.729 33.7387 196.026 23.0359 182.824 23.0359Z" fill="#3B6BAD"/>
<mask id="mask8" mask-type="alpha" maskUnits="userSpaceOnUse" x="147" y="9" width="74" height="113">
<path fill-rule="evenodd" clip-rule="evenodd" d="M153.701 33.6149C153.416 35.2616 153.268 36.955 153.268 38.683V59.5458C153.268 59.9689 153.277 60.3899 153.295 60.8086C153.285 61.1663 153.276 61.4721 153.268 61.7189C153.328 63.3185 152.461 66.8456 151.382 71.2364C149.697 78.0933 147.494 87.0569 147.494 94.076C147.494 99.7332 148.356 104.006 149.185 108.114C150.044 112.367 150.866 116.444 150.66 121.699H171.088C171.088 121.699 170.676 115.958 170.013 110.244C174.382 114.679 179.934 117.56 186.986 117.56C217.65 117.56 220.724 94.1644 220.724 89.2067C220.724 86.5817 218.846 84.4758 217.079 82.4956C215.51 80.7359 214.028 79.0755 214.032 77.238C214.036 75.3457 214.48 74.0238 214.936 72.6642C215.422 71.2178 215.922 69.7288 215.922 67.465C215.922 64.9355 215.299 64.2006 214.657 63.4423C214.184 62.884 213.701 62.313 213.447 61.0037C213.064 59.0276 212.637 54.7771 212.379 51.9729V38.683C212.379 22.3599 199.147 9.12744 182.824 9.12744C168.269 9.12744 156.171 19.6485 153.721 33.5004C153.709 33.4784 153.703 33.4673 153.703 33.4673C153.703 33.4673 153.702 33.5179 153.701 33.6149ZM182.824 23.0359C169.621 23.0359 158.918 33.7387 158.918 46.9411V56.5033C158.918 69.7058 169.621 80.4085 182.824 80.4085C196.026 80.4085 206.729 69.7058 206.729 56.5033V46.9412C206.729 33.7387 196.026 23.0359 182.824 23.0359Z" fill="white"/>
</mask>
<g mask="url(#mask8)">
<rect x="125.451" width="114.745" height="121.699" fill="#25557C"/>
<path fill-rule="evenodd" clip-rule="evenodd" d="M156.343 45.6197C157.031 31.5908 168.624 20.4281 182.824 20.4281C197.023 20.4281 208.616 31.5908 209.304 45.6197C209.611 44.006 209.771 42.341 209.771 40.6388C209.771 25.8761 197.706 13.9084 182.824 13.9084C167.941 13.9084 155.876 25.8761 155.876 40.6388C155.876 42.341 156.036 44.006 156.343 45.6197Z" fill="white" fill-opacity="0.5"/>
<path opacity="0.9" fill-rule="evenodd" clip-rule="evenodd" d="M158.93 46.1897C158.922 46.4392 158.918 46.6897 158.918 46.9411V56.5032C158.918 69.7057 169.621 80.4084 182.824 80.4084C196.026 80.4084 206.729 69.7057 206.729 56.5032V46.9411C206.729 46.6897 206.725 46.4392 206.717 46.1897C207.01 47.699 207.163 49.258 207.163 50.8528V59.5457C207.163 72.9882 196.266 83.8855 182.824 83.8855C169.381 83.8855 158.484 72.9882 158.484 59.5457V50.8528C158.484 49.258 158.637 47.699 158.93 46.1897ZM206.316 84.3829C204.409 87.383 198.534 90.3202 191.258 91.6032C183.981 92.8862 177.456 92.1355 174.638 89.9686C174.648 90.0818 174.662 90.1947 174.682 90.3073C175.425 94.5212 183.126 96.6856 191.882 95.1417C200.638 93.5977 207.133 88.9302 206.39 84.7163C206.37 84.6037 206.346 84.4925 206.316 84.3829ZM211.362 91.0518C210.214 95.223 204.897 99.837 197.646 102.476C190.396 105.115 183.357 104.998 179.796 102.541C179.838 102.688 179.885 102.833 179.938 102.978C181.905 108.383 190.573 110.191 199.299 107.015C208.024 103.84 213.502 96.8831 211.534 91.4775C211.482 91.333 211.424 91.1911 211.362 91.0518Z" fill="black" fill-opacity="0.16"/>
</g>
</g>
<path fill-rule="evenodd" clip-rule="evenodd" d="M57.647 103.647C44.2045 103.647 33.3072 114.544 33.3072 127.987V130.667C30.8404 131.081 28.9608 133.226 28.9608 135.81V141.895C28.9608 144.526 30.9081 146.701 33.4398 147.059C34.3382 155.668 39.7236 162.942 47.2157 166.501V174.559C28.7842 175.682 14.183 190.985 14.183 209.699H101.111C101.111 190.985 86.5099 175.682 68.0784 174.559V166.501C75.5705 162.942 80.9558 155.668 81.8543 147.059C84.386 146.702 86.3333 144.526 86.3333 141.895V135.81C86.3333 133.226 84.4537 131.081 81.9869 130.667V127.987C81.9869 114.544 71.0896 103.647 57.647 103.647Z" fill="#D0C6AC"/>
<mask id="mask9" mask-type="alpha" maskUnits="userSpaceOnUse" x="14" y="103" width="88" height="107">
<path fill-rule="evenodd" clip-rule="evenodd" d="M57.647 103.647C44.2045 103.647 33.3072 114.544 33.3072 127.987V130.667C30.8404 131.081 28.9608 133.226 28.9608 135.81V141.895C28.9608 144.526 30.9081 146.701 33.4398 147.059C34.3382 155.668 39.7236 162.942 47.2157 166.501V174.559C28.7842 175.682 14.183 190.985 14.183 209.699H101.111C101.111 190.985 86.5099 175.682 68.0784 174.559V166.501C75.5705 162.942 80.9558 155.668 81.8543 147.059C84.386 146.702 86.3333 144.526 86.3333 141.895V135.81C86.3333 133.226 84.4537 131.081 81.9869 130.667V127.987C81.9869 114.544 71.0896 103.647 57.647 103.647Z" fill="white"/>
</mask>
<g mask="url(#mask9)">
<rect x="0.274536" y="103.647" width="114.745" height="106.052" fill="#FFDBB4"/>
<path fill-rule="evenodd" clip-rule="evenodd" d="M33.3071 144.503V147.98C33.3071 161.423 44.2045 172.32 57.647 172.32C71.0895 172.32 81.9869 161.423 81.9869 147.98V144.503C81.9869 157.946 71.0895 168.843 57.647 168.843C44.2045 168.843 33.3071 157.946 33.3071 144.503Z" fill="black" fill-opacity="0.1"/>
</g>
<path fill-rule="evenodd" clip-rule="evenodd" d="M79.3791 177.687C79.3791 184.764 69.7466 190.5 57.8644 190.5C45.9821 190.5 36.3496 184.764 36.3496 177.687C36.3496 177.453 36.3602 177.221 36.381 176.99C23.3767 182.157 14.183 194.855 14.183 209.699H101.111C101.111 195.026 92.1284 182.45 79.362 177.172C79.3733 177.343 79.3791 177.515 79.3791 177.687Z" fill="#E6E6E6"/>
<mask id="mask10" mask-type="alpha" maskUnits="userSpaceOnUse" x="14" y="176" width="88" height="34">
<path fill-rule="evenodd" clip-rule="evenodd" d="M79.3791 177.687C79.3791 184.764 69.7466 190.5 57.8644 190.5C45.9821 190.5 36.3496 184.764 36.3496 177.687C36.3496 177.453 36.3602 177.221 36.381 176.99C23.3767 182.157 14.183 194.855 14.183 209.699H101.111C101.111 195.026 92.1284 182.45 79.362 177.172C79.3733 177.343 79.3791 177.515 79.3791 177.687Z" fill="white"/>
</mask>
<g mask="url(#mask10)">
<rect x="0.274536" y="161.889" width="114.745" height="47.8105" fill="#262E33"/>
</g>
<g opacity="0.6">
<path fill-rule="evenodd" clip-rule="evenodd" d="M46.3464 157.649C46.9365 157.861 47.5808 157.977 48.2555 157.977C50.5685 157.977 52.524 156.607 53.1644 154.723C54.2399 155.661 55.849 156.256 57.6471 156.256C59.4452 156.256 61.0543 155.661 62.1298 154.723C62.7701 156.607 64.7257 157.977 67.0387 157.977C67.7134 157.977 68.3577 157.861 68.9478 157.649C68.9222 157.649 68.8966 157.649 68.871 157.649C66.1196 157.649 63.7406 155.519 63.7406 153.056C63.7406 151.238 64.7491 149.701 66.2123 148.85C63.8224 149.196 61.9857 151.021 61.9107 153.242C60.7962 153.997 59.2965 154.459 57.6471 154.459C55.9977 154.459 54.498 153.997 53.3835 153.242C53.3085 151.021 51.4719 149.196 49.0819 148.85C50.5451 149.701 51.5536 151.238 51.5536 153.056C51.5536 155.519 49.1746 157.649 46.4232 157.649C46.3976 157.649 46.372 157.649 46.3464 157.649Z" fill="black" fill-opacity="0.6"/>
</g>
<path fill-rule="evenodd" clip-rule="evenodd" d="M41.5655 156.673C43.7259 156.673 45.4772 154.922 45.4772 152.762C45.4772 150.601 43.7259 148.85 41.5655 148.85C39.405 148.85 37.6537 150.601 37.6537 152.762C37.6537 154.922 39.405 156.673 41.5655 156.673Z" fill="#FF4646" fill-opacity="0.2"/>
<path fill-rule="evenodd" clip-rule="evenodd" d="M73.7288 156.673C75.8892 156.673 77.6406 154.922 77.6406 152.762C77.6406 150.601 75.8892 148.85 73.7288 148.85C71.5684 148.85 69.8171 150.601 69.8171 152.762C69.8171 154.922 71.5684 156.673 73.7288 156.673Z" fill="#FF4646" fill-opacity="0.2"/>
<path fill-rule="evenodd" clip-rule="evenodd" d="M52.4314 144.503C52.4314 146.424 54.7665 147.981 57.6471 147.981C60.5276 147.981 62.8628 146.424 62.8628 144.503" fill="black" fill-opacity="0.16"/>
<path fill-rule="evenodd" clip-rule="evenodd" d="M46.3465 139.288C47.7868 139.288 48.9543 138.12 48.9543 136.68C48.9543 135.24 47.7868 134.072 46.3465 134.072C44.9062 134.072 43.7386 135.24 43.7386 136.68C43.7386 138.12 44.9062 139.288 46.3465 139.288Z" fill="black" fill-opacity="0.6"/>
<path fill-rule="evenodd" clip-rule="evenodd" d="M68.9477 139.288C70.388 139.288 71.5556 138.12 71.5556 136.68C71.5556 135.24 70.388 134.072 68.9477 134.072C67.5075 134.072 66.3399 135.24 66.3399 136.68C66.3399 138.12 67.5075 139.288 68.9477 139.288Z" fill="black" fill-opacity="0.6"/>
<path d="M40.1007 131.098C41.8023 128.704 46.4672 127.362 50.4855 128.348C50.9518 128.463 51.4225 128.178 51.537 127.711C51.6515 127.245 51.3664 126.774 50.9001 126.66C46.2336 125.514 40.8317 127.069 38.6836 130.091C38.4055 130.483 38.4973 131.025 38.8886 131.303C39.2799 131.582 39.8226 131.49 40.1007 131.098Z" fill="black" fill-opacity="0.6"/>
<path d="M75.1936 131.098C73.492 128.704 68.8271 127.362 64.8088 128.348C64.3426 128.463 63.8718 128.178 63.7573 127.711C63.6428 127.245 63.9279 126.774 64.3942 126.66C69.0607 125.514 74.4626 127.069 76.6107 130.091C76.8888 130.483 76.797 131.025 76.4057 131.303C76.0144 131.582 75.4717 131.49 75.1936 131.098Z" fill="black" fill-opacity="0.6"/>
<mask id="mask11" mask-type="alpha" maskUnits="userSpaceOnUse" x="0" y="88" width="116" height="122">
<rect x="0.274536" y="88" width="114.745" height="121.699" fill="white"/>
</mask>
<g mask="url(#mask11)">
<path fill-rule="evenodd" clip-rule="evenodd" d="M33.3072 130.667V130.567C33.3192 130.576 33.3313 130.586 33.3434 130.595C34.0778 118.665 41.0968 116.168 47.4729 113.9C52.0493 112.272 56.2945 110.762 57.6471 105.966C58.9996 110.762 63.2448 112.272 67.8212 113.9C74.1973 116.168 81.2163 118.665 81.9507 130.595C81.9628 130.586 81.9749 130.576 81.9869 130.567V130.667C84.2277 131.043 85.9839 132.847 86.287 135.112C87.3981 133.849 88.0719 132.192 88.0719 130.377C88.0719 129.452 87.8965 128.567 87.5771 127.754C88.9527 126.448 89.8105 124.601 89.8105 122.554C89.8105 120.017 88.4935 117.788 86.5061 116.513C86.9526 115.578 87.2026 114.532 87.2026 113.426C87.2026 110.108 84.9488 107.316 81.8884 106.498C81.9533 106.064 81.9869 105.62 81.9869 105.168C81.9869 100.247 77.9977 96.2581 73.0768 96.2581C71.9341 96.2581 70.8416 96.4732 69.8376 96.8651C68.2164 94.6524 65.5987 93.2156 62.6454 93.2156C60.7929 93.2156 59.0724 93.7809 57.6471 94.7485C56.2217 93.7809 54.5012 93.2156 52.6487 93.2156C49.6954 93.2156 47.0777 94.6524 45.4565 96.8651C44.4525 96.4732 43.3601 96.2581 42.2173 96.2581C37.2964 96.2581 33.3072 100.247 33.3072 105.168C33.3072 105.62 33.3408 106.064 33.4057 106.498C30.3453 107.316 28.0915 110.108 28.0915 113.426C28.0915 114.379 28.2772 115.288 28.6145 116.12C26.2445 117.29 24.6144 119.732 24.6144 122.554C24.6144 124.917 25.7578 127.014 27.5216 128.32C27.3268 128.972 27.2222 129.662 27.2222 130.377C27.2222 132.192 27.8961 133.849 29.0071 135.112C29.3102 132.847 31.0665 131.043 33.3072 130.667ZM33.3978 146.619C31.7193 146.367 30.3023 145.316 29.5472 143.866C28.6336 145.069 28.0915 146.57 28.0915 148.198C28.0915 151.409 30.2028 154.128 33.1132 155.041C32.9562 155.631 32.8726 156.251 32.8726 156.89C32.8726 160.677 35.808 163.779 39.5276 164.044C40.6199 166.609 43.1644 168.408 46.1291 168.408C46.4985 168.408 46.8613 168.38 47.2157 168.327V166.501C39.5961 162.881 34.1555 155.419 33.3978 146.619ZM68.0784 166.501V168.327C68.4328 168.38 68.7956 168.408 69.165 168.408C72.1297 168.408 74.6742 166.609 75.7665 164.044C79.4862 163.779 82.4216 160.677 82.4216 156.89C82.4216 156.251 82.3379 155.631 82.1809 155.041C85.0913 154.128 87.2026 151.409 87.2026 148.198C87.2026 146.57 86.6605 145.069 85.747 143.866C84.9918 145.316 83.5748 146.367 81.8963 146.619C81.1386 155.419 75.698 162.881 68.0784 166.501Z" fill="#1F3540"/>
<g opacity="0.9" filter="url(#filter1_d)">
<path d="M77.6545 113.617C77.6545 113.617 75.4895 117.455 80.0027 119.097C82.9524 120.171 85.8667 118.589 85.8667 118.589C85.8667 118.589 84.9286 114.283 81.5364 113.048C78.8816 112.082 77.6545 113.617 77.6545 113.617Z" fill="#5DD362"/>
<path d="M85.8667 118.589C85.8667 118.589 84.9286 114.283 81.5364 113.048C79.7665 112.404 78.6244 112.88 78.0498 113.266C77.4598 112.225 77.4091 111.447 77.4197 111.418C77.4327 111.29 77.3359 111.189 77.2179 111.146C77.1884 111.135 77.1294 111.114 77.0893 111.132C76.9206 111.137 76.7979 111.29 76.8038 111.458C76.8014 111.556 76.9549 113.429 78.8144 115.295C81.4433 118.168 85.8667 118.589 85.8667 118.589Z" fill="#42BC53"/>
</g>
<g filter="url(#filter2_d)">
<path fill-rule="evenodd" clip-rule="evenodd" d="M72.0868 99.7312C74.3829 98.4055 75.2998 94.8649 75.2998 94.8649C75.2998 94.8649 72.0948 93.0516 68.6679 94.6788C65.241 96.306 65.9008 99.1873 65.9008 99.1873C65.9008 99.1873 68.7744 101.644 72.0868 99.7312Z" fill="#5DD362"/>
<path fill-rule="evenodd" clip-rule="evenodd" d="M64.1666 100.791C64.1884 100.828 64.2101 100.866 64.2695 100.882C64.4534 101.027 64.7444 101.009 64.8892 100.825C65.3451 100.311 65.7852 99.8563 66.3063 99.455C67.1609 100.066 69.4896 101.231 72.0868 99.7312C74.3829 98.4055 75.2998 94.8649 75.2998 94.8649C75.2998 94.8649 74.7989 94.9534 73.9533 95.1404C73.7216 95.1738 67.704 96.1387 64.2345 100.3C64.1057 100.424 64.0797 100.64 64.1666 100.791Z" fill="#42BC53"/>
</g>
<g filter="url(#filter3_d)">
<path fill-rule="evenodd" clip-rule="evenodd" d="M39.1279 111.688C36.8318 113.014 35.9149 116.554 35.9149 116.554C35.9149 116.554 39.1199 118.368 42.5468 116.74C45.9737 115.113 45.3139 112.232 45.3139 112.232C45.3139 112.232 42.4403 109.776 39.1279 111.688Z" fill="#5DD362"/>
<path fill-rule="evenodd" clip-rule="evenodd" d="M47.0482 110.628C47.0264 110.591 47.0047 110.553 46.9453 110.537C46.7614 110.392 46.4703 110.41 46.3256 110.594C45.8696 111.108 45.4296 111.563 44.9084 111.964C44.0539 111.353 41.7252 110.188 39.1279 111.688C36.8318 113.014 35.9149 116.554 35.9149 116.554C35.9149 116.554 36.4159 116.466 37.2615 116.279C37.4932 116.245 43.5107 115.281 46.9803 111.119C47.1091 110.995 47.1351 110.779 47.0482 110.628Z" fill="#42BC53"/>
</g>
<g filter="url(#filter4_d)">
<path d="M29.6455 109.713C29.2822 109.231 29.1285 108.636 29.2124 108.038C29.2963 107.44 29.6083 106.911 30.0901 106.548C30.2201 106.45 30.3916 106.369 30.5864 106.301C30.3893 106.24 30.2152 106.165 30.0819 106.072C29.0611 105.357 28.812 103.945 29.5268 102.924C30.2417 101.903 31.6539 101.654 32.6746 102.369C32.8079 102.462 32.9374 102.601 33.0626 102.765C33.0601 102.558 33.0772 102.37 33.1249 102.214C33.3014 101.637 33.6923 101.162 34.2253 100.879C34.7583 100.596 35.3699 100.537 35.9473 100.713C37.139 101.078 37.8121 102.344 37.448 103.536C37.4005 103.691 37.3116 103.855 37.1948 104.024C37.3895 103.959 37.5725 103.919 37.7345 103.916C38.9805 103.894 40.0119 104.89 40.0339 106.136C40.0421 106.631 39.8906 107.092 39.6264 107.469C39.2251 108.042 38.5646 108.422 37.8134 108.435C37.6514 108.438 37.4673 108.405 37.2705 108.346C37.393 108.511 37.4875 108.672 37.5403 108.825C37.7849 109.536 37.6536 110.286 37.2523 110.86C36.9882 111.237 36.6068 111.537 36.1391 111.698C34.9607 112.104 33.672 111.475 33.2665 110.297C33.2137 110.144 33.1887 109.958 33.1837 109.753C33.0648 109.92 32.9404 110.06 32.8112 110.158C32.3289 110.521 31.7343 110.675 31.1364 110.591C30.5381 110.507 30.0087 110.195 29.6455 109.713Z" fill="#4ACAD3"/>
<path fill-rule="evenodd" clip-rule="evenodd" d="M35.4027 104.36C35.504 104.028 35.3175 103.677 34.9859 103.576C34.6543 103.475 34.3033 103.661 34.2021 103.993C34.1008 104.324 34.3029 105.81 34.3029 105.81C34.3029 105.81 35.3015 104.691 35.4027 104.36ZM36.3775 106.88C36.7243 106.873 37.0004 106.588 36.9943 106.241C36.9881 105.894 36.7023 105.618 36.3556 105.624C36.0089 105.63 34.6582 106.282 34.6582 106.282C34.6582 106.282 36.0309 106.886 36.3775 106.88ZM33.7446 106.002C33.7446 106.002 32.9892 104.707 32.7051 104.508C32.421 104.309 32.0296 104.378 31.8307 104.662C31.6318 104.946 31.7008 105.338 31.9849 105.537C32.269 105.735 33.7446 106.002 33.7446 106.002ZM35.0803 108.974C35.4082 108.862 35.5823 108.504 35.4695 108.176C35.3567 107.848 34.3195 106.765 34.3195 106.765C34.3195 106.765 34.1693 108.257 34.2822 108.585C34.3951 108.913 34.7524 109.087 35.0803 108.974ZM32.7683 108.122C33.0453 107.914 33.755 106.593 33.755 106.593C33.755 106.593 32.2896 106.911 32.0127 107.119C31.7357 107.328 31.6804 107.722 31.8891 107.999C32.0977 108.276 32.4915 108.331 32.7683 108.122Z" fill="white"/>
</g>
<g filter="url(#filter5_d)">
<path d="M50.9212 109.34L51.0336 108.334L52.0392 108.221C53.2766 108.083 54.2604 107.301 54.6705 106.131C55.1337 104.808 54.6988 103.367 53.5636 102.531L52.749 101.931L53.1542 101.004C53.688 99.7842 53.4345 98.4415 52.4931 97.5001C51.5516 96.5587 50.2089 96.3052 48.9889 96.8387L48.0617 97.2441L47.4618 96.4293C46.6261 95.2956 45.1843 94.8595 43.862 95.3227C42.6917 95.7328 41.9101 96.7165 41.7717 97.954L41.659 98.9596L40.6534 99.0722C39.4157 99.2109 38.432 99.9925 38.0219 101.163C37.6145 102.326 37.8923 103.58 38.7472 104.435L38.7475 104.435C38.8642 104.552 38.9923 104.662 39.1286 104.762L39.9434 105.362L39.5377 106.289C39.0046 107.509 39.2581 108.852 40.1996 109.794C41.141 110.735 42.4837 110.989 43.7037 110.455L44.6311 110.05L45.231 110.865C46.0643 111.999 47.5085 112.434 48.8311 111.972C50.0014 111.561 50.7828 110.577 50.9212 109.34Z" fill="#FDB599"/>
<path fill-rule="evenodd" clip-rule="evenodd" d="M47.5987 105.903C47.6882 106.237 47.49 106.58 47.1561 106.67C46.8222 106.759 46.4787 106.561 46.3895 106.227C46.3002 105.894 46.3462 103.647 46.3462 103.647C46.3462 103.647 45.2629 105.615 45.0185 105.86C44.7744 106.104 44.3778 106.104 44.1334 105.86C43.889 105.615 43.8892 105.219 44.1334 104.975C44.3778 104.73 46.3462 103.647 46.3462 103.647C46.3462 103.647 44.1 103.693 43.7661 103.604C43.4322 103.514 43.234 103.171 43.3235 102.837C43.413 102.503 43.7562 102.305 44.0901 102.395C44.424 102.484 46.3462 103.647 46.3462 103.647C46.3462 103.647 45.1833 101.725 45.0938 101.391C45.0043 101.057 45.2024 100.714 45.5363 100.624C45.8702 100.535 46.2134 100.733 46.3029 101.067C46.3924 101.401 46.3462 103.647 46.3462 103.647C46.3462 103.647 47.4295 101.679 47.6739 101.434C47.9183 101.19 48.3147 101.19 48.559 101.434C48.8034 101.679 48.8034 102.075 48.559 102.319C48.3147 102.564 46.3462 103.647 46.3462 103.647C46.3462 103.647 48.5927 103.601 48.9264 103.69C49.26 103.78 49.4584 104.123 49.3689 104.457C49.2794 104.791 48.9362 104.989 48.6023 104.899C48.2684 104.81 46.3462 103.647 46.3462 103.647C46.3462 103.647 47.5089 105.569 47.5987 105.903Z" fill="white"/>
</g>
<g filter="url(#filter6_d)">
<path d="M82.7509 112.263C83.2678 111.576 83.4866 110.73 83.3672 109.879C83.2478 109.028 82.8038 108.275 82.1182 107.758C81.9332 107.619 81.689 107.504 81.4119 107.407C81.6924 107.32 81.9402 107.214 82.1299 107.081C83.5824 106.064 83.937 104.054 82.9197 102.601C81.9024 101.149 79.8928 100.794 78.4402 101.812C78.2505 101.944 78.0663 102.141 77.888 102.375C77.8916 102.081 77.8673 101.813 77.7994 101.591C77.5483 100.77 76.992 100.095 76.2334 99.6917C75.475 99.2882 74.6047 99.2048 73.783 99.4556C72.087 99.9744 71.1291 101.776 71.6474 103.472C71.715 103.692 71.8415 103.927 72.0077 104.167C71.7306 104.074 71.4702 104.017 71.2397 104.013C69.4664 103.982 67.9987 105.399 67.9674 107.173C67.9557 107.877 68.1713 108.532 68.5473 109.069C69.1184 109.884 70.0583 110.426 71.1274 110.444C71.3579 110.448 71.6198 110.401 71.8999 110.317C71.7256 110.552 71.5911 110.782 71.516 111C71.1678 112.011 71.3547 113.079 71.9257 113.894C72.3017 114.431 72.8444 114.859 73.51 115.088C75.1869 115.665 77.0208 114.77 77.5979 113.093C77.673 112.875 77.7086 112.612 77.7157 112.319C77.8849 112.557 78.0619 112.757 78.2459 112.895C78.9321 113.413 79.7784 113.631 80.6293 113.512C81.4806 113.392 82.234 112.949 82.7509 112.263Z" fill="#F7D30C"/>
<path fill-rule="evenodd" clip-rule="evenodd" d="M74.5577 104.645C74.4136 104.173 74.679 103.673 75.1509 103.529C75.6228 103.385 76.1223 103.65 76.2664 104.122C76.4106 104.594 76.1229 106.708 76.1229 106.708C76.1229 106.708 74.7019 105.116 74.5577 104.645ZM73.1705 108.23C72.6771 108.222 72.2841 107.815 72.2929 107.322C72.3016 106.828 72.7083 106.435 73.2018 106.444C73.6952 106.453 75.6174 107.38 75.6174 107.38C75.6174 107.38 73.6638 108.239 73.1705 108.23ZM76.9173 106.982C76.9173 106.982 77.9924 105.139 78.3967 104.855C78.801 104.572 79.3579 104.671 79.641 105.075C79.9241 105.479 79.8259 106.036 79.4216 106.319C79.0173 106.602 76.9173 106.982 76.9173 106.982ZM75.0167 111.211C74.55 111.051 74.3022 110.543 74.4628 110.076C74.6233 109.609 76.0993 108.068 76.0993 108.068C76.0993 108.068 76.313 110.191 76.1525 110.658C75.9917 111.124 75.4833 111.372 75.0167 111.211ZM78.3068 109.999C77.9127 109.702 76.9026 107.822 76.9026 107.822C76.9026 107.822 78.988 108.275 79.3821 108.572C79.7762 108.869 79.855 109.429 79.5579 109.823C79.2611 110.217 78.7007 110.296 78.3068 109.999Z" fill="white"/>
</g>
<g filter="url(#filter7_d)">
<path d="M73.3539 101.711C74.147 98.6761 70.7486 96.3155 69.4624 95.5461C69.686 94.2709 70.1895 90.0866 67.5206 88.5415C64.8672 87.0054 61.5255 89.4993 60.5161 90.3445C60.429 90.29 60.3268 90.2279 60.2103 90.1605C58.8776 89.389 55.5303 87.8346 53.2353 90.0586C50.7817 92.4353 52.2301 96.1449 52.7812 97.3161C51.8426 98.1901 49.1369 101.051 50.2523 104.092C50.5591 104.931 51.1265 105.594 51.9396 106.065C53.6915 107.079 56.1153 106.915 57.0348 106.807C57.4665 107.624 58.6996 109.724 60.4632 110.745C61.1891 111.165 61.9303 111.359 62.6671 111.321C65.6683 111.165 66.9771 106.976 67.3047 105.708C68.5482 105.536 72.5578 104.753 73.3539 101.711Z" fill="#FF7398"/>
<path fill-rule="evenodd" clip-rule="evenodd" d="M61.8909 99.1281C61.8909 99.1281 63.4925 102.687 62.0445 102.914C60.5953 103.14 61.4098 99.1796 61.4098 99.1796C61.4098 99.1796 58.3187 101.791 57.8675 100.496C57.4157 99.2011 61.2147 98.7366 61.2147 98.7366C61.2147 98.7366 57.7429 96.697 58.8704 95.7652C59.9979 94.8335 61.5721 98.4129 61.5721 98.4129C61.5721 98.4129 62.4173 94.5363 63.6673 95.2599C64.9173 95.9836 61.9908 98.6553 61.9908 98.6553C61.9908 98.6553 65.8491 98.2251 65.6284 99.6776C65.409 101.13 61.8909 99.1281 61.8909 99.1281Z" fill="white"/>
</g>
<rect x="82.8561" y="144.069" width="0.869278" height="16.951" rx="0.434639" fill="#E6E6E6"/>
<path d="M87.6372 160.15H83.5386L86.3333 152.761H81.5522L78.9444 161.889H82.698L80.683 170.147L87.6372 160.15Z" fill="#9177FF"/>
</g>
<path fill-rule="evenodd" clip-rule="evenodd" d="M141.098 103.647C127.656 103.647 116.758 114.544 116.758 127.987V130.667C114.291 131.081 112.412 133.226 112.412 135.81V141.895C112.412 144.526 114.359 146.701 116.891 147.059C117.789 155.668 123.175 162.942 130.667 166.501V174.559C112.235 175.682 97.634 190.985 97.634 209.699H184.562C184.562 190.985 169.961 175.682 151.529 174.559V166.501C159.022 162.942 164.407 155.668 165.305 147.059C167.837 146.702 169.784 144.526 169.784 141.895V135.81C169.784 133.226 167.905 131.081 165.438 130.667V127.987C165.438 114.544 154.541 103.647 141.098 103.647Z" fill="#D0C6AC"/>
<mask id="mask12" mask-type="alpha" maskUnits="userSpaceOnUse" x="97" y="103" width="88" height="107">
<path fill-rule="evenodd" clip-rule="evenodd" d="M141.098 103.647C127.656 103.647 116.758 114.544 116.758 127.987V130.667C114.291 131.081 112.412 133.226 112.412 135.81V141.895C112.412 144.526 114.359 146.701 116.891 147.059C117.789 155.668 123.175 162.942 130.667 166.501V174.559C112.235 175.682 97.634 190.985 97.634 209.699H184.562C184.562 190.985 169.961 175.682 151.529 174.559V166.501C159.022 162.942 164.407 155.668 165.305 147.059C167.837 146.702 169.784 144.526 169.784 141.895V135.81C169.784 133.226 167.905 131.081 165.438 130.667V127.987C165.438 114.544 154.541 103.647 141.098 103.647Z" fill="white"/>
</mask>
<g mask="url(#mask12)">
<rect x="83.7255" y="103.647" width="114.745" height="106.052" fill="#D08B5B"/>
<path fill-rule="evenodd" clip-rule="evenodd" d="M116.758 144.503V147.98C116.758 161.423 127.656 172.32 141.098 172.32C154.541 172.32 165.438 161.423 165.438 147.98V144.503C165.438 157.946 154.541 168.843 141.098 168.843C127.656 168.843 116.758 157.946 116.758 144.503Z" fill="black" fill-opacity="0.1"/>
</g>
<path fill-rule="evenodd" clip-rule="evenodd" d="M152.833 175.82C152.833 181.821 147.579 186.686 141.098 186.686C134.617 186.686 129.363 181.821 129.363 175.82C129.363 175.434 129.385 175.053 129.427 174.677C111.586 176.383 97.634 191.412 97.634 209.699H184.562C184.562 191.412 170.61 176.383 152.769 174.677C152.812 175.053 152.833 175.434 152.833 175.82Z" fill="#E6E6E6"/>
<mask id="mask13" mask-type="alpha" maskUnits="userSpaceOnUse" x="97" y="174" width="88" height="36">
<path fill-rule="evenodd" clip-rule="evenodd" d="M152.833 175.82C152.833 181.821 147.579 186.686 141.098 186.686C134.617 186.686 129.363 181.821 129.363 175.82C129.363 175.434 129.385 175.053 129.427 174.677C111.586 176.383 97.634 191.412 97.634 209.699H184.562C184.562 191.412 170.61 176.383 152.769 174.677C152.812 175.053 152.833 175.434 152.833 175.82Z" fill="white"/>
</mask>
<g mask="url(#mask13)">
<rect x="83.7255" y="161.889" width="114.745" height="47.8105" fill="#3C4F5C"/>
</g>
<path fill-rule="evenodd" clip-rule="evenodd" d="M130.667 171.265C127.725 173.265 125.886 176.119 125.886 179.287C125.886 182.502 127.781 185.394 130.801 187.399L133.457 185.306L135.448 185.45L135.013 184.08L135.047 184.054C132.396 182.688 130.667 180.448 130.667 177.917C130.667 177.917 130.667 177.917 130.667 177.917V171.265ZM151.529 177.917C151.529 180.448 149.801 182.688 147.149 184.054L147.183 184.08L146.748 185.45L148.739 185.306L151.194 187.24C154.078 185.244 155.876 182.419 155.876 179.287C155.876 176.278 154.216 173.553 151.529 171.573V177.917Z" fill="#F2F2F2"/>
<path fill-rule="evenodd" clip-rule="evenodd" d="M135.013 152.761C135.013 156.122 137.737 158.846 141.098 158.846C144.459 158.846 147.183 156.122 147.183 152.761" fill="black" fill-opacity="0.7"/>
<path fill-rule="evenodd" clip-rule="evenodd" d="M135.882 144.503C135.882 146.424 138.217 147.981 141.098 147.981C143.979 147.981 146.314 146.424 146.314 144.503" fill="black" fill-opacity="0.16"/>
<path fill-rule="evenodd" clip-rule="evenodd" d="M129.797 139.288C131.238 139.288 132.405 138.12 132.405 136.68C132.405 135.24 131.238 134.072 129.797 134.072C128.357 134.072 127.19 135.24 127.19 136.68C127.19 138.12 128.357 139.288 129.797 139.288Z" fill="black" fill-opacity="0.6"/>
<path fill-rule="evenodd" clip-rule="evenodd" d="M152.399 139.288C153.839 139.288 155.007 138.12 155.007 136.68C155.007 135.24 153.839 134.072 152.399 134.072C150.958 134.072 149.791 135.24 149.791 136.68C149.791 138.12 150.958 139.288 152.399 139.288Z" fill="black" fill-opacity="0.6"/>
<path d="M123.552 131.098C125.253 128.704 129.918 127.362 133.936 128.348C134.403 128.463 134.873 128.178 134.988 127.711C135.102 127.245 134.817 126.774 134.351 126.66C129.685 125.514 124.283 127.069 122.135 130.091C121.856 130.483 121.948 131.025 122.34 131.303C122.731 131.582 123.274 131.49 123.552 131.098Z" fill="black" fill-opacity="0.6"/>
<path d="M158.644 131.098C156.943 128.704 152.278 127.362 148.26 128.348C147.793 128.463 147.323 128.178 147.208 127.711C147.094 127.245 147.379 126.774 147.845 126.66C152.512 125.514 157.913 127.069 160.062 130.091C160.34 130.483 160.248 131.025 159.857 131.303C159.465 131.582 158.923 131.49 158.644 131.098Z" fill="black" fill-opacity="0.6"/>
<mask id="mask14" mask-type="alpha" maskUnits="userSpaceOnUse" x="83" y="88" width="116" height="122">
<rect x="83.7255" y="88" width="114.745" height="121.699" fill="white"/>
</mask>
<g mask="url(#mask14)">
<path fill-rule="evenodd" clip-rule="evenodd" d="M163.126 104.929C165.475 102.777 166.041 98.4147 164.707 95.5842C163.069 92.1091 159.745 91.6737 156.559 93.2021C153.557 94.6429 150.884 95.1229 147.596 94.4248C144.441 93.755 141.448 92.5736 138.187 92.3796C132.83 92.0608 127.626 94.0479 123.975 98.0529C123.278 98.817 122.717 99.6906 122.186 100.576C121.762 101.285 121.283 102.045 121.102 102.861C121.017 103.25 121.176 104.208 120.983 104.526C120.774 104.869 119.985 105.185 119.649 105.439C118.968 105.956 118.378 106.539 117.832 107.199C116.674 108.599 116.036 110.061 115.499 111.793C113.716 117.55 113.565 124.397 115.87 130.05C116.178 130.804 117.13 132.376 117.69 130.762C117.8 130.443 117.544 129.374 117.545 129.052C117.547 127.87 118.2 120.042 121.043 115.658C121.968 114.23 126.246 108.885 127.12 108.843C127.583 109.578 132.284 114.279 144.481 113.729C149.984 113.48 154.217 111.007 155.233 109.936C155.68 112.34 160.88 115.94 161.672 117.422C163.961 121.701 164.469 130.593 165.343 130.576C166.217 130.56 166.844 128.3 167.024 127.868C168.359 124.663 168.586 120.639 168.443 117.194C168.258 112.76 166.427 107.968 163.126 104.929Z" fill="#28354B"/>
<mask id="mask15" mask-type="alpha" maskUnits="userSpaceOnUse" x="114" y="92" width="55" height="40">
<path fill-rule="evenodd" clip-rule="evenodd" d="M163.126 104.929C165.475 102.777 166.041 98.4147 164.707 95.5842C163.069 92.1091 159.745 91.6737 156.559 93.2021C153.557 94.6429 150.884 95.1229 147.596 94.4248C144.441 93.755 141.448 92.5736 138.187 92.3796C132.83 92.0608 127.626 94.0479 123.975 98.0529C123.278 98.817 122.717 99.6906 122.186 100.576C121.762 101.285 121.283 102.045 121.102 102.861C121.017 103.25 121.176 104.208 120.983 104.526C120.774 104.869 119.985 105.185 119.649 105.439C118.968 105.956 118.378 106.539 117.832 107.199C116.674 108.599 116.036 110.061 115.499 111.793C113.716 117.55 113.565 124.397 115.87 130.05C116.178 130.804 117.13 132.376 117.69 130.762C117.8 130.443 117.544 129.374 117.545 129.052C117.547 127.87 118.2 120.042 121.043 115.658C121.968 114.23 126.246 108.885 127.12 108.843C127.583 109.578 132.284 114.279 144.481 113.729C149.984 113.48 154.217 111.007 155.233 109.936C155.68 112.34 160.88 115.94 161.672 117.422C163.961 121.701 164.469 130.593 165.343 130.576C166.217 130.56 166.844 128.3 167.024 127.868C168.359 124.663 168.586 120.639 168.443 117.194C168.258 112.76 166.427 107.968 163.126 104.929Z" fill="white"/>
</mask>
<g mask="url(#mask15)">
<rect x="83.7256" y="88" width="114.745" height="121.699" fill="#724133"/>
</g>
<g filter="url(#filter8_d)">
<path fill-rule="evenodd" clip-rule="evenodd" d="M126.426 145.807H127.624C134.023 145.807 138.49 142.142 138.49 136.897C138.49 132.388 137.7 127.987 128.263 127.987H126.985C117.548 127.987 116.758 132.388 116.758 136.897C116.758 142.476 120.372 145.807 126.426 145.807ZM118.497 137.332C118.497 133.568 118.497 130.595 126.922 130.595H128.326C136.752 130.595 136.752 133.568 136.752 137.332C136.752 141.299 132.998 144.069 127.624 144.069H126.308C119.851 144.069 118.497 140.405 118.497 137.332Z" fill="#252C2F"/>
<path fill-rule="evenodd" clip-rule="evenodd" d="M153.373 145.807H154.572C160.97 145.807 165.438 142.142 165.438 136.897C165.438 132.388 164.648 127.987 155.211 127.987H153.933C144.496 127.987 143.706 132.388 143.706 136.897C143.706 142.476 147.32 145.807 153.373 145.807ZM145.444 137.332C145.444 133.568 145.444 130.595 153.87 130.595H155.274C163.699 130.595 163.699 133.568 163.699 137.332C163.699 141.299 159.946 144.069 154.572 144.069H153.255C146.8 144.069 145.444 140.405 145.444 137.332Z" fill="#252C2F"/>
<path d="M114.131 130.495C114.431 130.202 117.719 127.987 126.972 127.987C134.731 127.987 136.374 128.792 138.86 130.009L139.042 130.099C139.215 130.16 140.099 130.46 141.132 130.493C142.074 130.452 142.88 130.197 143.116 130.115C145.953 128.735 148.731 127.987 155.224 127.987C164.478 127.987 167.765 130.202 168.066 130.495C168.776 130.495 169.35 131.056 169.35 131.75V133.004C169.35 133.698 168.776 134.258 168.066 134.258C168.066 134.258 165.066 134.258 165.066 135.512C165.066 136.767 164.213 133.698 164.213 133.004V131.782C162.647 131.183 159.843 130.067 155.224 130.067C150.077 130.067 147.514 130.98 145.315 131.886L145.34 131.945L145.339 132.809L144.375 135.134L143.185 134.663C143.078 134.621 142.849 134.546 142.531 134.467C141.644 134.249 140.732 134.182 139.926 134.347C139.631 134.408 139.356 134.499 139.104 134.622L137.956 135.184L136.807 132.94L136.858 131.943L136.893 131.858C134.997 130.974 133.248 130.067 126.972 130.067C122.353 130.067 119.55 131.182 117.983 131.782V133.004C117.983 133.698 116.699 136.767 116.699 135.512C116.699 134.258 114.131 134.258 114.131 134.258C113.422 134.258 112.846 133.698 112.846 133.004V131.75C112.846 131.056 113.422 130.495 114.131 130.495Z" fill="#252C2F"/>
</g>
</g>
<path fill-rule="evenodd" clip-rule="evenodd" d="M224.549 103.647C211.107 103.647 200.209 114.544 200.209 127.987V130.667C197.742 131.081 195.863 133.226 195.863 135.81V141.895C195.863 144.526 197.81 146.701 200.342 147.059C201.24 155.668 206.626 162.942 214.118 166.501V174.559C195.686 175.682 181.085 190.985 181.085 209.699H268.013C268.013 190.985 253.412 175.682 234.98 174.559V166.501C242.472 162.942 247.858 155.668 248.756 147.059C251.288 146.702 253.235 144.526 253.235 141.895V135.81C253.235 133.226 251.356 131.081 248.889 130.667V127.987C248.889 114.544 237.992 103.647 224.549 103.647Z" fill="#D0C6AC"/>
<mask id="mask16" mask-type="alpha" maskUnits="userSpaceOnUse" x="181" y="103" width="88" height="107">
<path fill-rule="evenodd" clip-rule="evenodd" d="M224.549 103.647C211.107 103.647 200.209 114.544 200.209 127.987V130.667C197.742 131.081 195.863 133.226 195.863 135.81V141.895C195.863 144.526 197.81 146.701 200.342 147.059C201.24 155.668 206.626 162.942 214.118 166.501V174.559C195.686 175.682 181.085 190.985 181.085 209.699H268.013C268.013 190.985 253.412 175.682 234.98 174.559V166.501C242.472 162.942 247.858 155.668 248.756 147.059C251.288 146.702 253.235 144.526 253.235 141.895V135.81C253.235 133.226 251.356 131.081 248.889 130.667V127.987C248.889 114.544 237.992 103.647 224.549 103.647Z" fill="white"/>
</mask>
<g mask="url(#mask16)">
<rect x="167.177" y="103.647" width="114.745" height="106.052" fill="#AE5D29"/>
<path fill-rule="evenodd" clip-rule="evenodd" d="M200.209 144.503V147.98C200.209 161.423 211.107 172.32 224.549 172.32C237.992 172.32 248.889 161.423 248.889 147.98V144.503C248.889 157.946 237.992 168.843 224.549 168.843C211.107 168.843 200.209 157.946 200.209 144.503Z" fill="black" fill-opacity="0.1"/>
</g>
<path fill-rule="evenodd" clip-rule="evenodd" d="M214.118 167.57C206.25 168.45 200.209 170.87 200.209 177.135C200.209 177.542 200.235 177.942 200.285 178.334C188.887 184.162 181.085 196.02 181.085 209.699H268.013C268.013 196.02 260.211 184.162 248.814 178.334C248.863 177.942 248.889 177.542 248.889 177.135C248.889 170.87 242.848 168.45 234.98 167.57V175.797C234.98 181.559 230.31 186.229 224.549 186.229C218.788 186.229 214.118 181.559 214.118 175.797V167.57Z" fill="#B7C1DB"/>
<mask id="mask17" mask-type="alpha" maskUnits="userSpaceOnUse" x="181" y="167" width="88" height="43">
<path fill-rule="evenodd" clip-rule="evenodd" d="M214.118 167.57C206.25 168.45 200.209 170.87 200.209 177.135C200.209 177.542 200.235 177.942 200.285 178.334C188.887 184.162 181.085 196.02 181.085 209.699H268.013C268.013 196.02 260.211 184.162 248.814 178.334C248.863 177.942 248.889 177.542 248.889 177.135C248.889 170.87 242.848 168.45 234.98 167.57V175.797C234.98 181.559 230.31 186.229 224.549 186.229C218.788 186.229 214.118 181.559 214.118 175.797V167.57Z" fill="white"/>
</mask>
<g mask="url(#mask17)">
<rect x="167.177" y="161.889" width="114.745" height="47.8105" fill="#65C9FF"/>
<path fill-rule="evenodd" clip-rule="evenodd" d="M208.467 187.163C209.425 187.733 210.444 188.255 211.51 188.723V209.699H208.467V187.163ZM240.631 187.163C239.673 187.733 238.655 188.255 237.588 188.723V204.701C237.588 205.541 238.269 206.222 239.11 206.222C239.95 206.222 240.631 205.541 240.631 204.701V187.163Z" fill="#F4F4F4"/>
<path fill-rule="evenodd" clip-rule="evenodd" d="M248.889 175.396C248.889 184.259 236.797 191.444 224.549 191.444C212.301 191.444 200.209 184.259 200.209 175.396C200.209 171.323 202.763 168.876 206.711 167.419C200.17 168.657 195.645 171.122 195.645 175.931C195.645 184.499 210.005 191.444 224.549 191.444C239.093 191.444 253.453 184.499 253.453 175.931C253.453 171.122 248.928 168.657 242.387 167.419C246.335 168.876 248.889 171.323 248.889 175.396Z" fill="black" fill-opacity="0.16"/>
</g>
<path d="M218.464 153.196C218.464 155.531 221.141 157.108 224.549 157.108C227.957 157.108 230.634 155.531 230.634 153.196C230.634 152.716 230.221 152.327 229.765 152.327C229.203 152.327 228.952 152.72 228.895 153.196C228.355 154.473 227.019 155.246 224.549 155.369C222.079 155.246 220.743 154.473 220.203 153.196C220.146 152.72 219.895 152.327 219.333 152.327C218.877 152.327 218.464 152.716 218.464 153.196Z" fill="black" fill-opacity="0.6"/>
<path fill-rule="evenodd" clip-rule="evenodd" d="M219.333 144.503C219.333 146.424 221.668 147.981 224.549 147.981C227.43 147.981 229.765 146.424 229.765 144.503" fill="black" fill-opacity="0.16"/>
<path fill-rule="evenodd" clip-rule="evenodd" d="M207.233 139.093C208.036 140.744 209.843 141.896 211.943 141.896C214.037 141.896 215.838 140.752 216.645 139.111C216.885 138.623 216.544 138.224 216.2 138.52C215.134 139.436 213.622 140.008 211.943 140.008C210.318 140.008 208.847 139.471 207.788 138.605C207.401 138.288 206.998 138.61 207.233 139.093Z" fill="black" fill-opacity="0.6"/>
<path fill-rule="evenodd" clip-rule="evenodd" d="M232.442 139.093C233.245 140.744 235.052 141.896 237.153 141.896C239.246 141.896 241.048 140.752 241.854 139.111C242.094 138.623 241.753 138.224 241.409 138.52C240.344 139.436 238.831 140.008 237.153 140.008C235.527 140.008 234.056 139.471 232.997 138.605C232.61 138.288 232.207 138.61 232.442 139.093Z" fill="black" fill-opacity="0.6"/>
<path d="M207.003 131.098C208.704 128.704 213.369 127.362 217.387 128.348C217.854 128.463 218.324 128.178 218.439 127.711C218.553 127.245 218.268 126.774 217.802 126.66C213.135 125.514 207.734 127.069 205.586 130.091C205.307 130.483 205.399 131.025 205.791 131.303C206.182 131.582 206.725 131.49 207.003 131.098Z" fill="black" fill-opacity="0.6"/>
<path d="M242.095 131.098C240.394 128.704 235.729 127.362 231.711 128.348C231.244 128.463 230.774 128.178 230.659 127.711C230.545 127.245 230.83 126.774 231.296 126.66C235.963 125.514 241.364 127.069 243.513 130.091C243.791 130.483 243.699 131.025 243.308 131.303C242.916 131.582 242.374 131.49 242.095 131.098Z" fill="black" fill-opacity="0.6"/>
<mask id="mask18" mask-type="alpha" maskUnits="userSpaceOnUse" x="167" y="88" width="115" height="122">
<rect x="167.177" y="88" width="114.745" height="121.699" fill="white"/>
</mask>
<g mask="url(#mask18)">
<path fill-rule="evenodd" clip-rule="evenodd" d="M275.402 118.642C275.402 118.99 275.388 119.334 275.36 119.674C278.393 123.836 280.183 128.962 280.183 134.507C280.183 137.617 279.62 140.597 278.589 143.348C278.779 144.21 278.879 145.105 278.879 146.025C278.879 150.279 276.734 154.032 273.467 156.262C269.681 163.972 261.752 169.278 252.583 169.278C251.73 169.278 250.887 169.232 250.058 169.142C247.317 171.399 243.806 172.755 239.979 172.755C238.232 172.755 236.552 172.473 234.98 171.951V166.501C242.6 162.881 248.041 155.419 248.798 146.619C251.309 146.243 253.235 144.077 253.235 141.461V135.81C253.235 133.226 251.356 131.081 248.889 130.667V127.987C248.889 125.622 248.552 123.336 247.922 121.174L248.521 126.768L243.592 116.336L223.974 107.85L210.885 112.439L201.541 121.215L201.522 120.081C200.671 122.56 200.209 125.219 200.209 127.987V130.667C197.742 131.081 195.863 133.226 195.863 135.81V141.461C195.863 144.077 197.789 146.243 200.3 146.619C201.058 155.419 206.498 162.881 214.118 166.501V171.258C212.073 172.218 209.789 172.755 207.381 172.755C203.553 172.755 200.042 171.399 197.302 169.142C196.472 169.232 195.63 169.278 194.776 169.278C185.608 169.278 177.679 163.972 173.892 156.262C170.625 154.032 168.48 150.279 168.48 146.025C168.48 145.105 168.581 144.21 168.77 143.348C167.74 140.597 167.177 137.617 167.177 134.507C167.177 128.962 168.966 123.836 172 119.674C171.972 119.334 171.958 118.99 171.958 118.642C171.958 113.732 174.815 109.489 178.957 107.485C182.622 99.6056 190.455 94.0571 199.622 93.6718C201.853 91.5064 204.896 90.1732 208.25 90.1732C209.261 90.1732 210.245 90.2944 211.186 90.5231C215.324 88.8945 219.832 88 224.549 88C229.046 88 233.353 88.813 237.331 90.2999C237.912 90.2164 238.506 90.1732 239.11 90.1732C242.464 90.1732 245.507 91.5064 247.737 93.6718C256.905 94.0571 264.737 99.6056 268.402 107.485C272.545 109.489 275.402 113.732 275.402 118.642Z" fill="#314756"/>
<mask id="mask19" mask-type="alpha" maskUnits="userSpaceOnUse" x="167" y="88" width="114" height="85">
<path fill-rule="evenodd" clip-rule="evenodd" d="M275.402 118.642C275.402 118.99 275.388 119.334 275.36 119.674C278.393 123.836 280.183 128.962 280.183 134.507C280.183 137.617 279.62 140.597 278.589 143.348C278.779 144.21 278.879 145.105 278.879 146.025C278.879 150.279 276.734 154.032 273.467 156.262C269.681 163.972 261.752 169.278 252.583 169.278C251.73 169.278 250.887 169.232 250.058 169.142C247.317 171.399 243.806 172.755 239.979 172.755C238.232 172.755 236.552 172.473 234.98 171.951V166.501C242.6 162.881 248.041 155.419 248.798 146.619C251.309 146.243 253.235 144.077 253.235 141.461V135.81C253.235 133.226 251.356 131.081 248.889 130.667V127.987C248.889 125.622 248.552 123.336 247.922 121.174L248.521 126.768L243.592 116.336L223.974 107.85L210.885 112.439L201.541 121.215L201.522 120.081C200.671 122.56 200.209 125.219 200.209 127.987V130.667C197.742 131.081 195.863 133.226 195.863 135.81V141.461C195.863 144.077 197.789 146.243 200.3 146.619C201.058 155.419 206.498 162.881 214.118 166.501V171.258C212.073 172.218 209.789 172.755 207.381 172.755C203.553 172.755 200.042 171.399 197.302 169.142C196.472 169.232 195.63 169.278 194.776 169.278C185.608 169.278 177.679 163.972 173.892 156.262C170.625 154.032 168.48 150.279 168.48 146.025C168.48 145.105 168.581 144.21 168.77 143.348C167.74 140.597 167.177 137.617 167.177 134.507C167.177 128.962 168.966 123.836 172 119.674C171.972 119.334 171.958 118.99 171.958 118.642C171.958 113.732 174.815 109.489 178.957 107.485C182.622 99.6056 190.455 94.0571 199.622 93.6718C201.853 91.5064 204.896 90.1732 208.25 90.1732C209.261 90.1732 210.245 90.2944 211.186 90.5231C215.324 88.8945 219.832 88 224.549 88C229.046 88 233.353 88.813 237.331 90.2999C237.912 90.2164 238.506 90.1732 239.11 90.1732C242.464 90.1732 245.507 91.5064 247.737 93.6718C256.905 94.0571 264.737 99.6056 268.402 107.485C272.545 109.489 275.402 113.732 275.402 118.642Z" fill="white"/>
</mask>
<g mask="url(#mask19)">
<rect x="167.177" y="88" width="114.745" height="121.699" fill="#2C1B18"/>
</g>
<path fill-rule="evenodd" clip-rule="evenodd" d="M200.049 131.018C201.826 120.113 212.021 111.751 224.332 111.751C236.642 111.751 246.837 120.113 248.614 131.018C248.795 129.909 248.889 128.774 248.889 127.618C248.889 115.099 237.894 104.951 224.332 104.951C210.769 104.951 199.775 115.099 199.775 127.618C199.775 128.774 199.868 129.909 200.049 131.018Z" fill="#92D9FF"/>
<g filter="url(#filter9_d)">
<path fill-rule="evenodd" clip-rule="evenodd" d="M211.075 147.111C205.314 147.111 200.644 142.441 200.644 136.68C200.644 135.621 200.801 134.6 201.094 133.637H198.253C197.653 133.637 197.167 133.151 197.167 132.551C197.167 131.95 197.653 131.464 198.253 131.464H201.73C201.83 131.464 201.926 131.477 202.017 131.502C203.815 128.363 207.198 126.248 211.075 126.248C215.14 126.248 218.662 128.573 220.383 131.966C221.286 130.612 222.788 129.725 224.489 129.725C226.233 129.725 227.768 130.657 228.663 132.07C230.365 128.621 233.917 126.248 238.023 126.248C241.9 126.248 245.283 128.363 247.081 131.502C247.172 131.477 247.268 131.464 247.368 131.464H250.845C251.445 131.464 251.931 131.95 251.931 132.551C251.931 133.151 251.445 133.637 250.845 133.637H248.004C248.297 134.6 248.454 135.621 248.454 136.68C248.454 142.441 243.784 147.111 238.023 147.111C232.262 147.111 227.592 142.441 227.592 136.68C227.592 136.062 227.645 135.456 227.748 134.868C227.712 132.966 226.25 131.464 224.489 131.464C222.865 131.464 221.496 132.742 221.264 134.433C221.423 135.156 221.507 135.908 221.507 136.68C221.507 142.441 216.836 147.111 211.075 147.111ZM211.075 145.372C215.876 145.372 219.768 141.481 219.768 136.68C219.768 131.879 215.876 127.987 211.075 127.987C206.274 127.987 202.382 131.879 202.382 136.68C202.382 141.481 206.274 145.372 211.075 145.372ZM246.716 136.68C246.716 141.481 242.824 145.372 238.023 145.372C233.222 145.372 229.33 141.481 229.33 136.68C229.33 131.879 233.222 127.987 238.023 127.987C242.824 127.987 246.716 131.879 246.716 136.68Z" fill="#252C2F"/>
</g>
</g>
<path fill-rule="evenodd" clip-rule="evenodd" d="M99.3726 192.647C85.93 192.647 75.0327 203.544 75.0327 216.987V219.667C72.5659 220.081 70.6863 222.226 70.6863 224.81V230.895C70.6863 233.526 72.6336 235.701 75.1653 236.059C76.0637 244.668 81.4491 251.942 88.9412 255.501V263.559C70.5097 264.682 55.9085 279.985 55.9085 298.699H142.837C142.837 279.985 128.235 264.682 109.804 263.559V255.501C117.296 251.942 122.681 244.668 123.58 236.059C126.111 235.702 128.059 233.526 128.059 230.895V224.81C128.059 222.226 126.179 220.081 123.712 219.667V216.987C123.712 203.544 112.815 192.647 99.3726 192.647Z" fill="#D0C6AC"/>
<mask id="mask20" mask-type="alpha" maskUnits="userSpaceOnUse" x="55" y="192" width="88" height="107">
<path fill-rule="evenodd" clip-rule="evenodd" d="M99.3726 192.647C85.93 192.647 75.0327 203.544 75.0327 216.987V219.667C72.5659 220.081 70.6863 222.226 70.6863 224.81V230.895C70.6863 233.526 72.6336 235.701 75.1653 236.059C76.0637 244.668 81.4491 251.942 88.9412 255.501V263.559C70.5097 264.682 55.9085 279.985 55.9085 298.699H142.837C142.837 279.985 128.235 264.682 109.804 263.559V255.501C117.296 251.942 122.681 244.668 123.58 236.059C126.111 235.702 128.059 233.526 128.059 230.895V224.81C128.059 222.226 126.179 220.081 123.712 219.667V216.987C123.712 203.544 112.815 192.647 99.3726 192.647Z" fill="white"/>
</mask>
<g mask="url(#mask20)">
<rect x="42" y="192.647" width="114.745" height="106.052" fill="#FFDBB4"/>
<path fill-rule="evenodd" clip-rule="evenodd" d="M75.0327 233.503V236.98C75.0327 250.423 85.93 261.32 99.3726 261.32C112.815 261.32 123.712 250.423 123.712 236.98V233.503C123.712 246.946 112.815 257.843 99.3726 257.843C85.93 257.843 75.0327 246.946 75.0327 233.503Z" fill="black" fill-opacity="0.1"/>
</g>
<path fill-rule="evenodd" clip-rule="evenodd" d="M71.5555 298.699V269.422C74.9514 267.149 78.7647 265.451 82.8562 264.467V283.052H115.889V264.467C119.98 265.451 123.794 267.149 127.19 269.422V298.699H71.5555Z" fill="#B7C1DB"/>
<mask id="mask21" mask-type="alpha" maskUnits="userSpaceOnUse" x="71" y="264" width="57" height="35">
<path fill-rule="evenodd" clip-rule="evenodd" d="M71.5555 298.699V269.422C74.9514 267.149 78.7647 265.451 82.8562 264.467V283.052H115.889V264.467C119.98 265.451 123.794 267.149 127.19 269.422V298.699H71.5555Z" fill="white"/>
</mask>
<g mask="url(#mask21)">
<rect x="42" y="250.889" width="114.745" height="47.8105" fill="#5199E4"/>
</g>
<path fill-rule="evenodd" clip-rule="evenodd" d="M77.2059 289.137C78.4061 289.137 79.3791 288.164 79.3791 286.964C79.3791 285.764 78.4061 284.791 77.2059 284.791C76.0056 284.791 75.0327 285.764 75.0327 286.964C75.0327 288.164 76.0056 289.137 77.2059 289.137Z" fill="#F4F4F4"/>
<path fill-rule="evenodd" clip-rule="evenodd" d="M121.539 289.137C122.739 289.137 123.712 288.164 123.712 286.964C123.712 285.764 122.739 284.791 121.539 284.791C120.339 284.791 119.366 285.764 119.366 286.964C119.366 288.164 120.339 289.137 121.539 289.137Z" fill="#F4F4F4"/>
<rect width="46.9412" height="19.1242" transform="translate(75.9019 235.242)" fill="#D08B5B"/>
<rect x="85.464" y="238.284" width="27.817" height="11.3007" rx="5.65033" fill="black" fill-opacity="0.6"/>
<rect x="86.3333" y="239.154" width="26.0784" height="9.56209" rx="4.78105" fill="white"/>
<mask id="mask22" mask-type="alpha" maskUnits="userSpaceOnUse" x="86" y="239" width="27" height="10">
<rect x="86.3333" y="239.154" width="26.0784" height="9.56209" rx="4.78105" fill="white"/>
</mask>
<g mask="url(#mask22)">
<path fill-rule="evenodd" clip-rule="evenodd" d="M89.8105 237.85H91.549V243.066H95.4608V237.85H97.1993V243.066H101.111V237.85H102.85V243.066H106.761V237.85H108.5V243.066H112.354V244.804H108.5V250.02H106.761V244.804H102.85V250.02H101.111V244.804H97.1993V250.02H95.4608V244.804H91.549V250.02H89.8105V244.804H86.3333V243.066H89.8105V237.85Z" fill="#E6E6E6"/>
</g>
<path fill-rule="evenodd" clip-rule="evenodd" d="M94.1568 233.503C94.1568 235.424 96.4919 236.981 99.3725 236.981C102.253 236.981 104.588 235.424 104.588 233.503" fill="black" fill-opacity="0.16"/>
<path fill-rule="evenodd" clip-rule="evenodd" d="M88.0719 228.288C89.5122 228.288 90.6797 227.12 90.6797 225.68C90.6797 224.24 89.5122 223.072 88.0719 223.072C86.6316 223.072 85.4641 224.24 85.4641 225.68C85.4641 227.12 86.6316 228.288 88.0719 228.288Z" fill="black" fill-opacity="0.6"/>
<path fill-rule="evenodd" clip-rule="evenodd" d="M110.673 228.288C112.113 228.288 113.281 227.12 113.281 225.68C113.281 224.24 112.113 223.072 110.673 223.072C109.233 223.072 108.065 224.24 108.065 225.68C108.065 227.12 109.233 228.288 110.673 228.288Z" fill="black" fill-opacity="0.6"/>
<path d="M81.8262 220.098C83.5277 217.704 88.1926 216.362 92.2109 217.348C92.6772 217.463 93.1479 217.178 93.2624 216.711C93.3769 216.245 93.0918 215.774 92.6255 215.66C87.959 214.514 82.5572 216.069 80.409 219.091C80.1309 219.483 80.2227 220.025 80.614 220.303C81.0053 220.582 81.548 220.49 81.8262 220.098Z" fill="black" fill-opacity="0.6"/>
<path d="M116.919 220.098C115.217 217.704 110.552 216.362 106.534 217.348C106.068 217.463 105.597 217.178 105.483 216.711C105.368 216.245 105.653 215.774 106.12 215.66C110.786 214.514 116.188 216.069 118.336 219.091C118.614 219.483 118.522 220.025 118.131 220.303C117.74 220.582 117.197 220.49 116.919 220.098Z" fill="black" fill-opacity="0.6"/>
<mask id="mask23" mask-type="alpha" maskUnits="userSpaceOnUse" x="42" y="177" width="115" height="122">
<rect x="42" y="177" width="114.745" height="121.699" fill="white"/>
</mask>
<g mask="url(#mask23)">
<path fill-rule="evenodd" clip-rule="evenodd" d="M71.9901 285.66C74.1505 285.66 75.9019 283.909 75.9019 281.748C75.9019 279.588 74.1505 277.837 71.9901 277.837C69.8297 277.837 68.0784 279.588 68.0784 281.748C68.0784 283.909 69.8297 285.66 71.9901 285.66Z" fill="#F4F4F4"/>
<rect x="71.5555" y="253.497" width="0.86928" height="25.2092" fill="#F4F4F4"/>
<path fill-rule="evenodd" clip-rule="evenodd" d="M126.755 282.183C128.915 282.183 130.667 280.432 130.667 278.271C130.667 276.111 128.915 274.359 126.755 274.359C124.594 274.359 122.843 276.111 122.843 278.271C122.843 280.432 124.594 282.183 126.755 282.183Z" fill="#F4F4F4"/>
<rect x="126.32" y="250.02" width="0.869278" height="25.2091" fill="#F4F4F4"/>
<path fill-rule="evenodd" clip-rule="evenodd" d="M99.3725 194.386C104.173 194.386 108.065 190.494 108.065 185.693C108.065 180.892 104.173 177 99.3725 177C94.5716 177 90.6797 180.892 90.6797 185.693C90.6797 190.494 94.5716 194.386 99.3725 194.386Z" fill="#F4F4F4"/>
<path fill-rule="evenodd" clip-rule="evenodd" d="M82.1818 210.7H99.3725H116.563C119.207 210.7 120.829 211.971 120.829 214.611V249.145C120.829 262.384 130.667 262.365 130.667 253.892V221.787C130.667 206.905 123.179 186.127 99.3725 186.127C75.5661 186.127 68.0784 206.905 68.0784 221.787V253.892C68.0784 262.365 77.9156 262.384 77.9156 249.145V214.611C77.9156 211.971 79.5376 210.7 82.1818 210.7Z" fill="#F4F4F4"/>
<mask id="mask24" mask-type="alpha" maskUnits="userSpaceOnUse" x="68" y="186" width="63" height="74">
<path fill-rule="evenodd" clip-rule="evenodd" d="M82.1818 210.7H99.3725H116.563C119.207 210.7 120.829 211.971 120.829 214.611V249.145C120.829 262.384 130.667 262.365 130.667 253.892V221.787C130.667 206.905 123.179 186.127 99.3725 186.127C75.5661 186.127 68.0784 206.905 68.0784 221.787V253.892C68.0784 262.365 77.9156 262.384 77.9156 249.145V214.611C77.9156 211.971 79.5376 210.7 82.1818 210.7Z" fill="white"/>
</mask>
<g mask="url(#mask24)">
<rect x="67.2091" y="185.258" width="64.7614" height="74.7582" fill="#FF488E"/>
<rect x="67.6437" y="186.127" width="63.4575" height="19.9935" fill="black" fill-opacity="0.2"/>
<path fill-rule="evenodd" clip-rule="evenodd" d="M86.1159 198.732L80.6829 190.908H91.549L86.1159 198.732Z" fill="white" fill-opacity="0.5"/>
<path fill-rule="evenodd" clip-rule="evenodd" d="M99.5898 198.732L94.1568 190.908H105.023L99.5898 198.732Z" fill="white" fill-opacity="0.5"/>
<path fill-rule="evenodd" clip-rule="evenodd" d="M113.064 198.732L107.631 190.908H118.497L113.064 198.732Z" fill="white" fill-opacity="0.5"/>
<path fill-rule="evenodd" clip-rule="evenodd" d="M79.1617 194.82L84.5947 202.644H73.7287L79.1617 194.82Z" fill="black" fill-opacity="0.5"/>
<path fill-rule="evenodd" clip-rule="evenodd" d="M92.6356 194.82L98.0686 202.644H87.2026L92.6356 194.82Z" fill="black" fill-opacity="0.5"/>
<path fill-rule="evenodd" clip-rule="evenodd" d="M106.109 194.82L111.542 202.644H100.676L106.109 194.82Z" fill="black" fill-opacity="0.5"/>
<path fill-rule="evenodd" clip-rule="evenodd" d="M119.583 194.82L125.016 202.644H114.15L119.583 194.82Z" fill="black" fill-opacity="0.5"/>
</g>
</g>
<path fill-rule="evenodd" clip-rule="evenodd" d="M182.824 192.647C169.381 192.647 158.484 203.544 158.484 216.987V219.667C156.017 220.081 154.137 222.226 154.137 224.81V230.895C154.137 233.526 156.085 235.701 158.616 236.059C159.515 244.668 164.9 251.942 172.392 255.501V263.559C153.961 264.682 139.359 279.985 139.359 298.699H226.288C226.288 279.985 211.686 264.682 193.255 263.559V255.501C200.747 251.942 206.132 244.668 207.031 236.059C209.562 235.702 211.51 233.526 211.51 230.895V224.81C211.51 222.226 209.63 220.081 207.163 219.667V216.987C207.163 203.544 196.266 192.647 182.824 192.647Z" fill="#D0C6AC"/>
<mask id="mask25" mask-type="alpha" maskUnits="userSpaceOnUse" x="139" y="192" width="88" height="107">
<path fill-rule="evenodd" clip-rule="evenodd" d="M182.824 192.647C169.381 192.647 158.484 203.544 158.484 216.987V219.667C156.017 220.081 154.137 222.226 154.137 224.81V230.895C154.137 233.526 156.085 235.701 158.616 236.059C159.515 244.668 164.9 251.942 172.392 255.501V263.559C153.961 264.682 139.359 279.985 139.359 298.699H226.288C226.288 279.985 211.686 264.682 193.255 263.559V255.501C200.747 251.942 206.132 244.668 207.031 236.059C209.562 235.702 211.51 233.526 211.51 230.895V224.81C211.51 222.226 209.63 220.081 207.163 219.667V216.987C207.163 203.544 196.266 192.647 182.824 192.647Z" fill="white"/>
</mask>
<g mask="url(#mask25)">
<rect x="125.451" y="192.647" width="114.745" height="106.052" fill="#EDB98A"/>
<path fill-rule="evenodd" clip-rule="evenodd" d="M158.484 233.503V236.98C158.484 250.423 169.381 261.32 182.824 261.32C196.266 261.32 207.163 250.423 207.163 236.98V233.503C207.163 246.946 196.266 257.843 182.824 257.843C169.381 257.843 158.484 246.946 158.484 233.503Z" fill="black" fill-opacity="0.1"/>
</g>
<path fill-rule="evenodd" clip-rule="evenodd" d="M197.601 265.015C197.601 270.176 191.082 274.36 183.041 274.36C174.999 274.36 168.48 270.176 168.48 265.015C168.48 264.68 168.508 264.349 168.562 264.022C151.979 266.862 139.359 281.307 139.359 298.699H226.288C226.288 281.464 213.894 267.123 197.533 264.102C197.578 264.402 197.601 264.707 197.601 265.015Z" fill="#E6E6E6"/>
<mask id="mask26" mask-type="alpha" maskUnits="userSpaceOnUse" x="139" y="264" width="88" height="35">
<path fill-rule="evenodd" clip-rule="evenodd" d="M197.601 265.015C197.601 270.176 191.082 274.36 183.041 274.36C174.999 274.36 168.48 270.176 168.48 265.015C168.48 264.68 168.508 264.349 168.562 264.022C151.979 266.862 139.359 281.307 139.359 298.699H226.288C226.288 281.464 213.894 267.123 197.533 264.102C197.578 264.402 197.601 264.707 197.601 265.015Z" fill="white"/>
</mask>
<g mask="url(#mask26)">
<rect x="125.451" y="250.889" width="114.745" height="47.8105" fill="#262E33"/>
<rect width="47.8105" height="19.1242" transform="translate(158.918 276.098)" fill="#E6E6E6"/>
<path fill-rule="evenodd" clip-rule="evenodd" d="M194.691 279.387C194.623 279.792 193.855 281.599 193.287 280.67C193.066 280.308 193.462 279.166 193.585 278.841C193.827 278.2 194.008 278.129 194.568 277.827C194.616 278.344 194.747 278.87 194.691 279.387ZM193.394 280.83C193.407 280.835 193.462 280.887 193.394 280.83V280.83ZM193.39 280.827C193.388 280.825 193.39 280.827 193.39 280.827V280.827ZM190.225 278.795C190.23 278.799 190.248 278.813 190.225 278.795V278.795ZM184.803 280.949C184.713 281.479 184.597 282.009 184.41 282.514C184.337 281.761 184.455 281.012 184.845 280.362C184.841 280.558 184.827 280.754 184.803 280.949ZM184.799 279.862C184.797 279.855 184.73 279.757 184.799 279.862V279.862ZM177.568 284.271C177.634 283.605 177.902 282.959 178.396 282.513C178.276 283.219 177.93 283.674 177.568 284.271ZM199.269 278.4C199.269 278.677 198.374 279.415 198.151 279.619C197.769 279.966 197.362 280.245 196.813 280.164C195.309 279.942 195.905 278.336 195.665 277.347C195.477 276.57 195.283 276.863 194.761 276.814C194.274 276.769 194.101 276.529 193.595 276.895C192.684 277.555 191.958 278.414 191.57 279.494C191.429 278.757 191.029 277.537 190.069 277.715C189.36 277.847 188.772 278.987 188.477 279.559C188.455 279.039 188.187 278.222 187.532 278.595C187.082 278.851 187.101 280.065 187.003 280.512C186.801 281.43 186.403 283.823 184.984 283.512C185.431 282.678 186.41 280.048 185.571 279.193C184.392 277.992 183.496 280.999 183.447 281.731C183.413 282.255 183.797 283.445 183.59 283.77C183.336 284.169 182.535 284.341 182.155 284.049C181.544 283.58 181.785 282.819 181.924 282.224C182.108 281.444 182.194 280.66 182.243 279.861C182.28 279.261 182.802 276.58 181.797 276.543C180.886 276.511 180.793 278.777 180.728 279.396C180.648 280.157 180.599 280.928 180.626 281.694C180.653 282.469 180.797 282.985 180.497 283.712C180.175 284.491 178.644 286.829 177.727 285.277C178.701 284.85 179.862 282.878 179.339 281.771C178.615 280.235 176.985 282.575 176.749 283.36C176.368 284.627 176.536 286.282 177.994 286.694C179.512 287.124 180.684 285.7 181.219 284.442C181.655 285.133 182.456 285.306 183.197 285.097C183.491 285.013 183.774 284.87 184.019 284.685C184.484 284.333 184.212 284.464 184.705 284.449C186.138 284.408 186.92 283.948 187.457 282.474C187.451 282.88 187.606 283.5 188.152 283.278C188.575 283.105 188.572 282.404 188.651 282.03C188.899 280.851 189.288 279.622 190.215 278.804C191.015 279.674 190.424 281.163 190.95 282.09C191.761 283.519 192.17 280.99 192.297 280.502C192.322 282.624 194.845 281.842 195.391 280.434C196.825 281.962 199.839 280.585 199.269 278.4Z" fill="white"/>
<path fill-rule="evenodd" clip-rule="evenodd" d="M196.486 282.769C194.908 282.769 193.18 283.215 191.65 283.559C190.108 283.906 188.574 284.335 187.085 284.85C185.402 285.432 183.69 285.96 182.048 286.642C180.624 287.233 178.784 287.664 177.913 288.996C177.911 288.999 178.827 288.957 178.901 288.945C179.357 288.869 179.749 288.709 180.169 288.529C180.928 288.205 181.682 287.869 182.439 287.54C184.136 286.802 185.907 286.195 187.65 285.561C189.387 284.929 191.168 284.394 192.976 283.985C194.45 283.652 196.098 283.588 197.455 282.997C197.403 283.016 197.437 283.003 197.554 282.957C197.52 282.974 196.589 282.769 196.486 282.769Z" fill="white"/>
<path fill-rule="evenodd" clip-rule="evenodd" d="M175.92 285.15C174.934 284.716 173.539 284.907 172.515 285.046C171.583 285.172 170.126 285.452 169.545 285.527C169.064 285.588 167.63 285.98 167.368 285.442C167.085 284.863 168.549 283.093 168.87 282.676C170.31 280.798 172.042 278.712 174.12 277.494C173.928 278.342 173.761 279.197 173.587 280.048C173.515 280.399 173.174 282.292 173.798 282.442C174.054 282.503 174.568 281.232 174.611 281.118C174.968 280.167 175.051 279.072 175.215 278.075C175.31 277.505 175.737 276.315 174.914 276.119C174.206 275.95 173.246 276.869 172.774 277.257C171.347 278.427 170.111 279.842 168.954 281.264C168.385 281.965 167.818 282.67 167.34 283.436C166.947 284.066 165.998 285.388 166.408 286.167C167.146 287.567 170.685 286.339 171.811 286.153C172.7 286.005 173.616 285.866 174.518 285.989C175.458 286.117 175.412 286.541 175.1 287.378C174.458 289.099 173.024 290.578 171.743 291.864C171.178 292.43 168.969 295.088 168.413 293.642C168.035 292.659 168.37 291.454 168.805 290.55C169.008 290.127 169.278 289.741 169.49 289.322C169.548 289.208 169.839 288.269 169.902 288.248C168.22 288.835 167.243 291.11 167.149 292.719C167.105 293.476 167.209 294.598 167.932 295.052C168.655 295.506 169.334 294.953 169.909 294.537C171.492 293.39 172.904 291.93 174.197 290.48C174.904 289.687 177.871 286.009 175.92 285.15Z" fill="white"/>
</g>
<path fill-rule="evenodd" clip-rule="evenodd" d="M174.617 241.817C175.076 245.943 178.575 249.151 182.823 249.151C187.085 249.151 190.592 245.923 191.035 241.779C191.07 241.446 190.698 240.892 190.231 240.892C183.757 240.892 178.798 240.892 175.472 240.892C175.003 240.892 174.571 241.405 174.617 241.817Z" fill="black" fill-opacity="0.7"/>
<mask id="mask27" mask-type="alpha" maskUnits="userSpaceOnUse" x="174" y="240" width="18" height="10">
<path fill-rule="evenodd" clip-rule="evenodd" d="M174.617 241.817C175.076 245.943 178.575 249.151 182.823 249.151C187.085 249.151 190.592 245.923 191.035 241.779C191.07 241.446 190.698 240.892 190.231 240.892C183.757 240.892 178.798 240.892 175.472 240.892C175.003 240.892 174.571 241.405 174.617 241.817Z" fill="white"/>
</mask>
<g mask="url(#mask27)">
<rect x="176.304" y="236.111" width="13.4739" height="6.95425" rx="3.47712" fill="white"/>
<path fill-rule="evenodd" clip-rule="evenodd" d="M180.65 255.235C183.291 255.235 185.431 253.095 185.431 250.454C185.431 247.814 183.291 245.673 180.65 245.673C178.01 245.673 175.869 247.814 175.869 250.454C175.869 253.095 178.01 255.235 180.65 255.235Z" fill="#FF4F6D"/>
<path fill-rule="evenodd" clip-rule="evenodd" d="M184.997 255.235C187.637 255.235 189.778 253.095 189.778 250.454C189.778 247.814 187.637 245.673 184.997 245.673C182.356 245.673 180.216 247.814 180.216 250.454C180.216 253.095 182.356 255.235 184.997 255.235Z" fill="#FF4F6D"/>
</g>
<path fill-rule="evenodd" clip-rule="evenodd" d="M177.608 233.503C177.608 235.424 179.943 236.981 182.823 236.981C185.704 236.981 188.039 235.424 188.039 233.503" fill="black" fill-opacity="0.16"/>
<path fill-rule="evenodd" clip-rule="evenodd" d="M171.523 228.288C172.963 228.288 174.131 227.12 174.131 225.68C174.131 224.24 172.963 223.072 171.523 223.072C170.083 223.072 168.915 224.24 168.915 225.68C168.915 227.12 170.083 228.288 171.523 228.288Z" fill="black" fill-opacity="0.6"/>
<path fill-rule="evenodd" clip-rule="evenodd" d="M194.124 228.288C195.564 228.288 196.732 227.12 196.732 225.68C196.732 224.24 195.564 223.072 194.124 223.072C192.684 223.072 191.516 224.24 191.516 225.68C191.516 227.12 192.684 228.288 194.124 228.288Z" fill="black" fill-opacity="0.6"/>
<path d="M165.277 220.098C166.979 217.704 171.644 216.362 175.662 217.348C176.128 217.463 176.599 217.178 176.713 216.711C176.828 216.245 176.543 215.774 176.077 215.66C171.41 214.514 166.008 216.069 163.86 219.091C163.582 219.483 163.674 220.025 164.065 220.303C164.456 220.582 164.999 220.49 165.277 220.098Z" fill="black" fill-opacity="0.6"/>
<path d="M200.37 220.098C198.668 217.704 194.003 216.362 189.985 217.348C189.519 217.463 189.048 217.178 188.934 216.711C188.819 216.245 189.104 215.774 189.571 215.66C194.237 214.514 199.639 216.069 201.787 219.091C202.065 219.483 201.973 220.025 201.582 220.303C201.191 220.582 200.648 220.49 200.37 220.098Z" fill="black" fill-opacity="0.6"/>
<mask id="mask28" mask-type="alpha" maskUnits="userSpaceOnUse" x="125" y="177" width="116" height="122">
<rect x="125.451" y="177" width="114.745" height="121.699" fill="white"/>
</mask>
<g mask="url(#mask28)">
<path fill-rule="evenodd" clip-rule="evenodd" d="M174.644 242.082C175.593 241.372 181.262 241.1 182.284 240.496C182.603 240.308 182.85 240.117 183.041 239.927C183.232 240.117 183.479 240.308 183.798 240.496C184.82 241.1 190.489 241.372 191.438 242.082C192.399 242.801 193.1 244.449 193.023 245.739C192.931 247.286 191.239 250.977 187.028 251.402C186.108 250.38 184.665 249.72 183.041 249.72C181.417 249.72 179.973 250.38 179.054 251.402C174.843 250.977 173.151 247.286 173.059 245.739C172.982 244.449 173.683 242.801 174.644 242.082ZM191.143 249.544C191.144 249.544 191.145 249.544 191.145 249.544C191.144 249.544 191.144 249.544 191.143 249.544ZM174.933 249.542C174.935 249.543 174.938 249.544 174.94 249.545C174.938 249.544 174.935 249.543 174.933 249.542ZM209.277 232.628C209.108 230.039 208.588 227.484 208.134 224.935C208.012 224.249 207.348 219.595 207.048 219.595C206.947 223.554 206.599 227.453 206.151 231.391C206.016 232.568 205.876 233.745 205.784 234.926C205.709 235.881 205.842 237.033 205.611 237.956C205.316 239.133 203.838 240.231 202.688 240.636C199.819 241.647 197.427 237.462 194.977 236.238C191.796 234.648 186.328 234.27 183.076 236.341C179.753 234.27 174.286 234.648 171.105 236.238C168.655 237.462 166.262 241.647 163.394 240.636C162.244 240.231 160.766 239.133 160.471 237.956C160.24 237.033 160.373 235.881 160.298 234.926C160.206 233.745 160.065 232.568 159.931 231.391C159.483 227.453 159.135 223.554 159.034 219.595C158.734 219.595 158.069 224.249 157.947 224.935C157.494 227.484 156.974 230.039 156.805 232.628C156.631 235.287 156.839 237.922 157.384 240.528C157.644 241.773 157.948 243.011 158.275 244.241C158.637 245.607 158.136 248.266 158.298 249.668C158.605 252.321 159.855 257.495 161.258 259.778C161.936 260.881 162.732 261.57 163.62 262.459C164.474 263.314 164.831 264.641 165.754 265.552C167.473 267.251 169.978 268.262 172.551 268.511C174.86 270.469 178.697 271.752 183.041 271.752C187.385 271.752 191.222 270.469 193.531 268.511C196.104 268.262 198.609 267.251 200.328 265.552C201.251 264.641 201.608 263.314 202.462 262.459C203.35 261.57 204.145 260.881 204.824 259.778C206.227 257.495 207.477 252.321 207.784 249.668C207.946 248.266 207.445 245.607 207.807 244.241C208.133 243.011 208.437 241.773 208.698 240.528C209.243 237.922 209.45 235.287 209.277 232.628Z" fill="#5E7AA9"/>
<mask id="mask29" mask-type="alpha" maskUnits="userSpaceOnUse" x="156" y="219" width="54" height="53">
<path fill-rule="evenodd" clip-rule="evenodd" d="M174.644 242.082C175.593 241.372 181.262 241.1 182.284 240.496C182.603 240.308 182.85 240.117 183.041 239.927C183.232 240.117 183.479 240.308 183.798 240.496C184.82 241.1 190.489 241.372 191.438 242.082C192.399 242.801 193.1 244.449 193.023 245.739C192.931 247.286 191.239 250.977 187.028 251.402C186.108 250.38 184.665 249.72 183.041 249.72C181.417 249.72 179.973 250.38 179.054 251.402C174.843 250.977 173.151 247.286 173.059 245.739C172.982 244.449 173.683 242.801 174.644 242.082ZM191.143 249.544C191.144 249.544 191.145 249.544 191.145 249.544C191.144 249.544 191.144 249.544 191.143 249.544ZM174.933 249.542C174.935 249.543 174.938 249.544 174.94 249.545C174.938 249.544 174.935 249.543 174.933 249.542ZM209.277 232.628C209.108 230.039 208.588 227.484 208.134 224.935C208.012 224.249 207.348 219.595 207.048 219.595C206.947 223.554 206.599 227.453 206.151 231.391C206.016 232.568 205.876 233.745 205.784 234.926C205.709 235.881 205.842 237.033 205.611 237.956C205.316 239.133 203.838 240.231 202.688 240.636C199.819 241.647 197.427 237.462 194.977 236.238C191.796 234.648 186.328 234.27 183.076 236.341C179.753 234.27 174.286 234.648 171.105 236.238C168.655 237.462 166.262 241.647 163.394 240.636C162.244 240.231 160.766 239.133 160.471 237.956C160.24 237.033 160.373 235.881 160.298 234.926C160.206 233.745 160.065 232.568 159.931 231.391C159.483 227.453 159.135 223.554 159.034 219.595C158.734 219.595 158.069 224.249 157.947 224.935C157.494 227.484 156.974 230.039 156.805 232.628C156.631 235.287 156.839 237.922 157.384 240.528C157.644 241.773 157.948 243.011 158.275 244.241C158.637 245.607 158.136 248.266 158.298 249.668C158.605 252.321 159.855 257.495 161.258 259.778C161.936 260.881 162.732 261.57 163.62 262.459C164.474 263.314 164.831 264.641 165.754 265.552C167.473 267.251 169.978 268.262 172.551 268.511C174.86 270.469 178.697 271.752 183.041 271.752C187.385 271.752 191.222 270.469 193.531 268.511C196.104 268.262 198.609 267.251 200.328 265.552C201.251 264.641 201.608 263.314 202.462 262.459C203.35 261.57 204.145 260.881 204.824 259.778C206.227 257.495 207.477 252.321 207.784 249.668C207.946 248.266 207.445 245.607 207.807 244.241C208.133 243.011 208.437 241.773 208.698 240.528C209.243 237.922 209.45 235.287 209.277 232.628Z" fill="white"/>
</mask>
<g mask="url(#mask29)">
<rect x="146.314" y="208.294" width="73.0196" height="66.0654" fill="#724133"/>
</g>
<g filter="url(#filter10_d)">
<path fill-rule="evenodd" clip-rule="evenodd" d="M168.151 235.242H169.35C175.748 235.242 180.216 231.577 180.216 226.332C180.216 221.823 179.426 217.422 169.989 217.422H168.711C159.273 217.422 158.484 221.823 158.484 226.332C158.484 231.911 162.098 235.242 168.151 235.242ZM160.222 226.767C160.222 223.003 160.222 220.029 168.648 220.029H170.051C178.477 220.029 178.477 223.003 178.477 226.767C178.477 230.733 174.724 233.503 169.35 233.503H168.033C161.577 233.503 160.222 229.84 160.222 226.767Z" fill="#252C2F"/>
<path fill-rule="evenodd" clip-rule="evenodd" d="M195.099 235.242H196.297C202.696 235.242 207.163 231.577 207.163 226.332C207.163 221.823 206.374 217.422 196.936 217.422H195.658C186.221 217.422 185.431 221.823 185.431 226.332C185.431 231.911 189.045 235.242 195.099 235.242ZM187.17 226.767C187.17 223.003 187.17 220.029 195.596 220.029H196.999C205.425 220.029 205.425 223.003 205.425 226.767C205.425 230.733 201.672 233.503 196.297 233.503H194.981C188.526 233.503 187.17 229.84 187.17 226.767Z" fill="#252C2F"/>
<path d="M155.856 219.93C156.157 219.637 159.444 217.422 168.698 217.422C176.457 217.422 178.099 218.227 180.585 219.444L180.767 219.533C180.94 219.594 181.824 219.895 182.858 219.928C183.8 219.887 184.606 219.632 184.841 219.55C187.679 218.17 190.456 217.422 196.949 217.422C206.203 217.422 209.491 219.637 209.791 219.93C210.501 219.93 211.075 220.491 211.075 221.184V222.439C211.075 223.132 210.501 223.693 209.791 223.693C209.791 223.693 206.791 223.693 206.791 224.947C206.791 226.202 205.939 223.132 205.939 222.439V221.217C204.372 220.618 201.569 219.502 196.949 219.502C191.803 219.502 189.239 220.415 187.041 221.321L187.065 221.38L187.064 222.243L186.1 224.569L184.91 224.098C184.804 224.056 184.574 223.981 184.256 223.902C183.37 223.683 182.458 223.617 181.652 223.782C181.356 223.843 181.082 223.934 180.83 224.057L179.681 224.618L178.532 222.375L178.583 221.378L178.618 221.293C176.722 220.409 174.974 219.502 168.698 219.502C164.078 219.502 161.275 220.617 159.709 221.217V222.439C159.709 223.132 158.424 226.202 158.424 224.947C158.424 223.693 155.856 223.693 155.856 223.693C155.147 223.693 154.572 223.132 154.572 222.439V221.184C154.572 220.491 155.147 219.93 155.856 219.93Z" fill="#252C2F"/>
</g>
<path fill-rule="evenodd" clip-rule="evenodd" d="M163.344 193.454C165.579 191.788 168.22 190.361 170.976 189.812C173.778 189.255 175.479 189.12 178.237 189.781C178.947 189.951 179.186 190.12 179.811 189.716C180.337 189.376 184.01 185.591 195.206 187.692C206.522 189.815 209.883 206.849 214.081 207.497C215.593 207.73 217.463 207.33 217.521 206.399C219.244 209.021 219.698 212.487 218.968 215.558C218.339 218.203 217.013 220.689 214.626 222.137C212.572 223.383 209.732 223.926 207.358 223.696C206.278 223.592 205.296 223.365 204.302 222.929C203.103 222.403 202.147 221.455 200.971 220.954C202.199 222.018 203.536 222.957 204.959 223.744C205.672 224.138 206.395 224.409 207.181 224.624C207.718 224.77 208.816 225.267 209.336 225.137C205.942 225.744 202.746 225.215 199.635 223.763C198.23 223.107 196.88 222.314 195.64 221.382C194.408 220.456 192.991 219.51 192.028 218.292C192.432 218.815 191.725 218.037 191.631 217.942C191.367 217.673 191.108 217.398 190.855 217.119C190.419 216.639 189.986 216.15 189.581 215.645C188.714 214.564 187.907 213.436 187.187 212.253C186.458 211.055 183.554 206.223 182.677 205.086C183.505 207.567 184.407 210.049 185.462 212.442C183.414 211.804 181.427 210.033 180.118 208.383C178.644 206.524 177.771 204.354 177.464 202.008C175.801 206.535 171.907 210.105 167.888 212.568C168.758 210.947 170.085 209.575 170.953 207.927C166.958 211.981 160.275 213.965 158.524 219.912C158.075 217.844 156.632 216.182 156.2 214.073C155.72 211.731 155.376 209.245 155.452 206.851C155.625 201.53 159.204 196.54 163.344 193.454Z" fill="#28354B"/>
<mask id="mask30" mask-type="alpha" maskUnits="userSpaceOnUse" x="155" y="187" width="65" height="39">
<path fill-rule="evenodd" clip-rule="evenodd" d="M163.344 193.454C165.579 191.788 168.22 190.361 170.976 189.812C173.778 189.255 175.479 189.12 178.237 189.781C178.947 189.951 179.186 190.12 179.811 189.716C180.337 189.376 184.01 185.591 195.206 187.692C206.522 189.815 209.883 206.849 214.081 207.497C215.593 207.73 217.463 207.33 217.521 206.399C219.244 209.021 219.698 212.487 218.968 215.558C218.339 218.203 217.013 220.689 214.626 222.137C212.572 223.383 209.732 223.926 207.358 223.696C206.278 223.592 205.296 223.365 204.302 222.929C203.103 222.403 202.147 221.455 200.971 220.954C202.199 222.018 203.536 222.957 204.959 223.744C205.672 224.138 206.395 224.409 207.181 224.624C207.718 224.77 208.816 225.267 209.336 225.137C205.942 225.744 202.746 225.215 199.635 223.763C198.23 223.107 196.88 222.314 195.64 221.382C194.408 220.456 192.991 219.51 192.028 218.292C192.432 218.815 191.725 218.037 191.631 217.942C191.367 217.673 191.108 217.398 190.855 217.119C190.419 216.639 189.986 216.15 189.581 215.645C188.714 214.564 187.907 213.436 187.187 212.253C186.458 211.055 183.554 206.223 182.677 205.086C183.505 207.567 184.407 210.049 185.462 212.442C183.414 211.804 181.427 210.033 180.118 208.383C178.644 206.524 177.771 204.354 177.464 202.008C175.801 206.535 171.907 210.105 167.888 212.568C168.758 210.947 170.085 209.575 170.953 207.927C166.958 211.981 160.275 213.965 158.524 219.912C158.075 217.844 156.632 216.182 156.2 214.073C155.72 211.731 155.376 209.245 155.452 206.851C155.625 201.53 159.204 196.54 163.344 193.454Z" fill="white"/>
</mask>
<g mask="url(#mask30)">
<rect x="125.451" y="177" width="114.745" height="121.699" fill="#4A312C"/>
</g>
</g>
<defs>
<filter id="filter0_d" x="71.0197" y="38.0901" width="56.7056" height="23.4292" filterUnits="userSpaceOnUse" color-interpolation-filters="sRGB">
<feFlood flood-opacity="0" result="BackgroundImageFix"/>
<feColorMatrix in="SourceAlpha" type="matrix" values="0 0 0 0 0 0 0 0 0 0 0 0 0 0 0 0 0 0 127 0"/>
<feOffset dy="2"/>
<feColorMatrix type="matrix" values="0 0 0 0 0 0 0 0 0 0 0 0 0 0 0 0 0 0 0.16 0"/>
<feBlend mode="normal" in2="BackgroundImageFix" result="effect1_dropShadow"/>
<feBlend mode="normal" in="SourceGraphic" in2="effect1_dropShadow" result="shape"/>
</filter>
<filter id="filter1_d" x="76.8036" y="111.125" width="9.06315" height="10.3459" filterUnits="userSpaceOnUse" color-interpolation-filters="sRGB">
<feFlood flood-opacity="0" result="BackgroundImageFix"/>
<feColorMatrix in="SourceAlpha" type="matrix" values="0 0 0 0 0 0 0 0 0 0 0 0 0 0 0 0 0 0 127 0"/>
<feOffset dy="2"/>
<feColorMatrix type="matrix" values="0 0 0 0 0 0 0 0 0 0 0 0 0 0 0 0 0 0 0.2 0"/>
<feBlend mode="normal" in2="BackgroundImageFix" result="effect1_dropShadow"/>
<feBlend mode="normal" in="SourceGraphic" in2="effect1_dropShadow" result="shape"/>
</filter>
<filter id="filter2_d" x="64.1158" y="94.0007" width="11.184" height="8.97782" filterUnits="userSpaceOnUse" color-interpolation-filters="sRGB">
<feFlood flood-opacity="0" result="BackgroundImageFix"/>
<feColorMatrix in="SourceAlpha" type="matrix" values="0 0 0 0 0 0 0 0 0 0 0 0 0 0 0 0 0 0 127 0"/>
<feOffset dy="2"/>
<feColorMatrix type="matrix" values="0 0 0 0 0 0 0 0 0 0 0 0 0 0 0 0 0 0 0.2 0"/>
<feBlend mode="normal" in2="BackgroundImageFix" result="effect1_dropShadow"/>
<feBlend mode="normal" in="SourceGraphic" in2="effect1_dropShadow" result="shape"/>
</filter>
<filter id="filter3_d" x="35.9149" y="110.441" width="11.184" height="8.97761" filterUnits="userSpaceOnUse" color-interpolation-filters="sRGB">
<feFlood flood-opacity="0" result="BackgroundImageFix"/>
<feColorMatrix in="SourceAlpha" type="matrix" values="0 0 0 0 0 0 0 0 0 0 0 0 0 0 0 0 0 0 127 0"/>
<feOffset dy="2"/>
<feColorMatrix type="matrix" values="0 0 0 0 0 0 0 0 0 0 0 0 0 0 0 0 0 0 0.2 0"/>
<feBlend mode="normal" in2="BackgroundImageFix" result="effect1_dropShadow"/>
<feBlend mode="normal" in="SourceGraphic" in2="effect1_dropShadow" result="shape"/>
</filter>
<filter id="filter4_d" x="29.1189" y="100.614" width="10.9153" height="13.2077" filterUnits="userSpaceOnUse" color-interpolation-filters="sRGB">
<feFlood flood-opacity="0" result="BackgroundImageFix"/>
<feColorMatrix in="SourceAlpha" type="matrix" values="0 0 0 0 0 0 0 0 0 0 0 0 0 0 0 0 0 0 127 0"/>
<feOffset dy="2"/>
<feColorMatrix type="matrix" values="0 0 0 0 0 0 0 0 0 0 0 0 0 0 0 0 0 0 0.2 0"/>
<feBlend mode="normal" in2="BackgroundImageFix" result="effect1_dropShadow"/>
<feBlend mode="normal" in="SourceGraphic" in2="effect1_dropShadow" result="shape"/>
</filter>
<filter id="filter5_d" x="37.8373" y="95.1401" width="17.0159" height="19.0139" filterUnits="userSpaceOnUse" color-interpolation-filters="sRGB">
<feFlood flood-opacity="0" result="BackgroundImageFix"/>
<feColorMatrix in="SourceAlpha" type="matrix" values="0 0 0 0 0 0 0 0 0 0 0 0 0 0 0 0 0 0 127 0"/>
<feOffset dy="2"/>
<feColorMatrix type="matrix" values="0 0 0 0 0 0 0 0 0 0 0 0 0 0 0 0 0 0 0.2 0"/>
<feBlend mode="normal" in2="BackgroundImageFix" result="effect1_dropShadow"/>
<feBlend mode="normal" in="SourceGraphic" in2="effect1_dropShadow" result="shape"/>
</filter>
<filter id="filter6_d" x="67.967" y="99.3137" width="15.5333" height="17.9494" filterUnits="userSpaceOnUse" color-interpolation-filters="sRGB">
<feFlood flood-opacity="0" result="BackgroundImageFix"/>
<feColorMatrix in="SourceAlpha" type="matrix" values="0 0 0 0 0 0 0 0 0 0 0 0 0 0 0 0 0 0 127 0"/>
<feOffset dy="2"/>
<feColorMatrix type="matrix" values="0 0 0 0 0 0 0 0 0 0 0 0 0 0 0 0 0 0 0.2 0"/>
<feBlend mode="normal" in2="BackgroundImageFix" result="effect1_dropShadow"/>
<feBlend mode="normal" in="SourceGraphic" in2="effect1_dropShadow" result="shape"/>
</filter>
<filter id="filter7_d" x="49.9872" y="88.052" width="23.4853" height="25.2735" filterUnits="userSpaceOnUse" color-interpolation-filters="sRGB">
<feFlood flood-opacity="0" result="BackgroundImageFix"/>
<feColorMatrix in="SourceAlpha" type="matrix" values="0 0 0 0 0 0 0 0 0 0 0 0 0 0 0 0 0 0 127 0"/>
<feOffset dy="2"/>
<feColorMatrix type="matrix" values="0 0 0 0 0 0 0 0 0 0 0 0 0 0 0 0 0 0 0.2 0"/>
<feBlend mode="normal" in2="BackgroundImageFix" result="effect1_dropShadow"/>
<feBlend mode="normal" in="SourceGraphic" in2="effect1_dropShadow" result="shape"/>
</filter>
<filter id="filter8_d" x="112.846" y="127.987" width="56.5033" height="19.8203" filterUnits="userSpaceOnUse" color-interpolation-filters="sRGB">
<feFlood flood-opacity="0" result="BackgroundImageFix"/>
<feColorMatrix in="SourceAlpha" type="matrix" values="0 0 0 0 0 0 0 0 0 0 0 0 0 0 0 0 0 0 127 0"/>
<feOffset dy="2"/>
<feColorMatrix type="matrix" values="0 0 0 0 0 0 0 0 0 0 0 0 0 0 0 0 0 0 0.2 0"/>
<feBlend mode="normal" in2="BackgroundImageFix" result="effect1_dropShadow"/>
<feBlend mode="normal" in="SourceGraphic" in2="effect1_dropShadow" result="shape"/>
</filter>
<filter id="filter9_d" x="197.167" y="126.248" width="54.7647" height="22.8627" filterUnits="userSpaceOnUse" color-interpolation-filters="sRGB">
<feFlood flood-opacity="0" result="BackgroundImageFix"/>
<feColorMatrix in="SourceAlpha" type="matrix" values="0 0 0 0 0 0 0 0 0 0 0 0 0 0 0 0 0 0 127 0"/>
<feOffset dy="2"/>
<feColorMatrix type="matrix" values="0 0 0 0 0 0 0 0 0 0 0 0 0 0 0 0 0 0 0.1 0"/>
<feBlend mode="normal" in2="BackgroundImageFix" result="effect1_dropShadow"/>
<feBlend mode="normal" in="SourceGraphic" in2="effect1_dropShadow" result="shape"/>
</filter>
<filter id="filter10_d" x="154.572" y="217.422" width="56.5033" height="19.8203" filterUnits="userSpaceOnUse" color-interpolation-filters="sRGB">
<feFlood flood-opacity="0" result="BackgroundImageFix"/>
<feColorMatrix in="SourceAlpha" type="matrix" values="0 0 0 0 0 0 0 0 0 0 0 0 0 0 0 0 0 0 127 0"/>
<feOffset dy="2"/>
<feColorMatrix type="matrix" values="0 0 0 0 0 0 0 0 0 0 0 0 0 0 0 0 0 0 0.2 0"/>
<feBlend mode="normal" in2="BackgroundImageFix" result="effect1_dropShadow"/>
<feBlend mode="normal" in="SourceGraphic" in2="effect1_dropShadow" result="shape"/>
</filter>
</defs>
</svg>
