<svg width="583" height="584" viewBox="0 0 583 584" fill="none" xmlns="http://www.w3.org/2000/svg">
<path d="M233.375 408.687C233.375 376.505 207.286 350.417 175.104 350.417C142.922 350.417 116.833 376.506 116.833 408.688C116.833 440.87 142.922 466.959 175.104 466.958C207.286 466.958 233.375 440.869 233.375 408.687Z" fill="#D33367"/>
<path d="M209.602 408.398C209.602 389.505 194.287 374.189 175.394 374.189C156.501 374.189 141.185 389.505 141.185 408.398C141.185 427.291 156.501 442.607 175.394 442.607C194.287 442.606 209.602 427.291 209.602 408.398Z" fill="#2D374C"/>
<path d="M193.368 408.398C193.368 398.471 185.32 390.424 175.394 390.424C165.467 390.424 157.42 398.471 157.42 408.398C157.42 418.325 165.467 426.372 175.394 426.372C185.32 426.372 193.368 418.325 193.368 408.398Z" fill="#36868E"/>
<path d="M233.375 175.895C233.375 143.713 207.286 117.625 175.104 117.625C142.922 117.625 116.833 143.714 116.833 175.896C116.833 208.078 142.922 234.167 175.104 234.166C207.286 234.166 233.375 208.077 233.375 175.895Z" fill="#FF8B61"/>
<path d="M209.603 175.606C209.603 156.713 194.287 141.397 175.394 141.397C156.501 141.397 141.185 156.713 141.185 175.606C141.185 194.499 156.501 209.815 175.394 209.814C194.287 209.814 209.603 194.499 209.603 175.606Z" fill="#2D374C"/>
<path d="M193.368 175.606C193.368 165.679 185.321 157.632 175.394 157.632C165.467 157.632 157.42 165.679 157.42 175.606C157.42 185.533 165.467 193.58 175.394 193.58C185.321 193.58 193.368 185.533 193.368 175.606Z" fill="#F1E3CF"/>
<path d="M204.597 58.4949C220.412 58.4948 233.232 45.6748 233.232 29.8604C233.232 14.0461 220.412 1.22617 204.597 1.22623C188.783 1.22629 175.963 14.0464 175.963 29.8607C175.963 45.675 188.783 58.4949 204.597 58.4949Z" fill="#D33367"/>
<path d="M204.597 117.482C220.412 117.482 233.232 104.661 233.232 88.8471C233.232 73.0328 220.412 60.2129 204.597 60.2129C188.783 60.213 175.963 73.0331 175.963 88.8474C175.963 104.662 188.783 117.482 204.597 117.482Z" fill="#FF8B61"/>
<path d="M146.756 58.495C162.57 58.4949 175.39 45.6749 175.39 29.8606C175.39 14.0463 162.57 1.22629 146.756 1.22635C130.941 1.22641 118.121 14.0465 118.121 29.8608C118.121 45.6751 130.941 58.4951 146.756 58.495Z" fill="#FF8B61"/>
<path d="M116.833 117.625L146.04 117.625C162.171 117.625 175.247 104.484 175.247 88.2745C175.247 72.0648 162.171 58.9243 146.04 58.9244C129.909 58.9245 116.833 72.065 116.833 88.2747L116.833 117.625Z" fill="#36868E"/>
<path d="M116.833 59.3516C116.833 27.1707 90.7442 1.08383 58.5621 1.085C26.38 1.08617 0.291273 27.1749 0.291287 59.3559L0.291313 117.625L58.5622 117.622C90.7443 117.621 116.833 91.5326 116.833 59.3516Z" fill="#F1E3CF"/>
<path d="M69.982 82.7791C69.982 63.5359 54.3812 47.9367 35.1365 47.9374C15.8919 47.9381 0.291015 63.5384 0.291023 82.7816L0.291039 117.625L35.1365 117.623C54.3812 117.623 69.982 102.022 69.982 82.7791Z" fill="#2D374C"/>
<path d="M94.7252 59.3537C94.7252 39.7062 78.7966 23.7793 59.1477 23.78C39.4987 23.7807 23.5701 39.7087 23.5701 59.3563C23.5702 79.0038 39.4988 94.9307 59.1477 94.9299C78.7966 94.9292 94.7252 79.0012 94.7252 59.3537Z" fill="#36868E"/>
<path d="M79.9745 59.3538C79.9745 47.8524 70.65 38.529 59.1477 38.5294C47.6454 38.5298 38.321 47.8539 38.321 59.3553C38.321 70.8567 47.6455 80.1801 59.1477 80.1797C70.65 80.1793 79.9745 70.8552 79.9745 59.3538Z" fill="#2D374C"/>
<path d="M340.444 408.835C340.444 381.793 318.532 359.871 291.502 359.871C264.472 359.871 242.56 381.793 242.56 408.836C242.56 435.878 264.472 457.8 291.502 457.8C318.532 457.8 340.444 435.878 340.444 408.835Z" fill="#F1E3CF"/>
<path d="M233.375 350.708C265.398 350.708 291.358 376.605 291.358 408.549C259.335 408.55 233.375 382.653 233.375 350.708Z" fill="#D33367"/>
<path d="M289.67 409.409L291.358 409.409L291.358 411.093C291.358 442.108 266.154 467.25 235.063 467.25L233.375 467.25L233.375 465.565C233.375 434.551 258.579 409.409 289.67 409.409Z" fill="#36868E"/>
<path d="M291.933 411.093L291.933 409.409L293.621 409.409C324.712 409.408 349.916 434.55 349.916 465.565L349.916 467.25L348.228 467.25C317.137 467.25 291.933 442.108 291.933 411.093Z" fill="#D33367"/>
<path d="M348.228 350.708L349.916 350.708L349.916 352.393C349.916 383.408 324.712 408.55 293.621 408.55L291.933 408.55L291.933 406.865C291.933 375.851 317.137 350.709 348.228 350.708Z" fill="#36868E"/>
<path d="M340.336 59.3369C340.336 32.2945 318.414 10.3723 291.371 10.3724C264.329 10.3725 242.407 32.2948 242.407 59.3373C242.407 86.3798 264.329 108.302 291.371 108.302C318.414 108.302 340.336 86.3794 340.336 59.3369Z" fill="#F1E3CF"/>
<path d="M349.916 61.0514C349.916 92.2962 324.588 117.625 293.343 117.625L291.646 117.625L291.646 115.928C291.646 84.6833 316.975 59.3544 348.219 59.3542L349.916 59.3542L349.916 61.0514Z" fill="#D33367"/>
<path d="M291.646 2.78079L291.646 1.08358L293.343 1.08357C324.588 1.08345 349.916 26.4122 349.916 57.657L349.916 59.3542L348.219 59.3542C316.975 59.3543 291.646 34.0255 291.646 2.78079Z" fill="#36868E"/>
<path d="M291.646 57.6571L291.646 59.3543L289.948 59.3543C258.704 59.3545 233.375 34.0257 233.375 2.78091L233.375 1.0837L235.072 1.08369C266.317 1.08357 291.646 26.4124 291.646 57.6571Z" fill="#D33367"/>
<path d="M233.375 115.928C233.375 84.6833 258.704 59.3544 289.948 59.3542L291.646 59.3542L291.646 61.0514C291.646 92.2962 266.317 117.625 235.072 117.625L233.375 117.625L233.375 115.928Z" fill="#36868E"/>
<path d="M408.204 574.212C435.247 574.212 457.169 552.289 457.169 525.247C457.169 498.204 435.247 476.282 408.204 476.282C381.162 476.282 359.24 498.205 359.24 525.247C359.24 552.29 381.162 574.212 408.204 574.212Z" fill="#F1E3CF"/>
<path d="M406.49 583.792C375.245 583.792 349.916 558.463 349.916 527.218L349.916 525.521L351.613 525.521C382.858 525.521 408.187 550.85 408.187 582.095L408.187 583.792L406.49 583.792Z" fill="#D33367"/>
<path d="M464.761 525.521L466.458 525.521L466.458 527.218C466.458 558.463 441.129 583.792 409.884 583.792L408.187 583.792L408.187 582.095C408.187 550.85 433.516 525.521 464.761 525.521Z" fill="#36868E"/>
<path d="M409.884 525.521L408.187 525.521L408.187 523.824C408.187 492.579 433.516 467.25 464.761 467.25L466.458 467.25L466.458 468.947C466.458 500.192 441.129 525.521 409.884 525.521Z" fill="#D33367"/>
<path d="M351.613 467.25C382.858 467.25 408.187 492.579 408.187 523.824L408.187 525.521L406.49 525.521C375.245 525.521 349.916 500.192 349.916 468.948L349.916 467.25L351.613 467.25Z" fill="#36868E"/>
<path d="M0.29137 234.166L116.833 234.166L116.833 350.708C52.4689 350.708 0.291376 298.531 0.29137 234.166Z" fill="#D33367"/>
<path d="M50.6877 234.167L116.833 234.167L116.833 300.475C80.302 300.475 50.6877 270.788 50.6877 234.167Z" fill="#F1E3CF"/>
<path d="M86.4806 234.167L116.833 234.166L116.833 264.594C100.07 264.594 86.4806 250.971 86.4806 234.167Z" fill="#2D374C"/>
<path d="M349.916 583.791L233.375 583.792L233.375 467.25C297.739 467.25 349.916 519.427 349.916 583.791Z" fill="#36868E"/>
<path d="M299.683 583.792L233.375 583.792L233.375 517.646C269.996 517.646 299.683 547.26 299.683 583.792Z" fill="#F1E3CF"/>
<path d="M263.802 583.791L233.374 583.792L233.374 553.439C250.179 553.439 263.802 567.028 263.802 583.791Z" fill="#2D374C"/>
<path d="M0.291376 525.23C0.291372 493.047 26.3801 466.959 58.5622 466.958C90.7443 466.958 116.833 493.047 116.833 525.229C116.833 557.411 90.7443 583.5 58.5622 583.5C26.3801 583.5 0.291379 557.412 0.291376 525.23Z" fill="#36868E"/>
<path d="M23.7715 524.943C23.7715 505.571 39.476 489.866 58.8485 489.866C78.2211 489.866 93.9256 505.571 93.9256 524.943C93.9256 544.316 78.2211 560.02 58.8485 560.02C39.476 560.02 23.7715 544.316 23.7715 524.943Z" fill="#F1E3CF"/>
<path d="M40.6658 524.371C40.6658 514.012 49.0629 505.615 59.4213 505.615C69.7796 505.615 78.1767 514.012 78.1767 524.371C78.1767 534.729 69.7796 543.126 59.4213 543.126C49.0629 543.126 40.6658 534.729 40.6658 524.371Z" fill="#2D374C"/>
<path d="M46.1062 466.959L116.833 466.958L116.833 537.685C77.7717 537.685 46.1062 506.02 46.1062 466.959Z" fill="#D33367"/>
<path d="M57.2686 438.324C57.2686 454.139 44.4485 466.959 28.6342 466.959C12.8199 466.959 -0.000102189 454.139 -0.000103834 438.325C-0.000105478 422.51 12.8199 409.69 28.6342 409.69C44.4485 409.69 57.2686 422.51 57.2686 438.324Z" fill="#FF8B61"/>
<path d="M116.542 438.325C116.542 454.139 103.722 466.959 87.9073 466.959C72.093 466.959 59.273 454.139 59.273 438.325C59.273 422.511 72.093 409.69 87.9073 409.69C103.722 409.69 116.542 422.51 116.542 438.325Z" fill="#D33367"/>
<path d="M57.2687 380.197C57.2687 396.011 44.4487 408.831 28.6344 408.831C12.82 408.831 1.98808e-05 396.011 1.82364e-05 380.197C1.65919e-05 364.383 12.82 351.563 28.6343 351.562C44.4487 351.562 57.2687 364.382 57.2687 380.197Z" fill="#D33367"/>
<path d="M116.542 350.417L116.542 379.767C116.542 395.977 103.401 409.117 87.1914 409.117C70.9818 409.117 57.8413 395.977 57.8413 379.767C57.8413 363.558 70.9818 350.417 87.1914 350.417L116.542 350.417Z" fill="#36868E"/>
<path d="M378.694 291.578C362.879 291.578 350.059 278.758 350.059 262.944C350.059 247.13 362.879 234.31 378.694 234.31C394.508 234.31 407.328 247.129 407.328 262.944C407.328 278.758 394.508 291.578 378.694 291.578Z" fill="#D33367"/>
<path d="M378.694 350.565C362.879 350.565 350.059 337.745 350.059 321.931C350.059 306.117 362.879 293.296 378.694 293.296C394.508 293.296 407.328 306.116 407.328 321.931C407.328 337.745 394.508 350.565 378.694 350.565Z" fill="#FF8B61"/>
<path d="M436.535 291.578C420.721 291.578 407.901 278.758 407.901 262.944C407.901 247.13 420.721 234.31 436.535 234.31C452.349 234.31 465.169 247.129 465.169 262.944C465.169 278.758 452.349 291.578 436.535 291.578Z" fill="#FF8B61"/>
<path d="M466.458 350.708L437.251 350.708C421.12 350.708 408.044 337.568 408.044 321.358C408.044 305.149 421.12 292.008 437.251 292.008C453.382 292.008 466.458 305.148 466.458 321.358L466.458 350.708Z" fill="#36868E"/>
<path d="M523.727 555.157C523.727 570.972 510.907 583.792 495.092 583.792C479.278 583.792 466.458 570.972 466.458 555.157C466.458 539.343 479.278 526.523 495.092 526.523C510.907 526.523 523.727 539.343 523.727 555.157Z" fill="#D33367"/>
<path d="M583 555.157C583 570.971 570.18 583.791 554.365 583.791C538.551 583.792 525.731 570.972 525.731 555.157C525.731 539.343 538.551 526.523 554.365 526.523C570.18 526.523 583 539.343 583 555.157Z" fill="#FF8B61"/>
<path d="M523.727 497.03C523.727 512.844 510.907 525.664 495.092 525.664C479.278 525.664 466.458 512.844 466.458 497.03C466.458 481.216 479.278 468.395 495.092 468.395C510.907 468.395 523.727 481.215 523.727 497.03Z" fill="#FF8B61"/>
<path d="M583 467.25L583 496.6C583 512.81 569.859 525.95 553.649 525.95C537.44 525.95 524.299 512.81 524.299 496.6C524.299 480.391 537.44 467.25 553.649 467.25L583 467.25Z" fill="#36868E"/>
<path d="M437.824 205.532L437.824 145.973L378.264 145.973L378.264 205.532L437.824 205.532Z" fill="#F1E3CF"/>
<path d="M433.569 176.189L407.894 201.863L382.22 176.189L407.894 150.514L433.569 176.189Z" fill="#36868E"/>
<path d="M455.291 128.793L455.291 164.013C435.839 164.013 420.07 148.244 420.07 128.793L455.291 128.793Z" fill="#D33367"/>
<path d="M361.084 128.792L396.304 128.792C396.304 148.244 380.535 164.013 361.084 164.013L361.084 128.792Z" fill="#D33367"/>
<path d="M361.084 222.14L361.084 186.92C380.535 186.92 396.304 202.689 396.304 222.14L361.084 222.14Z" fill="#D33367"/>
<path d="M455.291 222.14L420.07 222.14C420.07 202.689 435.839 186.92 455.291 186.92L455.291 222.14Z" fill="#D33367"/>
<path d="M216.532 525.124L175.166 566.461L133.799 525.125L175.166 483.788L216.532 525.124Z" fill="#FF8B61"/>
<path d="M195.995 525.124L175.166 545.939L154.336 525.124L175.166 504.31L195.995 525.124Z" fill="#F1E3CF"/>
<path d="M53.5842 217.768L53.5842 181.459L17.2747 181.459L17.2748 217.769L53.5842 217.768Z" fill="#F1E3CF"/>
<path d="M99.2639 217.768L99.2639 181.459L62.9544 181.459L62.9544 217.768L99.2639 217.768Z" fill="#F1E3CF"/>
<path d="M53.5842 170.917L53.5842 134.608L17.2747 134.608L17.2748 170.918L53.5842 170.917Z" fill="#F1E3CF"/>
<path d="M99.2639 170.917L99.2639 134.608L62.9544 134.608L62.9544 170.918L99.2639 170.917Z" fill="#F1E3CF"/>
<path d="M43.6284 208.398L43.6284 191.415L26.645 191.415L26.645 208.398L43.6284 208.398Z" fill="#2D374C"/>
<path d="M89.3081 208.398L89.3081 191.415L72.3246 191.415L72.3246 208.398L89.3081 208.398Z" fill="#2D374C"/>
<path d="M43.6284 161.547L43.6284 144.564L26.645 144.564L26.645 161.547L43.6284 161.547Z" fill="#2D374C"/>
<path d="M89.3081 161.547L89.3081 144.564L72.3246 144.564L72.3246 161.547L89.3081 161.547Z" fill="#2D374C"/>
<path d="M333.074 291.749L291.707 333.086L250.34 291.75L291.707 250.413L333.074 291.749Z" fill="#2D374C"/>
<path d="M306.436 277.031L306.436 306.468L276.978 306.468L276.978 277.031L306.436 277.031Z" fill="#36868E"/>
<path d="M466.458 292.437C466.458 260.255 492.547 234.166 524.729 234.166C556.911 234.166 583 260.255 583 292.437L583 350.708L524.729 350.708C492.547 350.708 466.458 324.619 466.458 292.437Z" fill="#F1E3CF"/>
<path d="M513.309 315.863C513.309 296.618 528.91 281.017 548.154 281.017C567.399 281.017 583 296.618 583 315.862L583 350.708L548.154 350.708C528.91 350.708 513.309 335.107 513.309 315.863Z" fill="#2D374C"/>
<path d="M488.566 292.437C488.566 272.788 504.494 256.86 524.143 256.86C543.792 256.859 559.721 272.788 559.721 292.437C559.721 312.086 543.792 328.014 524.143 328.014C504.494 328.014 488.566 312.086 488.566 292.437Z" fill="#36868E"/>
<path d="M503.317 292.437C503.317 280.935 512.641 271.61 524.143 271.61C535.646 271.61 544.97 280.935 544.97 292.437C544.97 303.939 535.646 313.264 524.143 313.264C512.641 313.264 503.317 303.939 503.317 292.437Z" fill="#2D374C"/>
<path d="M349.916 408.979L349.916 350.708L408.187 350.708C440.369 350.708 466.458 376.796 466.458 408.978L466.458 467.249L408.187 467.25C376.005 467.25 349.916 441.161 349.916 408.979Z" fill="#36868E"/>
<path d="M375.099 408.979C375.099 390.058 390.437 374.719 409.358 374.719C428.28 374.719 443.618 390.057 443.618 408.979L443.618 443.238L409.358 443.239C390.437 443.239 375.099 427.9 375.099 408.979Z" fill="#2D374C"/>
<path d="M349.916 373.723L349.916 350.415L373.225 350.415C392.534 350.415 408.187 366.068 408.187 385.377L408.187 408.686L384.879 408.686C365.57 408.686 349.916 393.033 349.916 373.723Z" fill="#F1E3CF"/>
<path d="M524.436 234.164L466.458 234.166L466.458 176.19C466.458 143.848 492.678 117.628 525.022 117.627L583 117.625L583 175.6C583 207.943 556.78 234.163 524.436 234.164Z" fill="#36868E"/>
<path d="M524.729 208.983C505.807 208.984 490.469 193.647 490.469 174.727C490.469 155.807 505.807 140.469 524.728 140.468L558.988 140.467L558.988 174.724C558.988 193.644 543.65 208.982 524.729 208.983Z" fill="#2D374C"/>
<path d="M489.473 234.165L466.165 234.166L466.165 210.86C466.165 191.552 481.818 175.899 501.127 175.898L524.436 175.898L524.436 199.204C524.436 218.512 508.783 234.165 489.473 234.165Z" fill="#FF8B61"/>
<path d="M349.916 175.896C349.916 208.078 323.828 234.167 291.645 234.167C259.463 234.167 233.375 208.078 233.375 175.896L233.375 117.626L291.645 117.625C323.828 117.625 349.916 143.714 349.916 175.896Z" fill="#F1E3CF"/>
<path d="M303.065 152.47C303.065 171.715 287.465 187.316 268.22 187.316C248.975 187.316 233.375 171.715 233.375 152.471L233.375 117.625L268.22 117.625C287.465 117.625 303.065 133.226 303.065 152.47Z" fill="#D33367"/>
<path d="M327.809 175.896C327.809 195.545 311.88 211.473 292.231 211.473C272.582 211.474 256.654 195.545 256.654 175.896C256.654 156.247 272.582 140.319 292.231 140.319C311.88 140.319 327.809 156.247 327.809 175.896Z" fill="#36868E"/>
<path d="M313.058 175.896C313.058 187.398 303.733 196.723 292.231 196.723C280.729 196.723 271.404 187.398 271.404 175.896C271.404 164.394 280.729 155.069 292.231 155.069C303.733 155.069 313.058 164.394 313.058 175.896Z" fill="#2D374C"/>
<path d="M116.833 321.865L116.833 263.011L146.26 292.438L116.833 321.865Z" fill="#FF8B61"/>
<path d="M116.833 234.167L233.375 234.166L233.375 350.708L116.833 234.167Z" fill="#36868E"/>
<path d="M116.833 350.709L233.375 234.166L233.375 350.708L116.833 350.709Z" fill="#F1E3CF"/>
<path d="M583 379.552L583 438.406L553.573 408.979L583 379.552Z" fill="#36868E"/>
<path d="M583 467.25L466.458 467.25L466.458 350.709L583 467.25Z" fill="#F1E3CF"/>
<path d="M583 350.708L466.458 467.25L466.458 350.709L583 350.708Z" fill="#D33367"/>
<path d="M466.458 29.6359L466.458 88.4894L437.031 59.0628L466.458 29.6359Z" fill="#FF8B61"/>
<path d="M466.458 117.334L349.916 117.334L349.916 0.792315L466.458 117.334Z" fill="#36868E"/>
<path d="M466.458 0.79187L349.916 117.334L349.916 0.792315L466.458 0.79187Z" fill="#F1E3CF"/>
<path d="M466.458 88.4899L466.458 29.6363L495.885 59.063L466.458 88.4899Z" fill="#FF8B61"/>
<path d="M466.458 0.792274L583 0.79183L583 117.334L466.458 0.792274Z" fill="#36868E"/>
<path d="M466.458 117.334L583 0.79183L583 117.334L466.458 117.334Z" fill="#F1E3CF"/>
</svg>
